/* XPM */
static char *_2342_5f54a030aaa37c79c0d9f460d8137b71ee1b599025de66df8c458922f4500bc4[] = {
/* columns rows colors chars-per-pixel */
"64 64 254 2 ",
"   c #010101",
".  c #0B0100",
"X  c #020902",
"o  c #0C0904",
"O  c #01020B",
"+  c #0B030A",
"@  c #020A0B",
"#  c #0B0B09",
"$  c #140100",
"%  c #1B0100",
"&  c #1C0A00",
"*  c #140804",
"=  c #010212",
"-  c #020A10",
";  c #090312",
":  c #181510",
">  c #230200",
",  c #2C0300",
"<  c #240A00",
"1  c #2B0B00",
"2  c #320D00",
"3  c #340500",
"4  c #281503",
"5  c #3C1A00",
"6  c #371400",
"7  c #392300",
"8  c #2D2825",
"9  c #410C00",
"0  c #431B00",
"q  c #4A1900",
"w  c #481602",
"e  c #591A02",
"r  c #462905",
"t  c #572A09",
"y  c #4D3506",
"u  c #543505",
"i  c #533216",
"p  c #662C03",
"a  c #633A06",
"s  c #673B17",
"d  c #75320C",
"f  c #463A2C",
"g  c #683B28",
"h  c #584613",
"j  c #6B491A",
"k  c #794918",
"l  c #6B400B",
"z  c #574335",
"x  c #745323",
"c  c #714B2B",
"v  c #796528",
"b  c #705941",
"n  c #6F6154",
"m  c #813C2D",
"M  c #8E4D17",
"N  c #896919",
"B  c #864823",
"V  c #85562A",
"C  c #985929",
"Z  c #9A5A38",
"A  c #86593B",
"S  c #AB582B",
"D  c #846334",
"F  c #8D7536",
"G  c #976B31",
"H  c #A76838",
"J  c #B26D35",
"K  c #A3541C",
"L  c #EB7A1C",
"P  c #F4771D",
"I  c #ED681D",
"U  c #DE7828",
"Y  c #D86D33",
"T  c #DA7638",
"R  c #D16F33",
"E  c #E76B25",
"W  c #F26D24",
"Q  c #E57D2C",
"!  c #EA7628",
"~  c #F3732B",
"^  c #F67726",
"/  c #E47433",
"(  c #E87938",
")  c #F27432",
"_  c #F77B34",
"`  c #E46F35",
"'  c #8A5D44",
"]  c #93754D",
"[  c #A86944",
"{  c #B87749",
"}  c #B1734B",
"|  c #B25F41",
" . c #CC7544",
".. c #C5784A",
"X. c #D67A45",
"o. c #D77E55",
"O. c #D86F40",
"+. c #E47D44",
"@. c #AF8538",
"#. c #D9881A",
"$. c #EC861E",
"%. c #F3871D",
"&. c #EA951C",
"*. c #F4A91F",
"=. c #DC9326",
"-. c #DB8838",
";. c #DB973D",
":. c #D38E33",
">. c #EC8B25",
",. c #EB852B",
"<. c #E58B2B",
"1. c #EC8B2C",
"2. c #E68525",
"3. c #F3842B",
"4. c #F38B2C",
"5. c #F78827",
"6. c #EB922B",
"7. c #ED9B2D",
"8. c #E59728",
"9. c #F3932D",
"0. c #F39C2B",
"q. c #F79728",
"w. c #EB8C33",
"e. c #E68837",
"r. c #F48432",
"t. c #F58935",
"y. c #EB9433",
"u. c #EC9C32",
"i. c #E59B3C",
"p. c #E89739",
"a. c #F39433",
"s. c #F49B33",
"d. c #F79938",
"f. c #DDA637",
"g. c #DCA429",
"h. c #EBA32D",
"j. c #E8A72A",
"k. c #F2AD2B",
"l. c #F7A42B",
"z. c #F4B32C",
"x. c #F8B429",
"c. c #ECA233",
"v. c #ECAB33",
"b. c #EDAC3C",
"n. c #E7A937",
"m. c #F3A433",
"M. c #F1AA32",
"N. c #F2A43B",
"B. c #FCA23B",
"V. c #FBAD3B",
"C. c #F7AB38",
"Z. c #ECB335",
"A. c #ECBA3A",
"S. c #EAB537",
"D. c #F3B533",
"F. c #F3B43C",
"G. c #F3BC3D",
"H. c #F9B837",
"J. c #EBB028",
"K. c #F8C63B",
"L. c #F9D33D",
"P. c #EDCD3E",
"I. c #BB8848",
"U. c #BA9858",
"Y. c #AD8550",
"T. c #AF8463",
"R. c #BEA354",
"E. c #CA8549",
"W. c #D88748",
"Q. c #CC944A",
"!. c #D69749",
"~. c #C78A56",
"^. c #D58755",
"/. c #CA9A54",
"(. c #D79755",
"). c #E48946",
"_. c #EB9E43",
"`. c #E59847",
"'. c #F29B49",
"]. c #E69C54",
"[. c #F18649",
"{. c #DAA54B",
"}. c #CBA657",
"|. c #D6A959",
" X c #D9B457",
".X c #DDB543",
"XX c #E7A749",
"oX c #F2AC43",
"OX c #FBA743",
"+X c #EBB542",
"@X c #EBBA44",
"#X c #E6B647",
"$X c #FDBB46",
"%X c #FEB24A",
"&X c #FEBC4B",
"*X c #F7B745",
"=X c #E6B755",
"-X c #FEBD51",
";X c #F1B756",
":X c #EAA958",
">X c #C69365",
",X c #DA9463",
"<X c #D7A764",
"1X c #D9B567",
"2X c #D2AB6B",
"3X c #E5B967",
"4X c #E2AC6C",
"5X c #E09462",
"6X c #EBCE4A",
"7X c #F6C544",
"8X c #FCC345",
"9X c #F5CB45",
"0X c #FDCC44",
"qX c #FDC44B",
"wX c #F5CC4A",
"eX c #FDCC4C",
"rX c #F5C349",
"tX c #EDD34C",
"yX c #F6D245",
"uX c #FBD245",
"iX c #F4D34C",
"pX c #FCD34C",
"aX c #F3D94B",
"sX c #FEDA4D",
"dX c #FFC652",
"fX c #FDCD53",
"gX c #F8CD54",
"hX c #EEDB54",
"jX c #EED655",
"kX c #F4D453",
"lX c #FCD452",
"zX c #F4DA53",
"xX c #FCDA54",
"cX c #F6D35A",
"vX c #FAD55A",
"bX c #F4DC5A",
"nX c #FCDB5B",
"mX c #E9C152",
"MX c #FCE35E",
"NX c #F4E25A",
"BX c #FDDC62",
"VX c #F8DA66",
"CX c #F4E362",
"ZX c #FDE364",
"AX c #FEE56C",
"SX c #FDEC6D",
"DX c #FAEB69",
"FX c #FDF06E",
"GX c #FEE672",
"HX c #F6ED74",
"JX c #FDEC73",
"KX c #FEEB79",
"LX c #FAE879",
"PX c #FBF074",
/* pixels */
"O   . .   X X @ O O       O = = = = O X     .   . + + O O O O   X     @     ; = = = O O     .                                   ",
"O   . .       O             O O = O         X .   +   O O   +     o * % .     O O O O         .                                 ",
"O     .           .             .   .   .             O X         + $ z % $                 +                                   ",
"X     .           . .       . . .   . .           X X           ; + % ' v % $ .     X X   O                                     ",
"X X       . . . . .           .     O   +   + O           X     ; $ 3 } } p + $ .   .       O                                   ",
"X X       . + .         X         O O O O + +   X   X         . . % C  . .d > + . . . . X   O O                                 ",
"X X       +       O O X O   .         . . . . # : @ X X       % , B T R O.m $ +   : . . + X X                                   ",
"          O O     O O X     . $ $ . $ % % $ 8 z 8 X       $ % q Z R Y Y  .s %   + 8 $   #   +                                   ",
"            O     X X   . % , 9 e d p M M Z } z % + $ $ , e K T ) E ` O.[ , . . 4 n +     O +                                   ",
"          O       X . % t Z } .. . .X. ...V 9 > > , w m | +.+.E W I +...9 $ % > ' b $   + O $                                   ",
"                X . , M X.O.Y +.X.^.C s % % % , d S O.+.` ` Y / W Y | w % % 3 C ^.C > *   O                                     ",
"O O               % k X.( ) E T J p > $ < % s { O.+.W W ~ ) ! / / R 3 + $ 3 S / E X.B % $                                       ",
"= O             . >  .+.I W _ R 6 + $ > 9 H ..( ( _ ) ) ~ E W ` S 6 . . > Z Y ~ ~ ) O.} 2 .                                     ",
"= O         O O + % o.+.^ I U p $ O $ 0 ..).( ! E ~ E ) ~ ~ _ Y w .   . g o.W W ^ ~ ` X.{ t . #                                 ",
"= O         O = O > | +.) r.W.w % % , } o.Y I ^ ! ^ ! _ Q / ! M $     $ c  .[.P W _ E ! ).E.<                                   ",
"O     X     O = + $ e o.Y T -.k * * w ^.` r.P P P L L Q U [.( d . X   . B ^.E ~ ) ) r.! / ..% O                                 ",
"      O X +   . . . % g o.T W.J , $ q ..+.r.P L L 5.L Q r.Y ( S &     . 2 Z ).) ~ _ ! T o.k $ O     X     .       #       + X O ",
"    -       * .   . * $ t ^.T ).r $ 3 J ( Q P 5.L 2.! Q Q Q _ T k & . $ % > d J +.X.W.H 0 % + O                       # X       ",
"    X     .     # X   o . 0 E.E.z $ % s ^.T ) ^ ^ ,.Q w.Q r.W r.o.B 6 $ . # . & % , $ $ X     O O O             @ O         X   ",
"        . . . f f .       % H H & . $ , ~.T r.^ 3.^ Q 2.w.,.! _ +.).{ s $   X   O =   X X     O O           X       + . . . X   ",
"  .       . r T.T.> $     * r 1 . $ $ 1 E.).r._ ! 5.<.N.OX2.5.P _ _ ( W.I.j < * O O O     X   +   O         O   + + & $ .       ",
". . .     % } ~.X.M , $ * + . . . $ 1 B E.).<.,.1.d.OX&X%X$.s.5.P _ 3.-.-.!.} g % .     X   . +           O     . * i < $ .   O ",
"$ .   O . i 5XW.t.).K e > $ $ % > w M ).-.2.<.s.$X$X&X$X=.#.B.OX#.q.2.,.4.Q e.).H r $     X +         O O   . $ % c T.y .     + ",
"% . = = $ Z W.t.3.! [.W.} V A V J W.`.Q 1.$.V.H.8XG.qX&X#.=.N.*XH.j.#.>.$.5.5.,.).{ 0 . o     X       O     % 1 } ~.>X5 . +     ",
".   O   $ Z W.t.r.3.r.e.).W.).W.p.e.w.3.$.&.l.0X7XK.*X7Xv.=.=.u.$XdX&Xc.6.5.5.3.w.W.Y.& +                 . 1 { ~.,X} < O       ",
"        $ a ].U t.5.3.w.,.,.5.5.r.r.5.5.5.>.V.8XK.7X7XqX$XN.8.<.=.N.&X-X%Xd.5.3.4.-.Q.k $   O   O o % $ . . V W.W.^.i . + +   . ",
"O X X     < I.`.1.$.,.9.q.%.%.5.r.r.r.4.<.6.m.V.qXqXqXrX&X&XB.,.w.w.OX&XdX%Xd.3.5.,.).I.% .   = - . ] 1 . . } E.'.J >     .   + ",
"- O X       i I.e.a.9.>.$.%.%.5.r.r.r.w.<.<.6.u.*X$X$X$X&X&XB.5.d.,.7.*XdX-XOX>.5.5.-.!.2 . O =   b >Xq % $ C (.-.e $   . .   X ",
"- O   X   . . i ~.:.2.>.a.p.,.1.t.t.w.w.w.w.1.y.6.N.C.F.V.N.9.,.<.y.F.8XrX$XOX9.%.q.=.Q.4 . O -   T./.M % % q >X(.>   X       O ",
"O O X     X     < C !.p.;.e.p.p.w.y.w.y.w.w.t.4.>.6.8.8.8.=.8.7.N.N.K.0X8X$XB.>.>.6.`.I.%   X   X c !.W.p % > t T.6   X     O ; ",
"    * . .   #   X . 0 H ]._.Q _.8.8.6.1.4.t.9.9.6.6.8.8.8.c.b.*XrXqX7X8XqXoXa.,.9.p.!.B $ . +   . 5 ].e...k $ . 4 4   O   O     ",
"  . . . $ +   - O @ . , M [.'.<.8.8.q.4.9.t.9.9.6.6.8.m.*XqXdXrXP.9XeXqX%Xs.,.s.7.`.~.2 % + .     < C `.`.!.D < .     O O     . ",
"    .         X   X   $ , } :.u.8.0.9.9.9.t.d.>.y.8.F.qXqXrXeX9XP.P.dX&Xp.9.q.&.c.Q.V % . O O     * 0 (.`.<.`.:.h $ X @ X   * $ ",
"                X X o . $ k :X=.6.9.6.a.t.9.s.6.c.C.$XeXrXwXwXwXyX0X*XOXa.4.q.q.=.!.0 * $ O O X     $ I.i.d.q.2.Q.G 4 X   : + $ ",
"      .     O   X X   . > M i.h.s.7.6.a.d.y.a.s.c.$XfXeXwXiXkXlXeXdX%Xp.a.t.q.a.p.(.0 % .     X + . % Q.p.a.5.d.N.!.U.7 *   +   ",
"      .     O O O     $ , I.6.l.7.c.7.a.a.9.s.y.u.qXfX7XiXlXkXgXrXdX%Xp.d.d.9.y.oX!.a $ % .   . . % w E.d.d.q.q.0.p.(.>X5 .   X ",
"O           O O O #   $ B ].8.q.7.F.m.s.s.y.d.7.h.&XfX9XsXMXxX6XgXfX+Xu.9.s.d.d.i.!.(.k 2 * % , > d E.:Xd.y.9.6.s.y.OX(.} $   O ",
"O O       .   O     * s (.XX0.l.j.$XV.u.s.d.s.u.c.$XqXeXMXZXbX6XgXgXrXv.u.7.7.u.i.XX{.{.Q.J G G Q.!.`.).y.u.B.u.9.B.d.-./.% o X ",
"O               . $ j <X!.=.l.&.H.dXF.u.s.s.d.s.h.C.8XeXnXZXZX6X6X6XyX0XG.v.c.c.oXn.f.*X#X{.XX!.oXi.i.oXOXN.7.s.B.1.w.XXQ.> .   ",
"            . $ < V <X(.XXN.j.H.eXfXv.7.B.s.0.m.8.h.G.pXxXZXZXbXzX6XL.uXL.0XeXqXqXfXlX7XeX7Xf.n.7.c.N.c.u.oXm.0.0.d.OXXXH $   O ",
"  X   O     % 1 @.{.:X`.i.n.*XpXfXG.n.h.u.s.s.m.0.h.S.eXvXMXAXSXvXlXyXL.L.0XeXdXgXfXyXL.L.uX0X7Xv.F.v.G.qXC.l.q.l.d.XX<X0 .   X ",
"  X O O   . 6 @.;.i.s.N.oXrXwXpXeXG.n.h.m.m.s.0.h.j.Z.8XpXvXBXAXZXZXxXsXsXlXvXcXcXgXyXL.L.L.yX0XeXeXeX0X8Xm.l.l.s.oX(.D .   X X ",
"X X   O o < @.#Xm.l.l.V.$XfXkXtX9XA.j.j.m.m.m.h.v.j.Z.rXlXkXBXAXGXGXZXMXZXZXVXGXVXcXiXyXyXyXeXpX0XpX0XG.v.7.7.N.;.<Xx . o @   X ",
"X     . $ ]  Xg.*.*.V.$XeXpXbXtXiXA.n.j.v.c.m.k.j.j.A.pXkXkXbXAXGXGXDXSXGXJXKXLXVXVXkXiXyXuXpXlXL.0XA.Z.j.v.oXXXI.0 . X X   . . ",
"X     $ h <Xf.J.j.k.K.lXpXpXzXtXlXeXG.Z.v.h.v.v.Z.A.9XpXgXbXZXAXLXHXHXHXHXHXLXLXLXVXcXlXlXlXfXeXuXuXD.v.j.oX#X@.1 .         . . ",
"    . % U.!.n.J.M.F.qXfXuXpXkXkXyXpXpXqX7XG.*XK.0XeXlXkXtXbXAXGXKXHXHXHXHXHXLXLXLXGXBXnXnXnXlXkXeXK.v.j.c.n.{.u $   X @ #     * ",
"O . $ 5 /.;Xj.k.Z.dXfXlXyXiXuXpXiXpXlXpXpXeXeXlXlXsXlXzXbXZXGXGXJXGXGXGXPXPXJXHXKXGXZXDXZXxXhXkXkXgXD.k.V.XX:X6 $         O     ",
"  . $ u 3Xf.H.j.n.fXBXkXaXpXlXnXkXlXkXfXfXfXlXlXxX6XkXZXSXAXGXGXJXJXGXSXHXGXJXJXJXGXJXSXDXbXhXzXVXcXD.k.V.`.4X% . . X   +     X ",
"O . $ x  XS.j.D.S.vXlXxXaXsXSXVXBXVXcXcXcXcXnXbXZXZXAXGXJXKXKXKXKXGXKXHXLXKXLXLXKXJXJXSXZXnXvXkXjXnXD.x.C.oX2X1 +       .     O ",
"O   . j |.n.D.J.Z.fXlXkXaXzXGXGXAXGXAXAXAXAXAXAXAXSXJXKXKXJXKXKXJXHXKXPXKXHXKXHXGXKXKXSXBXvXvXkXbXwXK.z.j.;X2X4 .   . . .   X O ",
"O   . r 3Xn.x.*.D.eXlXbXzXzXDXSXSXSXSXFXSXSXFXFXFXSXSXJXJXHXJXSXSXDXPXHXPXPXPXPXHXHXFXDXNXkXaXsXnXsXK.x.J.;X1X7     .         O ",
"= O . 1 :XoXz.x.z.7XcXvXbXaXMXDXSXFXPXFXHXSXSXDXFXFXFXFXFXFXJXPXPXPXPXPXHXHXHXFXFXFXDXNXNXaXaXNXvXnXx.x.J.@X}.h .     . .   X O ",
"O @ . $ G ;XD.k.z.H.eXnXxXzXzXNXKXPXKXKXPXKXJXJXKXJXSXJXJXJXPXPXKXKXJXGXKXKXJXJXPXSXCXbXzXaXxXxXvXfXx.*.x.A. Xh       +         ",
"O   . % 6 Q.-XF.z.z.8XeXlXsXaXNXDXGXHXPXPXKXKXKXKXKXKXKXKXJXGXJXKXKXKXKXKXKXKXPXGXZXbXbXzXzXxXxXvXG.H.*.D.@X1X4         .     X ",
"      * $ x }.;XoXk.H.H.L.sXaXhXNXCXDXAXKXKXJXKXKXKXPXJXJXSXSXJXJXJXKXJXGXGXSXAXCXnXxXzXzXsXsXuXeXD.H.z.A. XF *       O         ",
"  .       $ F 1X;XC.H.x.K.sXaXaXhXzXMXDXAXSXJXLXJXJXJXPXFXPXPXPXJXPXJXJXSXDXnXbXkXkXzXsXxXpXpXuXD.A.J.@X#X<X7 .               X ",
"  .     X   & D 1X:X*XF.z.K.yXiXxXzXkXkXbXVXZXAXHXGXHXPXHXPXHXDXSXDXCXNXNXhXzXbXvXxXlXpXlXsX9XA.S.S.#X;X|.j $ .   O             ",
"+       X X X & j }.;Xn.A.G.S.eXpXiXlXxXNXnXbXkXbXbXbXbXNXCXCXCXhXhXhXNXNXbXxXxXsX9XpXnXlXA.S.S.6X.X=X}.x % . + O O             ",
"O O     X X     $ r I.mX{.+X;Xn.A.9XlXlXpX0XsXxXlXxXlXlXiXiXiXiXzXsXaXuXuXpXpXpXxXxXlXG.Z.F.F.S.f. X}.l % $ O O O O             ",
"; O X X       @   . . u /.3X X@X*XS.S.A.8XeXlXlXpXsXpXsXsXxXxXxXsXsXsXsXsXsXuX0XG.D.Z.A.+X+X+X=X XN > $ . . ; ; O O             ",
"=     X     O O X X . $ . r G |.=X@X#X@XS.P.S.S.K.K.0X0X0XeX0XpXuXL.K.K.K.A.D.Z.F.$X@Xf.#X;X;.N 7 $ & *   O                     ",
"O         X O           . % & $ y M I. X X X#XmX.X#X@X@X+XA.+XS.@X#XS.#XS.#X#X#X X X|.}.F y & % #       O   - +             O   ",
". o X       O     X   O ;     o . . $ & 7 h v F U.R.}.1X1X1X3X1X1X1X1X1X1XU.Y.F x y < . . X         +   O X   X X               ",
"  .     O O O         = = O             . + . . . * < < 4 6 6 5 5 4 1 > & % $ * * . .       O = O = O X   X X X             O   "
};
