/* XPM */
static char *_804_e5a58ec7ac36953c66dbd8ebab1e35b0a912e10892d43342f8fd5793ed865e41[] = {
/* columns rows colors chars-per-pixel */
"64 64 256 2 ",
"   c #020101",
".  c #0B0101",
"X  c #020903",
"o  c #0B0A02",
"O  c #01020B",
"+  c #0B020A",
"@  c #020B0B",
"#  c #0C0A0D",
"$  c #130100",
"%  c #1B0100",
"&  c #130901",
"*  c #1C0B01",
"=  c #13060B",
"-  c #061408",
";  c #000312",
":  c #010A11",
">  c #070614",
",  c #170E07",
"<  c #230200",
"1  c #2B0200",
"2  c #2C0C00",
"3  c #250B00",
"4  c #330301",
"5  c #380B00",
"6  c #2C1301",
"7  c #261501",
"8  c #341500",
"9  c #391801",
"0  c #281813",
"q  c #3B2303",
"w  c #342418",
"e  c #322C21",
"r  c #460E00",
"t  c #461700",
"y  c #521600",
"u  c #4D100A",
"i  c #492703",
"p  c #562804",
"a  c #593708",
"s  c #472918",
"d  c #5A2E13",
"f  c #4F340D",
"g  c #672602",
"h  c #673B06",
"j  c #683914",
"k  c #77340F",
"l  c #523722",
"z  c #6D3A27",
"x  c #594108",
"c  c #744B16",
"v  c #764827",
"b  c #765527",
"n  c #794D35",
"m  c #795735",
"M  c #6A4B2D",
"N  c #843A16",
"B  c #854A0B",
"V  c #874819",
"C  c #905018",
"Z  c #874A29",
"A  c #885929",
"S  c #985A27",
"D  c #915130",
"F  c #AE5B2C",
"G  c #896836",
"H  c #956938",
"J  c #967538",
"K  c #8A6828",
"L  c #B5632A",
"P  c #A46C35",
"I  c #A9763A",
"U  c #B26A31",
"Y  c #9D5719",
"T  c #F4731C",
"R  c #EA711B",
"E  c #DC7728",
"W  c #C77939",
"Q  c #D77A39",
"!  c #D16833",
"~  c #EA6627",
"^  c #F5692C",
"/  c #E87728",
"(  c #F47B28",
")  c #E96B36",
"_  c #E37C3B",
"`  c #E97835",
"'  c #F47935",
"]  c #F36D38",
"[  c #DF6F1D",
"{  c #8A5841",
"}  c #98674A",
"|  c #916D43",
" . c #B87947",
".. c #B97A54",
"X. c #AE6F4C",
"o. c #94786C",
"O. c #C87A47",
"+. c #D87647",
"@. c #D0734E",
"#. c #E47946",
"$. c #F27349",
"%. c #C97E61",
"&. c #B28638",
"*. c #DC8B1D",
"=. c #EE8C1C",
"-. c #F18D1D",
";. c #ED931D",
":. c #F1901B",
">. c #EAA51D",
",. c #DC8722",
"<. c #DA8738",
"1. c #DC953A",
"2. c #CE8935",
"3. c #EB8C2B",
"4. c #E98827",
"5. c #F28D2D",
"6. c #F48828",
"7. c #EC9223",
"8. c #EC942D",
"9. c #EB9B2B",
"0. c #E59628",
"q. c #F4932C",
"w. c #F49D2C",
"e. c #FA9C2D",
"r. c #F39825",
"t. c #E68A36",
"y. c #F38E33",
"u. c #F58439",
"i. c #EB9233",
"p. c #ED9A33",
"a. c #EC9D3A",
"s. c #E69738",
"d. c #F39431",
"f. c #F39C34",
"g. c #F39439",
"h. c #F89837",
"j. c #DDA833",
"k. c #DEB537",
"l. c #EDA42C",
"z. c #EDAA2B",
"x. c #E8A328",
"c. c #F1A32C",
"v. c #F3AA2C",
"b. c #F6A627",
"n. c #ECB129",
"m. c #FAB62C",
"M. c #E5A433",
"N. c #EDA434",
"B. c #EBAC33",
"V. c #EDA53B",
"C. c #E8AB38",
"Z. c #F3A434",
"A. c #F2AC34",
"S. c #F4A43B",
"D. c #FBAA38",
"F. c #EAB334",
"G. c #ECB43C",
"H. c #E9B639",
"J. c #F3B433",
"K. c #F3B43A",
"L. c #F3BC3C",
"P. c #FDBB3C",
"I. c #F9B538",
"U. c #EEC539",
"Y. c #F5C23D",
"T. c #FBC53E",
"R. c #FACB3B",
"E. c #FFD33E",
"W. c #B88648",
"Q. c #BE9249",
"!. c #B48C51",
"~. c #AD8468",
"^. c #9A826A",
"/. c #C98649",
"(. c #D88946",
"). c #C59647",
"_. c #D49143",
"`. c #D4944D",
"'. c #DB9546",
"]. c #C78A55",
"[. c #D58A53",
"{. c #CA985A",
"}. c #D89758",
"|. c #E68844",
" X c #E69747",
".X c #F0944B",
"XX c #D5A448",
"oX c #CBA65D",
"OX c #D6A656",
"+X c #DBB65B",
"@X c #DEB745",
"#X c #EDAB43",
"$X c #E6A746",
"%X c #F7A744",
"&X c #EBB642",
"*X c #EDB944",
"=X c #E8B448",
"-X c #FDB344",
";X c #FDBC44",
":X c #FDBC4C",
">X c #F7B648",
",X c #E3A955",
"<X c #E7B759",
"1X c #FEBB52",
"2X c #FAB556",
"3X c #F3AF55",
"4X c #CA9568",
"5X c #D69C67",
"6X c #D8B562",
"7X c #D6AA62",
"8X c #E4B862",
"9X c #F9B560",
"0X c #ECC746",
"qX c #F5C443",
"wX c #FCC444",
"eX c #F5CC46",
"rX c #FDCA44",
"tX c #FDC44B",
"yX c #F5CC4D",
"uX c #FDCC4C",
"iX c #F3C649",
"pX c #EDD44A",
"aX c #F3D444",
"sX c #FDD344",
"dX c #F4D34D",
"fX c #FCD34D",
"gX c #FAD948",
"hX c #FEC352",
"jX c #F5CD52",
"kX c #FDCC52",
"lX c #EDD455",
"zX c #F5D353",
"xX c #FCD354",
"cX c #FCDA53",
"vX c #F4D55B",
"bX c #FCD459",
"nX c #F5DA5D",
"mX c #FCDC5B",
"MX c #F3DB54",
"NX c #FAE35D",
"BX c #F5DC64",
"VX c #FBDC63",
"CX c #FFDF6A",
"ZX c #ECD461",
"AX c #FDE464",
"SX c #FDE56C",
"DX c #FEEA6C",
"FX c #F7E768",
"GX c #FEE574",
"HX c #F6EB74",
"JX c #FDEB73",
"KX c #F7EC7A",
"LX c #FDEC7A",
"PX c #FFE77B",
"IX c #FCF079",
"UX c #EDE167",
/* pixels */
"O O O O ; O O . . .     . O + + O = < u 0 + O     o $ . X @ ; O         O + +       . .     .                                   ",
".       X         . .       + + = s z { < .   O     . . X   O O         . O   O       .                                         ",
".     X X       + +     X @     4 ..@.C % .   @ ; @ . o     . . .       X O   O           O O O                                 ",
".     X X           O @       % 4 F ~ ! D %   X ; :       . . + . . .     X               O O O                                 ",
"                O O @   . % 5 g F ^ ~ ^ ! u * O ; ;         % 3 . . .     @                 O                                   ",
"O         . . . O     . 3 Z U #.! ~ ~ ^ ) k % + . O #     o 0 z 2 $ .   X @       . .   X                                       ",
"; ; O O   + O O + # . % u @.$.) ] ] ~ $.X.g < n *   o   O . < } n 1 . .   X   X   . . . .                                       ",
"; O O O     . . .   + = r X.! @.@.@.! ! z 1 r ..s . . . > $ < X.%.y $ o   X   X   . . .                                         ",
"            . O + . . $ $ % i n n v g 4 1 y @...9 . . =   . N +.@.N 1 +   X X   X   + O O O                                     ",
".   X   X       . + #   . o . . $ < % 5 V .. .j $ . . . * p @.! @.d % $     - X . & . O O O O                                   ",
".   X X X               X     * $ 4 C O.Q @.v $ o   . 1 Z +./ Q } < + .     $ 6 G l % . O O O @                                 ",
".       X         O @ X o . $ 1 N @.#.! [.N $ .   . i P Q ] [ E 9   > O   + i ....z $ . X O                                     ",
"                  X   X $ < N @.$.' ` ! D 4 $ $ % 5 W E / E ! F $ :     . % V +.+.F 5 $ $   @ X                                 ",
"O               O :   . 8 F #.$.^ ^ u.W 4 = = $ % } E R ( E |.Y < . . % < r L ` #.#.Z < .                                       ",
"O O       . . . O + O < D O.' ~ R / E Y % + >   + G <./ ^ ' ~ _ L g y y g ! ` / / +...6 . #                                     ",
"O             O ;   $ 8 ].<./ T / E <.k $   O     8  .#.$.] ' ` ` Q Q (._ ` ) ` Q O.{ o     . .                                 ",
"$ .   O     X       X 8 [.E ( T T ( _ S $ X         6 D +.#._ ` ` ( ) _ ` E _ O.Z w     .     .         O                       ",
".   @     X X     X . 1 D |.` ( T ( ` /.p . &   X   X < y D O.(.` u.' [ t.! g 1 $         .     .   O               O           ",
":       . +     O w $ $ 2 X.+.( T ( ( _ U y % % . @     < % 4 k W E t.Q W r % $ .   X . .   O O O                   O           ",
"O   + . . . . . 6 o.$ . $ < V Q t.E / u.$.O.g < $ .     . . . % 1 c O.}.P % &   O   . .     O O       O O                       ",
"X   . . . . $ s o.z $ . + o . i J '.' / ` <.(.F r < $ . . . : O . $ t X.].4 + : : O       X   .                                 ",
"  o $ $ $ 2 v ~.m % $ # O   X   % V |./ d.,.t./.[.S t $ $ . ; > O . $ p 4Xv O   : O   X :   .     O                             ",
"X -   . d W.}.P % . . O # >   X % < L / y.D.a.g.t.(.`.S 5 $ + ; O + $ % X.l $ .         X X   o     . . .     O               O ",
"X   . M /.(.Q B % . . O + .     . < N <./ 4.d.2X2X1X.X'.O.c $   O . . * o.3 $ $ . . X               . . .           .     O     ",
"@ . d [.|.( u.U 2 $ . . o     . % r L Q u.6.4.4.1X-X-X:X_./.m . . o . 0 e O $ $ . . . . . X O   X $ % % $ . @ O     .       O   ",
"O % ..#.( 6.y.<.I p % $ % $ $ < p S .Xu./ 6.` 3.N.wXm.;X%X(.G $ . . .       . . . . . % s $ O   & ^.n 9 < .   @   . .           ",
"O s [.u.%X6.4.t.2._.&.Y c C P W./.|.t.t.3.i.4.5.;XP.wXP.i.,XG . .   X   O ; O   . . $ 8 ..d .   % | 5X!.j . # O     . .   O O   ",
"$ 2 }.t.5.D.-X%X%X%X#X#X3X2X9X3X2X%Xt.4.8.,.d.-X;XP.J.N.|.O.5 +   O +   O :     . $ t  .}.v . o $ H [.[.4Xq   O     .           ",
". $ A 1.i.e.D.%X1X:XtXkXuX;X;XhX2X2X2X8.*.*.-X-XZ.9.1.1./.t % . + . . . >     $ i A <.(._.j . . < O.<.<.5XM   O       .   O     ",
". < % c 1.t.4.q.i.-XwXL.U.R.rXI.tXhX-X0.7.7.-X4.0.s.2.{.5 < $ + . = . $ % 6 M !./.'. X<./.3 . . p (.g.y.`.p   O     .           ",
"= .   X q W.].|.t.h.wXuXR.T.qXqXiXqXD.q.4.=.y.6.t.(.I 8 $ . O O # . * j I  X X<.8.4.t.`.9 $ . % ].t.( 4./.1   O     . .       . ",
"      X   * b [.|.%X-XwXT.qXwXuXiX;Xw.=.7.q.6.|.(.].7 .           $ H `.t.7.6.7.6.3. Xh $ . . v +.g.6.y.F < . O       .         ",
"X         . 6 p `.1.s.-XK.:XD.>XS.p.6.=.-.7.3. X}.t $   > O O O   w {.s.4.q.3.d.y.<.I %     <  .t.=.q.<.S < $                   ",
"X         . . < a `.1.,.p.9.9.4.i.d.q.r.-.7.s.1.H < $ . O   O O o s `.q.q.3.4.g.6. Xh . :   $ X.s.3.t. XI < $ +                 ",
"          . X . < A  Xs.7.7.0.s.V.a.9.7.=.;.8.'.P < % . . o     . a <.d.d.5.t.g.5.t.y .   X o i 4X`.'. X`.h * X   O O           ",
". .         .   $ 8 /.a.q.-.0.>X1XN.;.;.r.7.8. X`.t % $ . . . 7 < C .Xq.5.y.g.3.h.3.c % X @   . 1 G 5X}.OX{.b , O : ; O         ",
". .       X   @ . < U t.e.6.9.2XhXM.*.9.e.q.5.g..X/.C t < % < < C <.h.6.4.8.%Xd.i.t.2.8 &   -   . . 2 i h v l e   O     O   O ; ",
"O . .     O O O   $  ..Xq.e.M.hX1X>Xz.0.7.q.5.5.i. X'.`.{. .!.}.1.a.f.3.q.S.1X-X0.M.2.I < .       . $ . % $ . o         . . O O ",
"+ O   . X O O O $ < /.%X4.f.9.:XkXuX;XB.9.w.f.q.8.p.a.s. X X X.Xg.8.8.w.p.-XhXhXK.M.s.`. .9 $ $ +     o o         . O .   . . . ",
"O   .     O O . % c (.g.a.8.p.Z.tXiXtXtX:X-XZ.Z.c.0.c.M.3.%X Xi.q.8.f.p.0.&XuXeXdX*X$X X X].j % . # O   @     o   .   .       . ",
"O   #       . $ i _.%Xp.f.d.f.0.H.uXkXuXhXhXyXkXeXR.Y.J.A.Z.f.p.p.p.p.p.x.B.rXfXqXuXhX>X%X,X`. .q & .   O     . +     O     X . ",
"O     o = . % a _.$Xp.7.f.8.8.S.x.J.tXkXzXjXjXeXpXE.aXsXrXtX-X-Xa.p.p.p.9.z.J.R.fXuXuXhX:X>X$XXXoXG 9 . .   . .   o   X X   o   ",
"    @   . 8 H ,X$XV.D.b.b.e.f.f.9.c.P.uXkXzXzXMXpXpXaXaXeXrXtXtX#Xa.p.f.r.;.b.J.uXwXuXkXrXrXyX0X=XXXQ.A 5 % * . +   -   X X   X ",
"  o   . 8 W.OXC.C.;XwXx.;.b.f.a.Z.c.D.tXtXyXmXAXNXNXMXaXdXsXuXkX1XV.a.S.e.r.b.b.I.;XuXuXeXaXgXU.0XG.$X,X[.c 1 $ .     - X X     ",
"  . . 3 Q._.*XM.kXbXK.x.b.r.N.S.e.r.D.tXtXjXmXAXSXSXAXAXNXmXuXuX1XV.9.w.w.w.e.w.c.I.wXfXeXaXE.U.fXtX;XM.j.,X&.i % .   @     -   ",
"  . $ J '.M.I.xXtXkXF.x.D.l.9.S.9.c.I.kXfXuXzXbXAXSXDXJXSXmXzXyX:XN.9.l.w.c.f.f.c.9.L.xXzXpXaXsXT.uXrXH.M.j.'.,XA 2 .     :     ",
"O . a $Xx.v.rXqXkXxXuXM.x.M.l.B.B.L.iXeXzXpXlXnXGXGXGXGXSXVXvXxXJ.l.x.x.M.M.S.N.f.9.z.eXzXjXyXuXsXR.fXjXk.j.C.s.XXP 8 $ +   . . ",
"  % /.#Xx.m.rXxXvX0XbXhX*XtXI.*XtXzXzXpXpXlXlXDXGXGXGXGXCXVXlXyXl.l.b.z.M.M.V.N.Z.l.C.*XjXbXkXuXrXrXxXzX0Xj.x.l.Z.2XI 8 . + . . ",
". f OXG.b.P.uXvXZXAXNXcXfXxXfXdXzXzXzXlXZXCXSXGXGXGXGXLXSXvXlXbXF.l.l.c.A.N.N.l.Z.l.F.*XkXzXzXzXbXuXeXfXuX&XB.c.b.z.$XH % . .   ",
". m ,XB.b.uXkXvXZXAXNXNXmXVXmXMXmXAXVXCXSXSXGXLXJXSXGXJXSXvXjXjXG.B.z.z.l.A.c.z.x.B.Y.kXzXzXjXzXSXxXsXfXuX>XC.c.b.z.$X5Xt .   X ",
"% | ,XB.J.xXjXZXUXFXDXDXSXGXDXFXAXAXDXDXJXJXDXJXDXDXDXDXAXcXdXdXY.I.n.z.z.z.z.z.F.L.uXfXfXzXMXSXGXVXaXsXfXqXG.N.z.M.=X7XG . X   ",
"< A ,XC.A.fXiXnXUXUXHXJXGXGXLXJXDXDXDXDXDXJXJXSXJXDXAXDXAXNXxXxXxXuXwXL.L.L.L.;XuXuXyXzXzXnXDXJXLXAXaXE.fXwX#XV.x.I.V.OX} $ .   ",
"% d ,X#Xz.R.fXdXlXUXGXPXPXPXLXKXJXHXHXHXHXHXHXHXIXJXJXJXDXDXAXmXmXbXjXbXzXzXbXvXnXvXnXBXDXJXHXFXFXnXpXgXgXhX#XZ.b.m.B.OXA $ . O ",
". < W.=Xb.U.E.cXlXBXGXPXLXPXHXHXIXKXHXHXKXKXKXKXKXKXHXJXJXJXJXSXVXVXVXVXVXVXBXAXAXFXJXJXJXJXJXFXBXMXdXzXjX>X%XD.m.>.K.<Xf . O ; ",
"> + a ).H.n.U.gXzXbXVXCXDXDXHXHXJXJXJXJXJXKXKXLXKXHXJXLXJXJXJXLXLXLXPXGXJXDXDXJXDXDXDXDXDXSXSXAXMXMXdXfX1X#XD.b.b.b.C.Q.% o O ; ",
"; O . K @XB.n.Y.xXcXfXxXmXFXFXDXJXJXJXJXJXJXLXJXJXLXLXLXLXLXLXLXLXGXGXLXJXJXDXJXDXDXDXDXDXDXVXjXaXgXgXuX*XV.Z.D.m.v.,Xh $ + ; ; ",
"@ - . % b OX<X$X*XfXgXgXgXgXNXNXJXJXJXJXSXJXHXIXIXIXKXKXKXKXKXKXLXLXHXJXHXJXHXDXDXDXDXAXNXcXxXxXfXfXT.J.B.B.K.C.#X,Xc % . O   @ ",
"- X   . $ a {.6X=X&XU.gXE.E.aXNXzXbXAXAXDXJXDXDXJXJXJXKXKXIXIXLXKXJXHXIXHXJXDXFXDXAXNXpXxXcXcXxXwXP.J.n.F.#X=X6XoXc % . .     X ",
"  -   . $ $ 6 K 6X8X@Xk.Y.gXgXcXmXmXzXzXxXcXmXNXNXAXFXAXGXFXDXFXSXDXAXAXNXNXMXMXaXdXMXcXcXfXR.L.D.;XI.M.*X8XoX&.8 . . o     -   ",
"X X   #   . . $ 7 m 6X+X@XH.*XG.iXjXxXbXmXcXcXfXfXcXcXcXcXmXmXmXzXdXdXdXgXgXNXgXcXfXeXU.H.F.H.L.%X#X*X2X+XJ f & .           . X ",
"      O   X o   o . 7 x &.+X+X<X=X*X=X#XH.H.Y.eXT.T.rXT.rXrXrXrXuXfXrXT.R.U.L.H.F.F.F.H.*X*XG.&X<X8XQ.c 9 $ . . # X   X o   . + ",
". . > O             . . & 7 a K Q.XX8XZXjX<X=X@X*X*X*XG.G.G.G.G.F.H.H.G.*X*X&X=X<X<X<X<X<XOX&.P x 6 $ % . .   O     X       O . ",
". O O O       X           . . . . * q x b J !.oX6X+X+X6X+X8X+X+X6X6X6X6X6X7XoX!.&.m c i q , . X   X X X O .     #               ",
". . O ; O         ; O           .   . . . X . $ % 3 8 q i i p a i i q 9 3 < % & $ X o o       X X   O O ; + O     X   O         "
};
