/* XPM */
static char *_7361_1dd192d6b448f413aa88750b94c927ff66e03ae15f1ff11bb8ba5d602b0a639a[] = {
/* columns rows colors chars-per-pixel */
"64 64 256 2 ",
"   c #010101",
".  c #0B0101",
"X  c #030A02",
"o  c #0C0A02",
"O  c #01020B",
"+  c #0A040B",
"@  c #02090B",
"#  c #0A0A0C",
"$  c #130100",
"%  c #1B0100",
"&  c #1C0A00",
"*  c #130A01",
"=  c #000312",
"-  c #080013",
";  c #070A16",
":  c #230300",
">  c #230B00",
",  c #2B0B00",
"<  c #2C0200",
"1  c #350B00",
"2  c #3A0A00",
"3  c #2C1300",
"4  c #281706",
"5  c #341400",
"6  c #3C1400",
"7  c #381B00",
"8  c #392300",
"9  c #36281F",
"0  c #3A2C23",
"q  c #480900",
"w  c #451902",
"e  c #561A00",
"r  c #411E18",
"t  c #442401",
"y  c #4B2704",
"u  c #552703",
"i  c #5A3903",
"p  c #552F15",
"a  c #76380B",
"s  c #663817",
"d  c #7B3C16",
"f  c #633007",
"g  c #753C21",
"h  c #664314",
"j  c #774416",
"k  c #724E11",
"l  c #784625",
"z  c #79542F",
"x  c #7F612F",
"c  c #943A08",
"v  c #864719",
"b  c #945A1F",
"n  c #8D571A",
"m  c #A4651A",
"M  c #844B25",
"N  c #885428",
"B  c #97552D",
"V  c #A65B35",
"C  c #95663A",
"Z  c #9D7637",
"A  c #8D6A2D",
"S  c #A66537",
"D  c #A37C39",
"F  c #B87836",
"G  c #AF682E",
"H  c #DE791F",
"J  c #E8791D",
"K  c #F27E18",
"L  c #F66E1F",
"P  c #DB6D2A",
"I  c #D86D35",
"U  c #C9763A",
"Y  c #DA7838",
"T  c #DA7827",
"R  c #EA6D27",
"E  c #F46D28",
"W  c #EC7224",
"Q  c #EB7A2C",
"!  c #E77827",
"~  c #F27B2C",
"^  c #F5752A",
"/  c #E66C36",
"(  c #E87937",
")  c #F17A34",
"_  c #F77834",
"`  c #F56E37",
"'  c #9C7648",
"]  c #8C6148",
"[  c #AB6943",
"{  c #BA7847",
"}  c #AD764E",
"|  c #967860",
" . c #DC7B43",
".. c #D87A47",
"X. c #CC774B",
"o. c #E47A45",
"O. c #E07A54",
"+. c #A4833D",
"@. c #EA841B",
"#. c #F5861B",
"$. c #DC8929",
"%. c #DE9626",
"&. c #D9863A",
"*. c #DC9A3A",
"=. c #C98F3D",
"-. c #ED8B24",
";. c #EB842C",
":. c #E58B2C",
">. c #ED8B2C",
",. c #E68526",
"<. c #F38525",
"1. c #F2842B",
"2. c #F38C2B",
"3. c #F48A28",
"4. c #E49524",
"5. c #EC9525",
"6. c #EC942C",
"7. c #EC9C2B",
"8. c #E69A2A",
"9. c #F3932D",
"0. c #F29C2C",
"q. c #F89A28",
"w. c #EC8433",
"e. c #E38C32",
"r. c #EC8B33",
"t. c #E5883B",
"y. c #F28C33",
"u. c #F58737",
"i. c #ED9432",
"p. c #EB9C34",
"a. c #E79738",
"s. c #F39333",
"d. c #F29B34",
"f. c #FC9C34",
"g. c #F7993B",
"h. c #DFA02C",
"j. c #ECA42C",
"k. c #EDAD2C",
"l. c #E6A82A",
"z. c #F3AB2C",
"x. c #F6A82A",
"c. c #ECB32D",
"v. c #E7B12B",
"b. c #F6B22C",
"n. c #EDA434",
"m. c #ECAB34",
"M. c #EBAC3B",
"N. c #E7A638",
"B. c #F3A333",
"V. c #FCA332",
"C. c #F3AB33",
"Z. c #F3A33B",
"A. c #F5AC3B",
"S. c #FDAD3B",
"D. c #FBA738",
"F. c #EEB233",
"G. c #EEB43B",
"H. c #ECBA3A",
"J. c #E7B636",
"K. c #F2B433",
"L. c #F4B43B",
"P. c #FBB43C",
"I. c #F3BA3D",
"U. c #FBBB3D",
"Y. c #F7B935",
"T. c #F3C43B",
"R. c #FCC33D",
"E. c #F8C639",
"W. c #ECC53C",
"Q. c #B9854A",
"!. c #B68754",
"~. c #B48F4E",
"^. c #C98B48",
"/. c #D3824B",
"(. c #D78948",
"). c #C89649",
"_. c #DC9745",
"`. c #C68755",
"'. c #D68F51",
"]. c #C79756",
"[. c #D89454",
"{. c #E28945",
"}. c #EC9E42",
"|. c #E49848",
" X c #F59944",
".X c #E79754",
"XX c #ED854E",
"oX c #DAA248",
"OX c #CAA45A",
"+X c #DBA858",
"@X c #DDB45A",
"#X c #EBA444",
"$X c #E4AD43",
"%X c #EAAA48",
"&X c #FDAC44",
"*X c #F9A94A",
"=X c #ECB443",
"-X c #EAB64A",
";X c #F5B542",
":X c #FDB545",
">X c #F5B944",
",X c #FCBC44",
"<X c #FEB54A",
"1X c #FEBD4C",
"2X c #F3B84B",
"3X c #E5A657",
"4X c #E2B355",
"5X c #E8B558",
"6X c #FABB53",
"7X c #D89964",
"8X c #CB9567",
"9X c #E59761",
"0X c #D7A766",
"qX c #DBB467",
"wX c #E7BB64",
"eX c #F3BD62",
"rX c #EAAA62",
"tX c #F4C544",
"yX c #FDC444",
"uX c #F4CA46",
"iX c #FCCA45",
"pX c #FDC34B",
"aX c #F5CC4B",
"sX c #FDCB4B",
"dX c #F4C64C",
"fX c #F4D445",
"gX c #FBD345",
"hX c #F4D34D",
"jX c #FCD34C",
"kX c #FCD94A",
"lX c #F6DA4E",
"zX c #FCCC52",
"xX c #FAC952",
"cX c #EED657",
"vX c #F4D452",
"bX c #FCD452",
"nX c #F4DA54",
"mX c #FBDA54",
"MX c #F4DA5B",
"NX c #FBDC5C",
"BX c #F9D559",
"VX c #EFCE4A",
"CX c #FDE25D",
"ZX c #FBDE62",
"AX c #F4DB61",
"SX c #EFD961",
"DX c #FDE364",
"FX c #FEE56B",
"GX c #FEEA6D",
"HX c #FBE465",
"JX c #FFE572",
"KX c #FDEA73",
"LX c #FFE67A",
"PX c #FCEB7B",
"IX c #FFF178",
"UX c #F9EB80",
/* pixels */
". .       O O O             O                   O O O O O O O   . . .   O -     O O   X = O                                     ",
". .       O     O                               O O O O           . . 0 . O @ O O -       O @                                   ",
".                                                     . .   . X X . % ] r $ .     # .     +   .                                 ",
"                                O               .           . . . . u } z % .     X $ $ . X . .                                 ",
"    O             .   . .       O O       X X               O . . 6 V U M % + +   . l q % . . .                                 ",
"O           .               .                   X         .   $ w B I  .s $ $ O . & [ { w & . X                                 ",
"O O         .                                   O     . . . 3 y [ ..I U t .   O + q O.O.[ , .                                   ",
"                                  .         O O   . $ $ < u B `.o./ I G . X   . % V / / ..h .                                   ",
"          .       @ O O O @   O   . +     . . . $ % q d F ..Y R ` R O.w . X   $ s X.o.` o.M   X                                 ",
"      .           O = O O       O . . . & % : 6 M [ X...I R W E E ` B &     . 7 X.I ` E I v   O                                 ",
"          .     O = O O O   . . . . $ : w M X.o.o.` ^ ^ E Q Q ~ ^ o.p . . . & N  .R E ^ ( e . O                                 ",
"                O O O O   . . . > 2 l { ..Y E W E E L E ^ R W W ! G %   . + : X.P _ L E / q $ O                                 ",
"                  O O   . . % 2 B I {.Y Y T H ! 3.u.u.^ W ^ ^ R ( n $ @ . . : } ( W ) P ! c : .                                 ",
"O       .       O O   . $ % u S o.( E ! @.@.d.<X&Xy.! J W _ _ ^ o.v $ . . . % C  .Q Q Q ) Y v % .                               ",
"                  O . . % u [ 9X( E ) ,.$.d.:XZ.&Xi.,.r.u.R R ) I b : .     . y X.XX/ ( _ Q X.f .                               ",
"O                   . $ 2 C .XU ( w.W <.f.&X:X2X:Xp.H H ( ) _ ) ( X.2 $ .     . g X.XX( ( ( w.{ % .                             ",
"O O X   O       @   . % a Y {.( o.( <.@.D.:XdX-X,XD.>.! ~ _ ~ ~ ) t.b > .   = = . w [ /.Y t.! XXp .           +       .     O   ",
"=   .   O O     . . . % v .XR w.( ( K #.:X:X-X-XI.U.V.<.;.) Q ~ ! a.&.n < $ - = O + % e S (.( U s +       o     O   . .     O O ",
"    .   O @   . 9 * . . l /.XX^ w.1.K #.:X,X-XxXI.,XP.V.9.;.,.w.u.! T &.{ e $ $ . . % % % u { 7Xp .     . .         .           ",
". . . . O O   4 | $ . . < } t.1.;.<.#.K f.<X6X2X1XU.U.U.D.:.T u.) w.,.:.( ..v : & . . . . $ 5 ' *         X   @       .     O   ",
". . .       . z 8Xu . . & p /.y.,.K K #.9.&X6X<X1XI.T.E.yXn.e.w.u.1.y.1.^ u.t.G w & . O   X   4     @ O               . O       ",
". . . . O . 5 !.(.{ , . . $ a U r.-.<.<.@.f.&X1XpXyXT.T.iX:Xg.Q ! f.*X~ 3.J y.|.).i % .   O #       O O .               O       ",
"          . u .Xu.Y C > . . % v U e.>.<.J -.p.1X>XiXT.T.R.,Xg.;.w.:.D.*XW 1.:.$.$.).M , .   @             O             O       ",
"      ; @ . d (.1.u.(.M & . * % j ^.t.;.<.>.%.:XyXE.T.T.pX:Xg.1.r.r.D.<Xg.;.,.r.6.&.(.a $     O   @ . . .     @         O       ",
"    = O O $ u {.;.3.Q (.l . X $ % B .X;.3.,.4.N.R.Y.I.pX6X*Xs.;.:.i.A.,X*Xr.e.r.-.-.T '.2 . .   O   . $ . #   @ X     O O       ",
".   O = O . 6 ^.w.Q g.|.{ 3 .   . u (.:.1.-.8.N.yXE.yXpX*Xg.2.2.$.8.P.pX&X6.e.r.<.-.y.{.f $ . O     $ % $ X #                   ",
"$   @ O O . % j (. X<.w.].s . . $ 1 /.r.2.-.8.%.R.R.pX<X*Xe.,.-.6.B.yXpXP.5.,.>.y.u.u.'.N % . O   o y ] % $   O                 ",
". . O O     . > { |.!  X[.s . . + u [.r.2.6.$.j.yX,XP.p.$.:.6.5.S.,XiXR.V.@.>.y.y.r.{.[.N % . .   * ' 8X1 $                     ",
". .   O   #   . i /.t.|.7Xt $ . % M {.>.2.2.:.:X1XP.8.%.%.p.S.:X1XsXR.Y.x.-.>.u.y.r.{.7Xs . .   X & 8X[.y % .                   ",
". . O         . : { .X[.] & . $ 6 Q.{.>.9.9.9.<XD.5.4.j.>X>X,XsX6XsXR.b.q.2.u.y.>.a..XX.5 .     X > `..XN % . O . .             ",
"= O   .       . : C [.!.5 . . % b |.a.2.3.3.f.g.>.6.C.yXsXuXyXyXpXpXG.N.i.s.s.y.2.g.(.v %   X X   $ F |.].5 .     .           @ ",
"= O   O   . X   $ } C , . $ > A _.a.s.y.9.<.f.6.d.:XpXtXW.uXsXdXsX1XJ.*.e.r.s.>.s.{.X.q $   X     % m e..X' $ . .               ",
". ; O O @ X   o o 4 $ $ % w m #Xa.i.s.y.9.d.:.i.<X1XpXdXuXuXuXuXpXyX8.%.d.s.6.>.a..Xa : $ O @   X $ m a.g._.M % $     O       X ",
"+     +     X X X o . $ s Q.#X6.i.i.d.6.s.d.6.n.1XxXsXdXdXbXzXsXyX,X8.%.p.6.0.d.}.^.u % $ .   X   > ).$.g.s.'.s . . @           ",
"    +     X   X . . , C 7X_.a.Z.d.i.s.6.9.6.7.&X1XxXzXuXaXNXNXdXuXpXm.8.5.5.5.5.g._.v < % $ . . > k 3Xe.s.g.|.Q.3 . .       X   ",
"  .   + . . o . $ i ].'.{.*X$.a.d.i.s.p.6.6.7.,XpXsXsXaXBXDXNXvXsXzX>X;XC.j.j.5.$.}.^.a < : , 5 k ]._. X2.g.$.3Xz $ . X       O ",
"      . . . . 3 A )._.}.d.s.Z.p.a.i.d.d.7.8.7.,XpXiXuXvXCXDXDXBXvXxXdXpXyXU.U.x.B.8.|._.^.).).).3X|. X Xy.2.B.|.~.3 X X     + - ",
"X     . . % 5 D +X*.p.7.D.&X7.d.d.i.d.d.0.5.j.R.sXuXuXBXDXGXDXDXcXvXdXxXsXyXiXP.8.4.N.#Xa._._.#Xn.p.g.g.f.5.B.*.0X8 .       - - ",
"  X   * . 7 ].oXa.j.4.,XpX5.0.5.d.d.d.0.0.j.x.iXsXuXVXnXNXFXFXFXAXAXBXvXuXiXiXY.l.j.p.8.N.n.B.4.5.V.f.9.f.d.8.oX].7 .     O - - ",
"X   o . , !.rXa.8.x.z.,X,Xz.j.7.d.d.d.6.7.j.C.iXiXaXhXVXBXFXKXFXFXFXZXNXaXsXjXU.%.l.7.B.7.8.x.V.q.3.f.9.9.g.}.[.~.> .   X   O O ",
"    . $ } 0Xe.D.q.x.R.sX>Xl.j.B.0.B.B.7.8.B.U.iXsXmXhXVXcXZXFXJXJXJXGXZXvXhXsXsXl.l.n.j.7.D.P.V.q.q.V.@.Z.%X).0Xt > .     O     ",
"  X . u ]..Xd.B.x.K.iXbXuXm.l.8.j.7.7.j.j.Y.yXjXuXaXvXcXAXZXJXJXFXJXGXDXvXhXaXzXzX=XC.;X,X,XS.0.q.V.x.B.#X[.0Xy & . . .       X ",
"@ X $ A 3Xg.f.n.n.>XsXjXsXtXJ.N.m.j.j.C.U.yXsXsXdXvXMXcXZXJXJXJXJXJXFXCXnXhXxXzXBXzXxXxX,XS.B.p.d.d.B.N._.~.7 * . . . O O     X ",
"=   $ ].#Xd.B.B.M.pXsXiXjXsXdXdXI.I.U.yXsXzXzXsXBXZXHXHXJXJXJXJXLXJXDXnXhXhXvXvXxXzXzX,Xj.n.n.n.&XM.N.).Z > . . .   O   O     X ",
"=   > +Xp.B.0.B.N.pXsXiXgXjXbXbXgXiXiXjXbXzXbXBXHXGXKXGXFXKXKXJXLXJXZXlXVXhXvXzXxXzXI.l.l.j.Z.Z.p.#X+Xn & . . . .   O         X ",
"O . , 0X$XZ.j.C.m.,XzXjXgXjXaXhXjXgXjXjXsXvXBXDXKXKXGXKXKXKXFXFXLXLXMXhXfXfXhXaXBXpXv.l.k.j.B.Z.p.3X+.* X             O O       ",
"$ $ : 0X$XN.B.x.z.L.sXjXjXfXgXfXfXfXhXhXvXVXAXKXKXSXKXKXKXKXKXKXLXLXZXmXfXfXlXjXzXpXK.k.z.j.7.A.A.oXt *   O     .   X X       . ",
"$ $ & ~.4XN.D.j.j.C.iXjXfXgXkXgXfXfXfXhXvXvXAXFXKXKXKXKXKXKXGXKXLXLXGXCXlXfXlXjXsXbXE.l.k.K.B.B.B.oX3 .   @     .           . + ",
"O . $ A 5XZ.n.B.C.l.uXlXVXjXmXiXgXgXkXhXhXvXSXFXKXKXKXKXKXKXKXKXJXPXKXGXHXnXlXhXbXsXiXyXz.B.C.B.A.oXt .   O @                 O ",
"O   % i oX%XA.j.m.v.J.jXlXhXmXmXmXBXhXnXcXMXSXHXKXKXKXKXKXPXKXKXPXPXKXKXGXCXcXcXlXhXsXsXU.C.C.m.m.%XZ % X         .       X   O ",
"  X . > Q.+X$XL.b.c.c.E.bXlXhXNXFXFXHXHXFXFXFXKXKXKXPXPXPXUXUXPXPXKXKXIXGXHXnXnXlXlXjXjXsXI.m.F.j.2XqXh $ .   O               O ",
"    . $ y qX*.>Xk.x.x.c.yXbXmXvXHXFXPXIXKXKXKXIXKXPXPXPXPXUXPXPXPXKXGXKXGXHXnXnXmXbXhXbXbXH.N.L.C.;X-X).8 .     O   . . .       ",
"    .   $ x wXN.b.x.x.x.K.sXNXnXcXMXGXGXGXKXPXIXPXPXKXIXKXKXGXKXKXKXPXKXFXCXMXvXmXbXbXzXbX>XM.L.P.j.G.4X+.$ o O O O . $ . .     ",
"        o $ ' @X,Xx.b.b.c.I.bXvXvXnXCXCXFXKXPXKXPXKXIXIXKXGXGXGXKXPXKXJXDXnXnXmXhXbXbXbXzXI.M.K.C.x.F.N.qX>   O O O   . +       ",
"+   O X   o $ ~.+X;XP.b.b.c.H.dXBXmXmXmXCXDXGXDXHXGXGXGXGXKXKXKXGXFXDXCXCXlXkXkXkXgXjXjXE.K.F.b.x.Y.z.-XOX> X @   O + + . X     ",
"O O     X   o % } 4X-Xk.Y.G.m.-XtXhXbXmXlXmXmXCXCXCXGXHXGXGXHXHXDXMXnXnXlXfXkXkXkXgXgXR.c.v.K.b.b.Y.m.5X~.. $   O O             ",
"O             X $ A @XdX$XL.<XM.J.J.uXmXmXjXjXmXmXnXnXMXMXMXSXMXAXMXcXnXlXlXkXkXkXgXT.c.c.T.Y.c.K.N.rXqX8 . .     O             ",
".               . . i ~.SX3XM.>X>XH.J.J.H.uXbXmXjXbXbXmXMXNXNXNXcXMXMXNXmXmXjXgXiXc.v.K.K.l.m.,XM.dX0Xx * . . .         X       ",
".               X   . 7 A +XeX#Xm.c.c.I.U.I.L.,XsXsXsXjXjXjXgXgXvXBXBXbXsXT.K.c.l.Y.U.L.K.P.:XM.-X+Xz . . .             X       ",
"      O   O           . $ 7 n oX2X>X;XC.N.M.G.M.A.K.F.v.c.Y.E.R.H.H.I.F.J.F.F.K.P.L.M.M.=X%X%X4X).y $ . ;   .         X X       ",
"        O           X   . $ > < k F 4X5X5X-X2XG.G.L.>XU.L.C.C.m.c.K.c.F.K.K.L.U.J.2X2X%X5XxX=.k > * . .   O   .                 ",
"                # O O       . . $ % 5 h Z OXqX@X4X-X=X$X$X$X-X2XH.H.=XI.;X=X$X$X5X@X@XOXA u , $ .   . o       O                 ",
"          .     O   O @ O O           o $ * 8 h A +.].qXSXwX4X@X4X4X@X@XqXqXOX].A l 8 & o o X   @ ;     . X O         .         ",
"O           .   - O O     @ = = @ O X     X . . . & & 3 7 8 u i i i u y t 5 > % $ . .       = = = = X   X   O         . . .     "
};
