/* XPM */
static char *_4273_7e84bd35cfd30352403b9c6ec1c28e05f7e359c471f39f56bd4b0b6a0dea9223[] = {
/* columns rows colors chars-per-pixel */
"64 64 153 2 ",
"   c #020101",
".  c #090501",
"X  c #060803",
"o  c #0D0902",
"O  c #070709",
"+  c #0B0909",
"@  c #110E05",
"#  c #120E09",
"$  c #141007",
"%  c #1C1404",
"&  c #1F1A07",
"*  c #15120A",
"=  c #1B150B",
"-  c #1D180C",
";  c #171312",
":  c #1A1512",
">  c #1D1A12",
",  c #1F1B18",
"<  c #221606",
"1  c #251A06",
"2  c #281B06",
"3  c #21170A",
"4  c #251B0C",
"5  c #2A1D0C",
"6  c #251C12",
"7  c #2A1E12",
"8  c #221F1A",
"9  c #27200E",
"0  c #2C210E",
"q  c #32240F",
"w  c #32280F",
"e  c #2D2312",
"r  c #2F2815",
"t  c #26221A",
"y  c #2B251B",
"u  c #2D291E",
"i  c #322513",
"p  c #352915",
"a  c #3A2C16",
"s  c #322619",
"d  c #352B19",
"f  c #3B2D1A",
"g  c #3F3117",
"h  c #37301E",
"j  c #3E311C",
"k  c #272320",
"l  c #2E2B21",
"z  c #332D22",
"x  c #382F21",
"c  c #373124",
"v  c #3D3422",
"b  c #3F3925",
"n  c #35312B",
"m  c #39352B",
"M  c #3E3A2C",
"N  c #3F3C31",
"B  c #402F1D",
"V  c #42341D",
"C  c #45391E",
"Z  c #433521",
"A  c #463923",
"S  c #493A23",
"D  c #403728",
"F  c #443C2B",
"G  c #4A3B29",
"H  c #423D34",
"J  c #483E32",
"K  c #4A412D",
"L  c #454132",
"P  c #4B4433",
"I  c #474339",
"U  c #4B453A",
"Y  c #4E493C",
"T  c #534737",
"R  c #514A36",
"E  c #52463A",
"W  c #534D3C",
"Q  c #5B4F3F",
"!  c #55503D",
"~  c #59513F",
"^  c #4C4743",
"/  c #4E4B42",
"(  c #534D42",
")  c #594F43",
"_  c #544F49",
"`  c #565244",
"'  c #5B5544",
"]  c #5F5946",
"[  c #56524A",
"{  c #59554C",
"}  c #5D5A4B",
"|  c #5B5650",
" . c #5E5B51",
".. c #625646",
"X. c #615946",
"o. c #605748",
"O. c #635C4C",
"+. c #685F4E",
"@. c #625D53",
"#. c #66604E",
"$. c #69624F",
"%. c #666154",
"&. c #6B6453",
"*. c #6F6954",
"=. c #676459",
"-. c #6C665B",
";. c #6D6A5C",
":. c #706956",
">. c #71675B",
",. c #736C5B",
"<. c #7B6F5F",
"1. c #76705D",
"2. c #79725D",
"3. c #696460",
"4. c #6E6C60",
"5. c #736E62",
"6. c #796F63",
"7. c #767162",
"8. c #7B7464",
"9. c #7F7966",
"0. c #7B756A",
"q. c #7D796B",
"w. c #7D7872",
"e. c #817666",
"r. c #817A66",
"t. c #837C6C",
"y. c #8A7E6D",
"u. c #827D73",
"i. c #86816E",
"p. c #89826E",
"a. c #868273",
"s. c #8B8474",
"d. c #8E8976",
"f. c #858179",
"g. c #8B857A",
"h. c #8E897B",
"j. c #918674",
"k. c #918A76",
"l. c #928C7B",
"z. c #96907C",
"x. c #98917E",
"c. c #8B8680",
"v. c #8E8A81",
"b. c #948E82",
"n. c #948F89",
"m. c #959183",
"M. c #9A9483",
"N. c #9D9884",
"B. c #979589",
"V. c #9B968B",
"C. c #A29F8E",
"Z. c #A29E95",
"A. c #A5A196",
/* pixels */
"            O O O             X   . .   . . 8 ) [ ( @ . % x O.>.r.M.l.>.M   . . . . .   .     .           O                     ",
"        O                 X     .   . ; [ n.Z.c.V.b.E ) l.M.l.s.a.k.x.s.>.H .   . * #     .         X O       O   O             ",
"                  O O O     X       / g.n.u.u.g.k.0.-.y.k.t.s.r.x.s.x.p.t.>.P ) u.c.c.u.@.n #                     O             ",
"                                o m u.u.e.u.h.e.a.o.@.d.p.r.k.t.p.r.p.r.6.&.O.u.u.u.u.0.b.Z.g.( X         O O                   ",
"        O         X X     c 4.A.m.0.7.5.8.9.0.7.-.R R ,.i.r.t.t.i.i.2.2.:.' ] 8.h.a.s.h.a.t.t.q.l +                             ",
"                  X     / f.B.v.M.d.q.*.#.,.,.,.' D D ~ X.' +.:.*.2.*.:.$.Q X.8.1.q.a.r.9.d.t.! m X     X X   X                 ",
"                      o 7.m.m.g.t.i.9.&.F ! Q W F 9 9 r e d D f C K R R R F K #.1.*.9.i.9.1.,.#.z o   o                         ",
"    O               X - f.t.q.a.i.8.9.:.9 r e & % e 4 % 4 4 $ r 9 % 9 < 4 r e P ] } *.1.*.1.,.~ a.f.f.{ *                       ",
"      O       k / ` m F %.t.t.7.8.7.&.P e = 3 7 3 : 7 3 7 3 7 7 2 4 2 4 4 4 4 4 7 x J &.>.] P ,.h.V.V.v.u.                      ",
"O       .   m u.g.h.a.7.&.] %.*.+.} P s 6 & 3 - 7 6 6 3 7 7 y 8 2 4 5 4 6 3 6 3 3 6 7 Z D v D >.t.u.g.g.u.H . o                 ",
"    .     # -.g.f.s.u.8.! h h D v x 7 - - 7 t 6 7 7 7 3 s 7 7 7 e 7 7 7 7 7 6 4 3 3 3 6 6 r M &.0.t.u.y.u.5.#                   ",
"          [ n.u.i.8.,.>.R e 9 % & 3 3 3 4 7 s s s 7 7 6 s 7 s s s i i r 7 7 7 7 3 6 6 3 3 4 e P ' 6.8.u.b.c.{ o                 ",
"        H c.g.h.t.,.&.' v 4 6 3 3 4 7 4 7 7 i s s 7 s 7 i 5 s f d d d s e 7 7 7 6 6 y 7 6 4 & 4 F ! %.,.e.w.u.t                 ",
"    X X [ v.e.u.6.+.F d & % 9 e r 6 4 4 5 i s s s 7 i 5 q 2 i f d f f p i 0 7 5 7 5 s e e 5 4 4 < e W ,.5.+.^ o                 ",
"X   X   y @.e.6.>...d 4 4 4 e e i e 5 5 q i a B a 5 q 5 q 5 p j B g j a p i 5 7 5 4 s e s 5 7 5 9 1 e h ( @.[ I n 8 X           ",
"  X     @ z x F J G e 4 e 4 7 r e i p i 7 q i B B i i 5 w 0 p f V V V g p i q 7 5 4 Z f x i e 0 % e 4 4 >.t.u.5.0._ t           ",
"    o I { &.' v d p 4 4 i s i s a d i q q i a B d f d i d 5 V j C B Z V p w 0 r 0 < f j V a a a 0 % 9 1 G 6.b.y.u.6.{ -         ",
"  o [ g.k.i.,.' J x 5 3 d d i p a d i i i p f B f f a p a 5 Z Z S B A V p i i a i 1 a j V a a a w 9 5 < s E t.l.y.u.,.N   X     ",
"  o u.B.x.p.t.8.O.J 5 5 f x d a f d p i i a B A f j d p p 0 B Z S B C C g p p h w 2 a j C V B a p i 0 4 4 7 >.k.d.s.0.} *       ",
".   u.u.r.i.t.p.+.F 3 7 B Z B f B f d i p d x A Z f B s p q f Z C B S A g a r a e 1 p V S C B f f i 5 0 3 3 +.y.l.r.,.@.>       ",
"    7.q.8.p.1.1.+.D 6 7 v D j j Z B a i i p B A Z f Z f d q d Z S V S C g a p a e 4 i C S S V V f d e e 7 4 O.8.d.1.4.[ k   O   ",
"    %.f.q.i.*.$.+.D 7 i j Z A C D B d q q d f G Z f Z f f i p Z C V S V a h d h w 2 w Z C S B V d i s i 4 4 o.e.i.1.1.` z   O   ",
"  o / q.t.r.9.1.O.v 4 e j A K V A B p q 0 p Z G A d G f f i p V Z V S V p j h j w 9 i A V S a V j e d i 3 4 ) e.9.1.&.Y l   O   ",
"    l #.7.,.r.8.X.c 4 e f G K j G B i 0 0 p x G A d A f p q p Z S C S V a g a j i 0 w Z V C a V Z 5 p i 7 5 T e.2.1.' F ,       ",
"  $ } } Y R P F b 9 4 e j Z A C A Z p i 2 d B Z x B Z v d i p Z S S S C B a a a p 0 w A V w B V B i s i i 7 5 e.X.] b b *       ",
". _ V.b.8.#.X.X.F e 3 e j b A C Z v p i 2 d B Z Z Z Z x p q p V Z S C B a i p f p 0 p C C a V V B f f q 7 7 G y.k.d.1.=.N X     ",
"X 7.h.h.m.p.,.X.E y 3 i j A C g V Z p i 2 p x Z G A Z f i 5 p j Z S V V a a f f a 9 p A C V C S A f d 7 i 5 ..j.p.r.8.1.( #     ",
". u.q.9.s.9.,.&.) d 4 s C K C g j B d p 1 p Z A G A Z f i 5 p Z S S Z B a f f j j 0 p A Z V S V V f B q s 5 >.y.p.r.8.;.[ X     ",
"o g.f.i.a.1.,.1.) s 4 f G Z C g j Z p p 1 p Z Z Z v v p 5 5 i Z S A V V j a h j f 0 p A S V S V f f j s d 2 e.y.N.d.s.7.@.o     ",
"o @.u.z.N.d.i.7.J y 6 f A Z C g Z f p i 2 d Z A Z x f s q 5 p V S A V V j j a h p 5 p A S V S V Z j x p p 5 y.j.k.p.r.7.%.*     ",
"  z 7.a.i.s.s.1.x 7 7 f A C V V Z V p i 2 f Z F A Z B f q 5 p C G C V V j j d a i 5 p A C Z C V j V B d p 5 y.j.j.p.9.7.%.*     ",
"  . W [ ! ;.*.L s 4 e v D A C C A v i i 2 f G G A Z Z f i 5 i B G S C C A j j h p q f S S V C V a f f d p 5 e.p.t.i.1.;. .=     ",
".   @. .I L r e 7 4 7 d Z S S V Z B q 5 q B S S V a B f q 5 d Z G S V C S V Z d d 0 a Z S S B B B B p V 7 i e.y.t.6.9.&.Y - X   ",
"  X 3.@.} b K v s 7 5 d Z S C j Z B a 5 q B S S C a V B 0 5 d Z S S V C S Z Z d a 0 B S S S V V C C p f i 7 5.t.t.e.X.' L l .   ",
"  . n -.%.' $.' G s q x Z Z C V B x i q q B S S S B V B 5 5 s Z S S V C G Z Z d a i d S Z S V C S V q p d i +.u.r.,.R Y J z .   ",
"    * 0.>.0.,.:.) v s Z G A V C Z B q q q B V S C V V f 5 2 p v S S B C G Z Z p p 5 a Z S S V V C V q f x i E 8.>.O.W R W -   . ",
"    ^ u.s.8.>.#.] v s Z G V f j x d i 5 q B S V S V Z B 5 2 p V S C V S S V j f q q B S S C V V S C i f j 6 d X.*.$.#.} [ -     ",
". ; w.u.s.q.0.' ' v s Z A V a V d p 0 5 i V C S S C V B 5 2 d Z Z C B Z A a f f q 2 a V C C V V C V p f f e 4 ' 8.i.1.,.} M o   ",
"O k u.u.0.d.0.o.) v s A S C V g i i 0 5 q S S Z C C S B 5 2 d Z S S V C V p f j q 2 B C C S V V C V g j d s 7 o.i.k.r.q.;.} t   ",
"  k w.v.r.r.2.o.W v d Z S V g g B d q 0 q V C V V V V B 5 5 d v S V V C j i d j B 2 q B V C V V K V g j i y 4 ] t.r.a.r.a. .x   ",
"  , c.u.s.a.r.$.E d D Z G f V V a s q 2 f B S Z B V V B q 5 x Z Z S B B j p p p p 5 p A V V V B S V A d d e 9 ~ t.p.i.i.t.;.N   ",
"  n u.c.t.q.8.#.P r j A G Z C B a p q 2 a B V V B S S B q 2 f V S S V V j p f p 5 2 p C V V V B C V S f d e e W r.s.i.9.4.;.Y $ ",
"  # u.0.t.9.&.$.K r f A G S V a f s i 5 B B C V V S V B 5 5 V Z S S B V Z f a p 0 2 q Z V V V w C C A f f i 9 K ,.p.l.d.t.;.I o ",
"    3.u.k.i.,.&.P s Z D S C V a d i 0 2 B B S S V S Z B 5 5 B Z S C B V A V f i q 2 p A C V C a g C A f f e 4 D r.p.p.p.1.[ c o ",
"X   t m.9.,.,.~ D r Z A C V C C a p 0 2 B C S C V S V a 5 5 v Z S V B V C V f p 0 5 a A S C V B g C A j h 9 1 v $.*.#.#.! m -   ",
"    8 0.&.' *.R j 9 v A S C V C Z d i 5 V V S V C C V a 5 q v f V B w V C a f p q 5 p A Z C C a g C V j d 2 3 v 9.z.N.l.a.4.U o ",
"  t  .=.8.*.*.#.v e Z A S C V C f d q 5 B Z S V V V B q 5 q Z d B B q V V a a p 5 5 p S S C V B C C j j h 1 9 b 9.z.z.i.7.;.U o ",
"   .a.8.i.2.2.*.G d G Z C V C B d i q 2 B S S S V V a q 5 i V a B B B V V w a V i 2 p C C Z S B g A C j h 1 9 K i.k.p.9.=.} M o ",
"o a.t.l.s.k.2.&.A a V S S V V V f q 2 q B C S C V C V B 2 q B a B V V S B a a s q 2 a V V V S a V V g C p 1 < T r.8.r.i.;.] M X ",
"@ C.r.1.:.$.,.<.Z j j A A C C C B i 0 q B C S C S S B B q i i B B B V V B B B B a 2 a V V V G V j V g j p 5 1 P e.s.h.a.7.;.U   ",
"= b.g.a.d.0.,.] h a j A S Z C V B s q i C V Z V S S V B q q i f B B S G S B B B i 2 a V B a G V V V g f i q 4 Z 1.d.l.h.a.7.I   ",
"o W g.s.>.&.} Q i e j F A A V B d i q d V C Z V S C V V s 7 i f B B B G S B x B a 5 w B B V A Z Z Z j f i i < s 2.r.e.u.q.%.m X ",
"  y @.O.) W v 4 2 7 B D G A Z f d q 7 d Z Z Z Z S S B B s q i B q B B C G B B x B 5 a B Z j A B Z Z B B 7 s 5 s +.O.{ { [ H e   ",
"$ 0.b.g.6...Q v 5 i x Z B G Z B d e q d B Z j V G S B a s i i B B B B V G B B s s 5 i s j g A Z x d x B s f 7 s >.8.0.6.>.&.Y 6 ",
"T M.g.r.e.5.&.G 7 d B D B Z Z a f e q f A B j g S S B a s i q s a p a B G B B i s 5 7 q j h b j a i f B q s q d +.t.M.l.u.t.-.u ",
"+.t.y.t.6.t.<.E 5 d D G D Z B i f e 7 d G A j j Z B B a s s q 5 V p p B G B s q q 2 7 5 j g j j p q d B 7 i 7 d O.6.k.k.0.0.-.d ",
"! d.t.t.l.9.,.! i d A A A K g a r 0 0 h A K g w K g a w r 0 e p f w w g j j a r q 5 1 2 i g h g w 0 0 p i 5 5 9 ..e.s.8.,.2.&.b ",
"! i.i.z.x.2.$.R e f j Z b h h r w 9 e p h g a w g p w h p r 0 9 0 0 0 h A h r 9 < 4 9 0 r p a a a 0 9 9 2 9 r 9 T ,.9.d.p.,.O.r ",
"! a.i.a.p.*.] P & r b b p 9 9 & e e r h b b h p h h r r p h c v p e 9 r h h p r 5 e u e 9 9 p h 0 e e e p v v e T 8.8.u.q.,.%.9 ",
"! a.a.q.8.;.} L 4 L #.%.~ ! ! ~ ' [ ] } ] ! R P P K K L W } ;.8.2.*.~ ! R Y R R W { O.O.W b h h b b v c L } ,.>.J O.%.,.&.` v   ",
"m =.;.=.=.} / z M @.q.0.1.4.1.;.5.;.5.7.5.5.5.6.1.,.;.;.;.4.4.4.1.;.5.6.q.q.w.q.0.0.6.5.5.7.8.8.=.=.-.-.-.5.5.@.[ H H _ / y o . ",
"X X $ > , * o   ; t l t t t > $ # # # * = - t d I Y ` ` { { { { [ [ [ { { { [ _ [ _ [ | [ ( H n N m n n n H ^ _ n @ o # .     . ",
"                          .     X             .   .         X X o . o . o + + + # o     . X     .         .         .     .     ",
"    X                 X       X               .     .                                 .         .           .     .         o   "
};
