/* XPM */
static char *_2748_543210debda0ace1b1814ec1ea80491837e6e76466863783081ebcf6dc6ddfa2[] = {
/* columns rows colors chars-per-pixel */
"64 64 225 2 ",
"   c #010203",
".  c #02050A",
"X  c #03080E",
"o  c #030711",
"O  c #030A14",
"+  c #020D1B",
"@  c #04101D",
"#  c #010E22",
"$  c #000E28",
"%  c #031224",
"&  c #091524",
"*  c #02152C",
"=  c #08172A",
"-  c #05192E",
";  c #09192D",
":  c #011632",
">  c #031A34",
",  c #0A1C35",
"<  c #031D3B",
"1  c #081E3B",
"2  c #001738",
"3  c #03213D",
"4  c #0A213B",
"5  c #021E42",
"6  c #021D48",
"7  c #081F41",
"8  c #032243",
"9  c #0A2443",
"0  c #002A44",
"q  c #0D2944",
"w  c #02254B",
"e  c #0A254C",
"r  c #012A4D",
"t  c #0B2A4C",
"y  c #132C4B",
"u  c #00344F",
"i  c #022651",
"p  c #022B53",
"a  c #0B2C53",
"s  c #022D5A",
"d  c #0B2D5A",
"f  c #013254",
"g  c #01345B",
"h  c #0B335A",
"j  c #013B5B",
"k  c #0C3454",
"l  c #12325B",
"z  c #133B5C",
"x  c #183756",
"c  c #013362",
"v  c #0B3562",
"b  c #033B64",
"n  c #0A3A65",
"m  c #01356B",
"M  c #013C6B",
"N  c #0D3B6A",
"B  c #093769",
"V  c #163C64",
"C  c #003E74",
"Z  c #04435B",
"A  c #0B425C",
"S  c #25405E",
"D  c #024462",
"F  c #01436D",
"G  c #024E6E",
"H  c #084766",
"J  c #164368",
"K  c #014474",
"L  c #034A75",
"P  c #014C7C",
"I  c #0E4C7B",
"U  c #0C4476",
"Y  c #184976",
"T  c #01537E",
"R  c #0B547C",
"E  c #055A7C",
"W  c #095576",
"Q  c #105276",
"!  c #145B75",
"~  c #1A5977",
"^  c #09536E",
"/  c #274A6A",
"(  c #235A7B",
")  c #2E5073",
"_  c #365979",
"`  c #15617B",
"'  c #27697F",
"]  c #26647D",
"[  c #32667E",
"{  c #415E7C",
"}  c #014C84",
"|  c #004D89",
" . c #004780",
".. c #124C82",
"X. c #035586",
"o. c #035B85",
"O. c #0B5A84",
"+. c #00558A",
"@. c #025A8B",
"#. c #0D5B8C",
"$. c #0D5582",
"%. c #185D83",
"&. c #005B91",
"*. c #005C9C",
"=. c #005597",
"-. c #335D8A",
";. c #295787",
":. c #02638C",
">. c #08698C",
",. c #1A6383",
"<. c #18698C",
"1. c #056491",
"2. c #026C9C",
"3. c #096697",
"4. c #1C6D94",
"5. c #1B6F9E",
"6. c #146A98",
"7. c #13729C",
"8. c #1C7599",
"9. c #236383",
"0. c #2D6C8B",
"q. c #286788",
"w. c #326D8B",
"e. c #346A84",
"r. c #34728E",
"t. c #276E95",
"y. c #336996",
"u. c #24749A",
"i. c #247B9C",
"p. c #277594",
"a. c #3C7C9C",
"s. c #367797",
"d. c #25718B",
"f. c #015EA3",
"g. c #0364A4",
"h. c #0264AC",
"j. c #076AA3",
"k. c #196EA3",
"l. c #146EA6",
"z. c #0A75A4",
"x. c #1473A2",
"c. c #1574AB",
"v. c #1D7DAB",
"b. c #1A78AB",
"n. c #016AB3",
"m. c #047BB2",
"M. c #0272BC",
"N. c #0778B8",
"B. c #127CBB",
"V. c #1C7CBC",
"C. c #1178B6",
"Z. c #2275A5",
"A. c #237CA4",
"S. c #247CAC",
"D. c #297CAC",
"F. c #2B7BA6",
"G. c #3C7CA4",
"H. c #327CA4",
"J. c #237EBA",
"K. c #496486",
"L. c #4A6E92",
"P. c #43779C",
"I. c #467E9D",
"U. c #537590",
"Y. c #467CAB",
"T. c #0876C5",
"R. c #017CC6",
"E. c #027ACA",
"W. c #0575C7",
"Q. c #1179C4",
"!. c #217EC1",
"~. c #35829C",
"^. c #1481AE",
"/. c #0B82B7",
"(. c #1887B9",
"). c #2B83AB",
"_. c #2982A7",
"`. c #358BAD",
"'. c #3887A7",
"]. c #2284BB",
"[. c #2982B9",
"{. c #2985B6",
"}. c #3F8BB6",
"|. c #3889B9",
" X c #2390BB",
".X c #3B92BF",
"XX c #3691B6",
"oX c #4582A3",
"OX c #4B85A4",
"+X c #4389A8",
"@X c #4A8BAD",
"#X c #4184AA",
"$X c #5883A3",
"%X c #458AB8",
"&X c #528AB7",
"*X c #4793B8",
"=X c #579BBE",
"-X c #0A84C9",
";X c #1686C6",
":X c #1F9BCF",
">X c #188BD6",
",X c #1D96D6",
"<X c #1C96DF",
"1X c #0D88D5",
"2X c #2788C7",
"3X c #328DC8",
"4X c #2995C9",
"5X c #3294C3",
"6X c #3693CD",
"7X c #329BCA",
"8X c #3A9CCA",
"9X c #2999D8",
"0X c #3CA1CE",
"qX c #24A0DC",
"wX c #32A7D8",
"eX c #2999E5",
"rX c #319BE3",
"tX c #32A4EA",
"yX c #2EAAF2",
"uX c #34A9F1",
"iX c #4996C3",
"pX c #469BC7",
"aX c #479CCA",
"sX c #41A0CC",
"dX c #4CA6D6",
/* pixels */
"                                                      .     .   .     .   .                 .                                   ",
"                                      X   X         .   . .   . . . .       .                                                   ",
"                                                . . .   . . . . . . . . .     .   .                                             ",
"                                        X     X . . . X . . . . . . X . X . . .   . .   .                                       ",
"                                            .     . . . X X X X X X X X X   . . .   .         .                                 ",
"                                      X X . . . . X X X X X X O X o o o X X X X X . . . . . .                                   ",
"                    .   .     .       X . X X X X X X X X O O O O O o O O X X X o o X . . . . . . .   .                         ",
"                    .       .   X   X X X X X o X X @ @ O O O O O & o & O X X X o o X X X . . . .   .   .                       ",
"                        .   . . . X X o o O O O O O + @ + + + + & O O & + + O O + O O o O o o . . . .   .     .                 ",
"          .       . .   . . . . X o o o O O O O + + @ % # + + + + & + + # # + O + O O O O o o o . o . . .   .                   ",
"              . . . . . . . . o o O o o + O + + @ + + % $ # # $ $ $ & $ # # # # & O + O + o o O o . . . .   .   .               ",
"                .   . . . X o o o O + + + @ @ @ # # $ * * % * - ; : ; $ $ # # & # & # + + + + O O O o . .   . .   .             ",
"            . .   . . X o o o O O + + + # # % % % $ * * - * * : : : : $ : $ $ $ $ & # # & + + O O o o o X . . .   .             ",
"            .   . . . . o o O O + + + % % % & % = * - : : : 2 > , , 2 : 2 ; : : = $ $ # # + + + O O o O X X .   .     .         ",
"              .     X o O O O O + % % % % = * * - : - , > < < 8 7 2 2 , , 2 : ; ; : $ $ $ & # @ + O O O O . . .   .             ",
"            .   . . X O O O O + + % % % * * - : , 2 < 1 1 1 8 9 7 7 7 2 1 1 , 1 , ; ; ; = $ $ # + O @ O O o . . .               ",
"    . . . . . . X . o O + + + + % % % * > % - - 7 2 e < e 5 a e 6 y 6 6 < 3 9 : 7 : : , , * # ; @ @ + O O X X . .   .   .   .   ",
"            . . X X O O + + @ % % = # : 4 3 < 3 1 t < w d 6 w p 5 6 t 5 t e 2 t 7 1 1 , > : : * % @ @ @ @ O X X . .   .     .   ",
"      .   . . . O X O + + + % % # , * * 4 9 3 < e 6 w i s v p B d d l w p w 8 r 6 1 7 y 1 2 4 * % % @ O O O O . . .   . .       ",
"  . .   . . . X X O O O @ % % % , * < y _ 8 8 r a 6 d i p B ;.s i i p p i w -.r a w 5 8 : 7 S < - % @ @ @ O O O X . X   . .   . ",
". .     . . . X X O + @ % % % * * : 3 q _ a r w i s i B N U &XU c c c b g b P.J w p w w w ) L.y * % % + + O O O X . X     .     ",
"    . . . . X X O O @ @ % % % - 2 e < 2 k u r p n n s c c m U m m m M s g p B b g p p r 8 r z 2 : % % @ @ + O O X X X X X     . ",
".     .   . . X O + @ @ % % = - 2 < 2 u p 8 r b p s M M C P L P P K L M F F g c g g r r w 8 r r > - % % % + + O X X . . . . .   ",
"  . .   . . X X O @ @ % - - - > 3 _ $XI.oX@X@Xq.y.%X%XiX|.u.dX7.aX%X.XiX}.%X%X%.G.@X@X~.OXOX~ 8 < - * % % # @ @ O X X X . .   . ",
"  . . . X X X X & O & & % : 4 < 3 e.u w.' p.` '.t.L 4.Z.{.1.{.1.3.x.A.X.Z.u.O.O.8.G d.d.' 0.] 0 < - > $ % * # o O O X . . .     ",
".   . . X X X X & o + & > * > x 0 ' Z r.` ` p.G u.X.).7.S.z.4X1.2.5X X@..X).O.u.~.<.p.` d.] Z 3 < > > : - % % % O O X X   .   . ",
"X     . X X X O O & $ $ * $ y U.A ' Z ` ~.`.`.i.8.T sX0X5X2.(./.j. X(.@.{.Z.o.6._.^ `.`.s.~.e.< 3 < * * - % + + @ O O X .   . . ",
".   . . X X O X + & # # - < 3 x u ' Z ! ~.i.D A.v.X.5X].;Xm.(.m.m.;X(.j.[.{.1.7.^.^ ~.p.d.s.0.u 3 3 < 3 * # % & O O O X . . . . ",
"      X X X & X # # $ * : 1 < * 3 ' D ^ W `.T _.A.@.].j.Q.;X,XN.m.,XB.f.3XJ.@.k._.>.8.E ! ! j 8 3 < : 2 > * % # + O O . . . .   ",
"  . X   X X X X & # ; , * : q r 3 s.D +X*X'.L D.b.j.V.f.n.;X9X-X1X>X;XC.2X;Xl.x.v.:.).XX'.+Xw.r w 8 q : : : % + + O O o .   . . ",
"    .   X X X & & # $ : 1 < 2 < 0 w.s.=XR F.pXZ.J.3XJ.f.n.tXuX-XyX<XeXrX!.3X3Xc.8X X).`.'.G.( r 8 x K.q : # $ = + + O o . . .   ",
"  . X X X X & X o = $ $ 2 < 3 x u j j %.! X.P +.| l.f.f.n.T.T.W.1XR.M.T.n.h.j.+.o.1.T E F H b w 8 y _ < 2 - * + + O O o o o . . ",
".   . . X O O + @ % : * 1 8 x $Xz w g g b B P  .| =.=.h.n.W.W.E.-XR.M.n.h.g.| &.X.F K K w g p w w 9 3 4 : * % % + O O X X . . . ",
"  . . . o O O + % % : * 2 < < / u r.oXoX}.iX3Xk.b.6X!.=.T.eX>X>XyXyXuXyXwX9XC.].dXsX*X'.&Xb i w 3 3 < - * % @ @ @ O o X .   . . ",
".   . . o O + + + # - * : 3 2 8 8 ( j %.$.O.X.D.k.l.2Xf.!.Q.>XQ.1X-X-Xm.;X4X1.z.7.o.u.t.q.g f r 3 < : - * * % @ O O O X . .   . ",
"  . . . X o O + % + * * 2 9 3 3 3 0.D s.q.u.T Z.#.k.6Xf.!.Q.rX-XN.qX;X:X(.C.2.7..X_.4.s.0.( $Xt 3 3 < - - = % @ @ O X X . .   . ",
".   . . . O O + % + * - * 2 3 3 3 [ H ` j H.O.).} D.k.l.pXV.C.C./.:XwXwX7X7X:.x._.`.*X,.w.j J 8 9 3 < - * % % + O O o . . .   . ",
"  . . . . o o O @ + % , : * < 3 3 ' A ` f t.T %XP F.+.aX3X!.*.B.m./.(.^.(.8Xo.7.4.i.G 9.oXf r 8 3 4 : - - % + + @ O o X .   .   ",
"  X X   X o O O + # % - * : > 3 3 [ A ` D t.I H.M t.#.F. .J.f.c.2.7Xz.^.z.6.>.>.'.<.^ s.~ f 5 t 3 < - - % % % @ O O . X . .   . ",
"      X . X o O O & + # * * > > > [ A OXoXG.L t.M <...#.#.J. .l.2. X0X5XXXpXT 4.u.,.Q q.g 3 r 5 < - - % % @ + @ O O . . .   . . ",
"X     X X X X X O & + # # = : : 3 [ w.P.r.a.G.G.c I &X%X}.6.| 6. X0XA.{.|..XL =X'.Q @Xs.r r t 5 2 : - % % @ @ O O X X . . . .   ",
"X   X   X X X X O + & & $ = - : % A h j J g N m c c I I .. .C | :.6.o.O.$.L L F F b N h p w 5 8 > - - * % % @ O O X . .   .   . ",
"      X X X X X O + + # & = = : 3 3 3 8 Y w p g g s s m c m C C C M F M m g m s p g r 8 w V _ 9 : - - % % @ + O O o X .     .   ",
"  X X   X X X X O + + + # & = $ - * 3 V L.h w p p s h B c B ..m M I c c s b i N p r r p 5 / K.2 > - * % % @ + O X X . . . .   . ",
". . . . . . X X o O + # # % & * 4 : * < z 8 5 h a i d p N N y.m M Y.B c d s d i d 8 3 0 8 q y 1 - - * % # + + O X . . .   .   . ",
"      . . . X . o o o + @ + # & # , > : 9 9 5 5 w e d w v B -.B N ;.N l d d l e e 0 3 3 9 2 $ > * % % @ # O O O X . . . .   .   ",
"  X . . . . . . . o O O O # % # % & ; * * 3 9 5 5 5 a e 6 i B p s 6 d i d e e y 5 9 9 > * - - * * % % + # O + O . . .     .   . ",
"    . . . . . . o . O o + @ + % & o % , 1 : 1 2 q 2 7 a 6 i d i w l 6 w e 7 e 6 9 q 3 4 3 % - % % % # + O O o o . . .   . . .   ",
"        X   . . X X o o o O & O % % % * * - : , > 1 4 1 < 8 8 8 5 8 8 8 7 , , < : * - * * * & # + + O O O o o . .     .     . . ",
"          . .   . . X X O O o & + % % % * * - - : , 1 < > < 1 9 1 3 1 1 1 < 2 , : - - = & # $ & + O O O o o . o . . . .         ",
"      . .     X . . X X o O o O + + + % % % * - * : : > , 1 1 1 1 3 1 1 < 2 : - : - * & $ % # + @ + O O o . o .   .             ",
"      .     .   . . X X O O O O + # + # % % & % % = ; : : : : 2 , < , : : - - - * % # % & # + & O O O o o . . . .   .           ",
"    .         X   . .   o o o O + + + + + # & & # * * * * * * * * * * $ * * * % % % @ + + + + + O O o o . . o   .   .           ",
"                . . . . o o o o O O O O + + + + % + % $ $ % % $ * * % * # * & # % @ % + & O O O o X o . . .   .                 ",
"              X   . . . X . X X o o O O o + @ @ + + # + # % # % % % % % & # # & @ @ + O o o X X X X . . . .   . .               ",
".                 .   . . X . X . o o O o O O O + O + + + + % + # # + # + O + @ O O O o X X X X . . .     . .     .             ",
"                  .     . . .   . X X . o o O O O O O + O & O & + O + + O O + O X X X X X X X     . . .   . .                   ",
"                    .   .   . . . . X X X O o o O O O O O O O O + + O O O O o o X X X X X X . X . .     .                       ",
"                              . .   . . . . X X O o o o o O o O o O O O o o o o X   . . X X       .   .                         ",
"                      . . .           . . . X . o o o o O o o o o o o o o X X X X . X . .   X   .   .                           ",
"                                  .   . . . .   o X . X X X X X X X X X X . . . .   . . . .                                     ",
"                        . .       . .       . . X . . . . . X . . X . . . . . . . .   .     .                                   ",
"                                .       .   . .   . . . . . . . . . .   . .   . .     .                                         ",
"                                    . .   . .   .   . . . . . . .   .   .   .     .   .                                         "
};
