/* XPM */
static char *ab0ca3481be44982c29a7579f1e19f2dIhb2NHJIEYPPxvOH[] = {
/* columns rows colors chars-per-pixel */
"64 64 253 2 ",
"   c #010001",
".  c #0B0101",
"X  c #0A0904",
"o  c #01030A",
"O  c #020A0B",
"+  c #0A0A0A",
"@  c #130200",
"#  c #1B0301",
"$  c #1B0A01",
"%  c #150C09",
"&  c #1B1405",
"*  c #020912",
"=  c #1A1717",
"-  c #130E10",
";  c #230D02",
":  c #270902",
">  c #2C1201",
",  c #271409",
"<  c #3B1401",
"1  c #351B02",
"2  c #3C1C03",
"3  c #371909",
"4  c #271A16",
"5  c #371D13",
"6  c #310D05",
"7  c #3B230D",
"8  c #36250D",
"9  c #342214",
"0  c #3B2518",
"q  c #2D2819",
"w  c #351C25",
"e  c #382627",
"r  c #332E2F",
"t  c #431A02",
"y  c #4A1C03",
"u  c #45190A",
"i  c #531C00",
"p  c #591802",
"a  c #461E14",
"s  c #681C00",
"d  c #761D00",
"f  c #48250A",
"g  c #53250C",
"h  c #582708",
"j  c #432414",
"k  c #4D2B13",
"l  c #4B2C1A",
"z  c #462819",
"x  c #532C13",
"c  c #572B17",
"v  c #4A3419",
"b  c #55341B",
"n  c #5B331B",
"m  c #583718",
"M  c #4E310C",
"N  c #642301",
"B  c #6C2401",
"V  c #6C2B02",
"C  c #662A09",
"Z  c #762A02",
"A  c #69360A",
"S  c #72340C",
"D  c #793506",
"F  c #632B14",
"G  c #683616",
"H  c #763916",
"J  c #762E15",
"K  c #462A24",
"L  c #552D23",
"P  c #4B3825",
"I  c #5B3B23",
"U  c #563725",
"Y  c #543B32",
"T  c #443536",
"R  c #643B23",
"E  c #6C3A27",
"W  c #5B421C",
"Q  c #794418",
"!  c #5C452B",
"~  c #5B4438",
"^  c #4F4839",
"/  c #654628",
"(  c #754728",
")  c #664B35",
"_  c #744736",
"`  c #6A5538",
"'  c #77583A",
"]  c #6E542A",
"[  c #7A6739",
"{  c #3F3D40",
"}  c #443D44",
"|  c #474547",
" . c #564748",
".. c #595655",
"X. c #545550",
"o. c #6B5547",
"O. c #765A44",
"+. c #6E574F",
"@. c #7A6347",
"#. c #7A6558",
"$. c #6C6658",
"%. c #676667",
"&. c #6A6D74",
"*. c #78797A",
"=. c #76726E",
"-. c #5F6B6B",
";. c #853808",
":. c #983B07",
">. c #833B17",
",. c #8D3107",
"<. c #A43A00",
"1. c #8C2E11",
"2. c #9A4305",
"3. c #894418",
"4. c #964719",
"5. c #8A4710",
"6. c #A84708",
"7. c #B64A07",
"8. c #B9540D",
"9. c #A84A16",
"0. c #B54E18",
"q. c #AC541C",
"w. c #A95318",
"e. c #BB5413",
"r. c #B4551B",
"t. c #B95817",
"y. c #AE520F",
"u. c #884925",
"i. c #964B24",
"p. c #9B552A",
"a. c #865939",
"s. c #945937",
"d. c #89552E",
"f. c #A95727",
"g. c #B85925",
"h. c #A65C38",
"j. c #AC4C24",
"k. c #946337",
"l. c #886238",
"z. c #B16731",
"x. c #C54E05",
"c. c #C6540A",
"v. c #C45312",
"b. c #C45918",
"n. c #D45913",
"m. c #C8611B",
"M. c #C35622",
"N. c #C1632D",
"B. c #895C46",
"V. c #8B6747",
"C. c #986B47",
"Z. c #97784A",
"A. c #896854",
"S. c #89735B",
"D. c #977757",
"F. c #8F704A",
"G. c #A47A58",
"H. c #AA764E",
"J. c #8C796D",
"K. c #A66B57",
"L. c #7F8377",
"P. c #B5865C",
"I. c #AB815B",
"U. c #988678",
"Y. c #848679",
"T. c #A78669",
"R. c #B9926C",
"E. c #B48F70",
"W. c #CC8858",
"Q. c #C4976C",
"!. c #C49876",
"~. c #D3926A",
"^. c #E49870",
"/. c #C8A47B",
"(. c #D5A978",
"). c #DEA46A",
"_. c #E5AA74",
"`. c #7C7C84",
"'. c #6E7582",
"]. c #7B8387",
"[. c #86888B",
"{. c #8D9397",
"}. c #969698",
"|. c #918E8E",
" X c #A8978C",
".X c #B5A996",
"XX c #B1A997",
"oX c #9B9DA4",
"OX c #8E98A4",
"+X c #9DA6B1",
"@X c #A8A8AB",
"#X c #B6A6A5",
"$X c #A6ACB2",
"%X c #ACB3B8",
"&X c #B4B4BB",
"*X c #BABABB",
"=X c #B5B6B9",
"-X c #B6B3B2",
";X c #C79B84",
":X c #D6AA88",
">X c #D9B387",
",X c #DBB694",
"<X c #CCAC90",
"1X c #E8AD83",
"2X c #E3B58A",
"3X c #E8B88A",
"4X c #E7BD96",
"5X c #F5BA90",
"6X c #C7B9A9",
"7X c #C7BCB8",
"8X c #CFB6AA",
"9X c #E4BBA5",
"0X c #EAC397",
"qX c #FBCC99",
"wX c #FBD49C",
"eX c #F1C38F",
"rX c #CBC2B3",
"tX c #C8C6B7",
"yX c #D4C6BA",
"uX c #D1CAB1",
"iX c #F6CBA6",
"pX c #FED4A5",
"aX c #FEDCA5",
"sX c #FCD5AB",
"dX c #FEDCAC",
"fX c #F5D1A8",
"gX c #FEDBB3",
"hX c #FCD8B5",
"jX c #EECBAD",
"kX c #FFE2AC",
"lX c #FFE2B4",
"zX c #FFE4BB",
"xX c #FCE7B7",
"cX c #B3BBC2",
"vX c #BBBDC2",
"bX c #ABB5C1",
"nX c #C5BEC3",
"mX c #BDC2C8",
"MX c #BECBD3",
"NX c #C3C2C3",
"BX c #C9C7C8",
"VX c #D6C9C4",
"CX c #C8CCD3",
"ZX c #CCD2D7",
"AX c #D6D6DA",
"SX c #D5CFCD",
"DX c #F2D6C6",
"FX c #F5EAD0",
"GX c #DCDCE2",
"HX c #CEDBE4",
"JX c #DBE2EB",
"KX c #F6F8FA",
"LX c #EBE9EC",
/* pixels */
"                                      .   .     o * * * O o   .       . # : 1 $ .     . . .   O                                 ",
"                                      . .         * * o       .   X # u F G G m a 4 . . .     O                                 ",
"                                                o         @ @ # 7 < C i.r.b.8.q.h.c 6 #                                         ",
"                                o               O       @ # < x ( H j.M.n.n.c.m.<.4.p u 5 X O o o                               ",
"                                  o                 . @ # < H s.p.6.M.M.c.x.7.c.b.:.j.s.c 6 . o                                 ",
"                                  o               . . @ < H p.z.t.8.v.g.b.g.t.r.9.j.i.h.C.a # .                                 ",
"                                                    . # x u.p.q.8.7.2.j.p.f.p.3.Z p Z 3.u.G ;                                   ",
"                                                o   . 6 c S >.f.y.2.s S H W A f t i h V S x ,                                   ",
"                                              o o     6 x C J p V S k.:XG.H.H.Q.3XQ.Q.1XG.c & X                                 ",
"                                            o   o   . 4 u F H u.>XfXiXsXhXdXqXdXsXgXsXDX4X1 &                                   ",
"                                              o * o . , < ( N 1X2X:XiXDXhXsXwXaX~.u.>.s.K.a # .                                 ",
"                                                o     , j c i C A H s C d.kXwXd.S p.i.>.F z 4 o                                 ",
"                                        .         + @ 4 S.E u.h.p.i.h.K.C 4XfX] s.d.h.s.( ! 5 .                                 ",
"                                                    & +.jX<XF H 5.5.J J s iXxXF.h h y h h <XY %                                 ",
"                                o o       .       . # o.G.K.H.3.t a./ m !.hXgXlX) T.T.a.:XK.I 5                                 ",
"                                              . . @ 6 j !.F ^.1XF.] m m 9XsXlXhX' 8 m n C.B.' 6 .                               ",
"                                . . o o   o   . # : L F H.>._.1XI./.>XwX0XgXzXdXZ.a.;XhX:X/ R >     X   +     O O   o           ",
"                                .     o o     . # a a.B V f.W.5XwXpXdX' dXgXgXdX0XG C.C.l.g G u :   .                 o         ",
"                                    o O o     @ 3 E B B 9.g.f.^._._.k.P.fXzXsXFXxXP.>Xp.u.H s E 3 , , $ $ . @       o   o       ",
"                                          X $ > i J ,.j.f.r.M.2.Z p.h 2X4XiXzXdXdX3X_.5.4.g.d i.F l a 5 9 ; @   .     o       o ",
"                                o       . & 9 f B ;.j.N.w.t.:.,.f.f.N S k.I.0XsX3Xk.Q B :.N.:.d u.p u E b 3 3 $ @ . .     o o o ",
"                                    @ @ $ 9 k h 3.9.r.9.g.,.,.t.g.g.9.D D h l.Q.k.N D 4.f.0.g.1.>.E g F n L L 5 ; # .     o o   ",
"                                o   @ : 3 v k i f.r.m.w.5.V r.t.v.x.9.0.w.5.V h V 5.f.f.q.9.j.9.d u.s i c G l j 0 , # .       o ",
"                                o . : 3 L I x i w.g.9.r.Z ;.q.7.v.x.7.g.w.4.D z.4.4.5.f.j.g.9.2.Z >.N G G x l l U j ; @ .       ",
"                                    , b m M f i 4.g.<.9.s i.9.9.7.,.0.g.5.;.h.hX~.D D i.4.4.4.i.>.V S h g n b I z z 0 9 .       ",
"                                O X 8 U 7 f m h Z 9.:.4.B 4.:.9.:.z.5.4.D B W._.~.4.d B B D Z V V p A h f f k v k c I U ; .     ",
"                                  4 L m f 7 M h d >.i.1.B 3.4.,.:.>.D h p s s s >.>.4.;.;.D Z Q ;.C F m m f I x n x k 7 > . X   ",
"                                  5 l x G m x G p J J C S 3.;.Z N p V Z u.i.1.>.:.r.g.y.9.y.2.w.i.u.C g f f m I g f n k 7 .     ",
"                                ; z c c c x x h F p F J s N B ;.:.y.6.q.g.t.M.b.n.c.c.x.x.c.c.0.;.u.G h k f l x g g n b j @     ",
"                              . : j L L L c h c u g F J p D 2.q.8.b.e.8.e.8.8.c.x.x.c.n.c.x.n.v.4.S C y R c n x R F x u 0 , .   ",
"                                # 3 0 0 j f 2 y a a J >.;.r.m.b.v.b.8.b.m.t.b.8.b.c.8.n.c.7.M.g.f.B p i y k n I g F R R K ,   O ",
"                                @ > o.O.7 m G. X;XE F i.4.r.q.t.7.v.b.8.t.m.8.b.8.v.v.b.M.<.9.g.h.V H C.y y t f y x y u 5 4     ",
"    +   X           . X X       . 8 ,XhX9XgXsXhXiXQ A u.5.5.4.;.6.7.b.e.t.t.e.v.c.n.c.v.b.9.,.f.k.V k.3XP.P.!.V.m t g O.z $   O ",
". %   o     % = = q X.=...q X & @ e hXxXzXzXgXdX2XA A D h Q 5.V y.v.8.6.t.M.v.<.n.x.c.8.r.q.p N A h H (.eXkXlXgXsX:X:X,XI % O O ",
"    - 4 4 r ..*.@XNXNX-X=XnX}.X.e W .XuXzXjXfXlX0XA y A ).wX_.Z 6.8.t.6.t.t.8.6.7.c.8.t.g.4.V 5XgX( f 3X3XsXgXzXhXhXfX:X' $     ",
"= r ..*.-XBXNXtX*XSXLXKXJXBX*XmXtXoXL.^ ` U.uXhX,Xh d.k.).W.z.V 2.8.y.6.t.y.7.7.c.7.7.t.q.4.h l.R m h R.0XxXfXxXgXgXiX:XT.3 .   ",
"| CX*XnX@X*X=XBXAXAXSXCXGXKXKXKXGXMX-XtX-XU.o.! @.7 T.Q C.5.N N 2.t.y.:.y.t.7.<.8.7.<.b.9.;.B E T.L < E.4XgXlXfXlXaXpX3XI.> . . ",
"4 ..BX-X=X@X}.}.oX$X=X=X%X%XmXCXLXKXKXGXSXvXBXrXXXS.Y z n F C.C D 9.g.9.9.0.e.:.8.7.<.g.f.Z C F A.0 3 T.,XsXxXkXdXsXqX3XR.1 . . ",
"  = | *X*X%X=X{.`.&.&.].+X%XbXcX%X&XCXAXKXKXLXLXBXnXNX#XJ.+.c c S >.p.4.4.f.q.:.y.0.9.j.;.B s.F L 5 u E.0XkXdXkXaXkXeX_./.2 @   ",
"+ X * r @XvXvXmX$X%X%X{.&.&.'.].oX&X*X=X$XBXZXJXKXKXLXAXBX7X7X XA.H C G ( i.p.4.4.j.4.u.u.N a._ Y 5 < T.4XkXkXkXaXkXqX2XE.< @ . ",
"      o r [.CXmXCX*X%XcXcXcX$XOX`.%.%.[.}.%X%XcXcXbXJXLXKXKXAXyX7XyX<XU._ x c H d.u.Q ( h ( c A.L 3 2 E.0XkXkXkXkXwXwX(.E.> .   ",
"X         = &.mXvXZXCXcXcX&X%X%X%XvX$X{.].=.-.].[.bXbX$XnXnXGXKXKXLXAXBX7X8X XF.k f / ( u E b D.l < y (.3XaXkXwXkXkXwX:XT.; . o ",
"        +   = ..=XvXBXAXAXAXZXBXBXcXcX%X$X=X$XOX[.'.&.`.{.@X&X-XmXHXLXKXKXLXSX8XyX8XJ.) c U L J.k _ V.2XeXaXkXkXwXkXqX>XA.$ . o ",
"  o     o o   - | $XCX%X&XmXvXCXCXZXCXGXBX*XNX=X&X@X&XoX[.`.%.`.OX+XbXcXnXGXKXKXFXDX8X8X8XE A.B.c G.>XeXeXkXwXkXkXkX0X,X' # * o ",
"                + 4 { %.].@X=XnXnXbX=.=.=.^ |.VXnXAXnXnXbXbXbX+X].'.&.'.[.oXcXnXAXLX .Y _ K B.E n K.4XpXaXkXkXaXdXdX4X,XI @   o ",
"X     X   X X     - + X = 4 4 T +.+.#.#.0 6X~ #.U.#XnXAXGXCXnXCXMXcXbX$X}.`.&.&.`.T oXJ.U.+.a L x R.4XkXaXwXxXaXdXgX4X:Xk .   o ",
"    X       X   .     -   .   4 A.E T.C.( F.V.f A.Y |.nXnXnXHXMXZXCXCXMXvXbX%X%X[.| -...+.K L U f E.iXaXaXaXkXlXdXdX4XQ.2 #   o ",
"        X         .       . . @ B.B.gXQ.Z.0X:XV.A.E Y =.}.+XvXnXvXnXmXBXCXGXZXCXnX..-... .L L L 2 ] qXpXlXkXaXsXzXsX:XG.2 5 @ . ",
"                              . I R.,XR.Q.2XQ.!.:X_ u L e w w | %.|.@X*XBXmXvXBXAX`.T  .~ U x f t a.0XzXkXwXkXaXxXfX<XB.L j : @ ",
"                                ; ! A.A.;X0X:X:X:Xf < z 5 0 T w e e T e | $.L.@XnX7X#XJ.Y b R c x ;XhXsXkXaXwXxXdX0X9XL L a K : ",
"                                . @ ; > ! ! U ) I 6 0 z r q & q w K e , 4 0 8 q 5 Y +.#.K E / U B.2X4X1XeXkXaXfXfX,X;Xc L L _ u ",
"                                  . X   @ @ ; ! ` 7 1 9 8 q q q K l 3 2 1 7 8 8 2 3 1 L P S.! ! c H.!.P.(.3X(.3X0X:X_ _ L a Y 6 ",
"                                      . . @ ; o.<XT.W ! ! ! W M u 1 ] V.l.l.I.I.l.a.m m W T.v v E y ( Q V.I.H.G.K.A.3 _ a a a : ",
"                                +     % . . ; O.<X<XW W ] ] W ] / m ,X/./.(.(.(.>X/.V.W v @.W [ ' h !.<XD.( f > > : 6 K w 6 ; @ ",
"                                        . . ; ` #.[ m F.I.l.Z.] W W <XT.R.R.R.D.l.[ ! m ) ) ` S.S.v k U O.` 4 # . . = % = @     ",
"                                  o +   . . . ; , 1 1 ` I.L.Z.[ n 7 1 7 1 1 8 1 6 > > 8 ` W S.S.) 0 ; $ . . .     o   *   o   o ",
"                                o o O O     . . . . $ 8 v ] F./ 7 : @ @ @ @ . . . @ . , 0 K O.v v , . @ . . X     o o O o o O   ",
"                                O * o   o     .   $ $ 0 ` ` ` ! K @ . @     o   +   %  . Xl S.@.v , .   .     o o o   O       O ",
"                                X       o     . $ 9 o.@.! ! S.` 0 . . &   O X o O     q S.l ' ! I.^ 8 & . .     X         O     ",
"                                  + X     . . @ 9 #.U.S.S.S.@.! P *.=.=.L.L.=.*.=.Y.=.^ P @.Z.I.I.T.` 9 . . . .         X X     ",
"                                @   . 4 ^ $.U.Y.K v ` @.O.` [ ! v rXuXrXuXtXtXtXuXrXtXo.v [ [ [ ` [ ^ 8 .X X*.X.q &         %   ",
"                                . % %.7XVXuXuXuX=.! 8 8 M 8 8 v #.uXrXuXuX6XuXtXrXrXuX X! 8 8 v 8 v v q #XrXyXBXBX|.q X X X X   ",
"                                  o r [.-XtXuXtXtXuXrXXX.X.X.XuXtXyX7XyXuX6XuXtXyXyX-XuXuX6X.XU.U.!.6XuXyXBXBXBXoX$.+       - o ",
"                                o o o   O = { X.L.L. XXXtXyXyXrXBXtXVXyXyXuXyXyXrXVXyXtXtXtXBXuX.X.X X*.%.| r +         O o o * "
};
