/* XPM */
static char *_950_134e1de23b184086bd90af24f8895dc947affc47e386cac66205b851ac887fa9[] = {
/* columns rows colors chars-per-pixel */
"64 64 249 2 ",
"   c #010001",
".  c #0B0101",
"X  c #01020A",
"o  c #0C030A",
"O  c #0C0A0B",
"+  c #060906",
"@  c #140201",
"#  c #1B0200",
"$  c #130A03",
"%  c #1C0B01",
"&  c #140C0B",
"*  c #190809",
"=  c #191307",
"-  c #1B1314",
";  c #1B1914",
":  c #1A1819",
">  c #0E0913",
",  c #230C01",
"<  c #270601",
"1  c #360B00",
"2  c #281508",
"3  c #3D1C02",
"4  c #361808",
"5  c #271818",
"6  c #361B17",
"7  c #3B2407",
"8  c #3B2619",
"9  c #2E2910",
"0  c #301B22",
"q  c #292525",
"w  c #372927",
"e  c #3A3735",
"r  c #392F2F",
"t  c #421C03",
"y  c #4B1C03",
"u  c #471907",
"i  c #531C00",
"p  c #5C1B00",
"a  c #421F17",
"s  c #561C10",
"d  c #671900",
"f  c #731A00",
"g  c #442302",
"h  c #49260A",
"j  c #53260C",
"k  c #522B0D",
"l  c #592706",
"z  c #492816",
"x  c #542C13",
"c  c #532D1A",
"v  c #572916",
"b  c #4A3317",
"n  c #583419",
"m  c #5A320F",
"M  c #682804",
"N  c #772903",
"B  c #6A3307",
"V  c #7A3606",
"C  c #633616",
"Z  c #783A16",
"A  c #602F11",
"S  c #452824",
"D  c #493727",
"F  c #573A28",
"G  c #463B38",
"H  c #573631",
"J  c #653A27",
"K  c #683627",
"L  c #58411B",
"P  c #7A431B",
"I  c #6D4013",
"U  c #5B4629",
"Y  c #5A4535",
"T  c #4A433C",
"R  c #674728",
"E  c #7A4525",
"W  c #654938",
"Q  c #685439",
"!  c #765938",
"~  c #715230",
"^  c #7A623D",
"/  c #483F44",
"(  c #4A4544",
")  c #554A4A",
"_  c #5C5856",
"`  c #53504D",
"'  c #675645",
"]  c #795B45",
"[  c #655B59",
"{  c #664E47",
"}  c #786347",
"|  c #706352",
" . c #5B5D67",
".. c #686669",
"X. c #756D6B",
"o. c #6D7379",
"O. c #787779",
"+. c #6D6E73",
"@. c #61605D",
"#. c #883906",
"$. c #963C05",
"%. c #883C14",
"&. c #973E13",
"*. c #8A2C00",
"=. c #A53F00",
"-. c #99430B",
";. c #894519",
":. c #974717",
">. c #8F500E",
",. c #A34304",
"<. c #A94808",
"1. c #B74D04",
"2. c #BA540C",
"3. c #A64A17",
"4. c #B74E14",
"5. c #AB5316",
"6. c #B2541A",
"7. c #BC5C1A",
"8. c #B75616",
"9. c #874926",
"0. c #954A22",
"q. c #86522A",
"w. c #985528",
"e. c #985B32",
"r. c #875834",
"t. c #A85628",
"y. c #B75A25",
"u. c #A85C33",
"i. c #AB572B",
"p. c #966436",
"a. c #B9632A",
"s. c #A96435",
"d. c #B0732E",
"f. c #A06815",
"g. c #C4560C",
"h. c #C45A15",
"j. c #C6682A",
"k. c #C96122",
"l. c #865C46",
"z. c #856848",
"x. c #856B59",
"c. c #8B7755",
"v. c #987658",
"b. c #926D4B",
"n. c #B0764D",
"m. c #8A776E",
"M. c #A77E6B",
"N. c #C67C53",
"B. c #98825A",
"V. c #A78858",
"C. c #B8895A",
"Z. c #9C8163",
"A. c #938578",
"S. c #A88667",
"D. c #B48965",
"F. c #B49167",
"G. c #B29073",
"H. c #BDA56E",
"J. c #C69C77",
"K. c #CF946B",
"L. c #C6A769",
"P. c #D5AC6B",
"I. c #D8B368",
"U. c #C9A77A",
"Y. c #DAAA7A",
"T. c #D5B378",
"R. c #CBB067",
"E. c #E7A679",
"W. c #EEB070",
"Q. c #E09B52",
"!. c #FFC876",
"~. c #7A7C85",
"^. c #867F82",
"/. c #7C848A",
"(. c #8B8987",
"). c #898E96",
"_. c #959290",
"`. c #A8988E",
"'. c #A8A597",
"]. c #B1A096",
"[. c #969CA5",
"{. c #9BA4AA",
"}. c #A5A5A9",
"|. c #ABADB4",
" X c #ADB5BC",
".X c #AEB5BA",
"XX c #B3B6BA",
"oX c #B3B9BD",
"OX c #BCBBBC",
"+X c #B6B3B5",
"@X c #B6B2A7",
"#X c #A79EA3",
"$X c #D39C84",
"%X c #CAA984",
"&X c #DAAA86",
"*X c #DBA994",
"=X c #DCB495",
"-X c #D2B290",
";X c #E5AB89",
":X c #E7B88C",
">X c #F4B887",
",X c #E9BA96",
"<X c #EDB091",
"1X c #C5B8AC",
"2X c #CABCB8",
"3X c #D3BCB0",
"4X c #E1BCAA",
"5X c #BEC3AF",
"6X c #F7C79C",
"7X c #FED79C",
"8X c #EFC596",
"9X c #CBC4B4",
"0X c #C7C4B9",
"qX c #D4C7BA",
"wX c #CFC1AD",
"eX c #EBCAAA",
"rX c #F6C9A4",
"tX c #FED4A5",
"yX c #FDDBA5",
"uX c #FEDBAC",
"iX c #F8D6A9",
"pX c #FDDCB4",
"aX c #F8D8B3",
"sX c #EACCB6",
"dX c #FEE2AB",
"fX c #FBE2A7",
"gX c #FFE3B2",
"hX c #FFE6BA",
"jX c #B7BCC1",
"kX c #C4BEC2",
"lX c #BDC3C6",
"zX c #C3C4C4",
"xX c #CBCACC",
"cX c #C7C6C7",
"vX c #D8CBC3",
"bX c #CBCDD2",
"nX c #C5CED3",
"mX c #CAD3D8",
"MX c #D4D7DA",
"NX c #D4D2C6",
"BX c #FFE7C2",
"VX c #FFE6D0",
"CX c #DCDDE1",
"ZX c #DDE4E5",
"AX c #E4EAEC",
"SX c #ECF4F4",
"DX c #F7FAFC",
"FX c #E9EEF1",
"GX c #EBDED0",
/* pixels */
"                                                                                                              O q 5   O   +     ",
"                                                                                                      O     O w #X~.:   +       ",
"                                                                                                    O     O : _.zXOX( >   +   + ",
"                                                                                                  +     o : ~.zX+X+X}.q +       ",
"                                                                                                    +   : _ xX+X|.+XcX+.-       ",
"                                                                                                      O ( zXOX+X_.+X+XOXe >   + ",
"                                                                                                    - e jXOXbXXXO.|.cXlX_.: +   ",
"                                                                                                  . q }.jXAXxX}.+.+XnX+XxX[ & . ",
"                                                                                                . q _.OXAXZX X{.+..X+XMXOX+Xe   ",
"                                                                                                O r OXcXDXlX X[.+.XXoXbXcX0X@.; ",
"                                                                                                & e MXNXDX.X X/.o.lX|.nXxXzX..5 ",
"                                                                                                + G cXbXDXoX X/./.lX|.MXcX2X( $ ",
"                                                                                                & G zXMXSXlXjX/.). XXXCXjXcXw . ",
"                                                                                                & G xXbXDX X X~.). XlXmX+XzXq . ",
"                                                                                                & G vXMXDX X Xo.[.jXlXmX+X}.5 . ",
"                                                    .   .   .       . . . . . . .               - T zXMXSX X Xo.{. XlXbX2X_.5   ",
"                          X         +   X X o     . @ # @ , < @ . @ # < u 1 1 3 1 # @ .   X X X * ( zXMXSXjXjX .|.jXcXmXkX+.-   ",
"X       X                       .         . . @ @ 1 y Z E q.9.9.y x Z r.u.s.u.;.Z m 1 * . X X + - ) xXMXSX XjX .{.jXnXnXkX[ >   ",
"                                +     . # 1 t j y 0.t.a.y.8.8.6.3.i.y.6.<.7.8.7.y.s.9.u @ .     = ` cXCXFXXX X .jX XmXcXkX( O   ",
"                                  X + , c K 9.;.;.a.8.2.1.7.h.8.y.6.8.7.,.2.8.8.y.i.%.u < @   + & ` lXCXFXjX}. .jX XmXjXcXw +   ",
"                  .             X X @ u 9.e.0.;.t.:.-.,.<.6.a.y.0.&.*.d N -.>.t.0.9.Z v 4 .     & _ cXCXFXoX[.+.jXjXMXOX2Xq     ",
"                        .   .   X . 1 Z :.:.#.:.#.;.>.N N *.V M %.n.K.n.s.w.p i B E K 4 # .   . @ [ lXZXAX.X[.~.jXjXbXkX#X5     ",
"                                . 3 %.y.2.=.$.-.:.;.>.V -.;.B K ,Xn.u.9.e.K.<X$XG.M.H * . o X . * [ lXZXAX.X_./.|.lXbXjX^.5     ",
"                                , A i.h.1.<.,.*.N B B ;.w.Z l D.E p.e.Z p.0.9.J.S.] 5 . o . X > 5 [ OXZXAX.X)./.jXlXnXkX+.;     ",
"    X .     X         X     +   % j t.3.8.,.d N.*X,X&X9.%.;.i *Xr.;.e.p w.e.%.! F W = .     +   5 [ zXZXZX|.~.).jXlXnXjX_ > X   ",
"o   X     . X X X       +       # i 0.j.4.N N.;X*Xl.z.,XK.3.Z &XY.M N d Z i E b.h , =     +     - ..lXZXAXjX~.[. XmXnXlX/ >     ",
"  . . X X X             +     . 4 9.i.6.&.f N.<X$XM.P w.W.E.E.;XE.<X*XA n.k G.M.< @ . . +   + + * X.jXAXCXjX+.[.lXmXlXlXr .     ",
"X X X . .                     * v Z 3.i.3.N %.$X<XK.Y.Y.W.E.>XE.;XrX$XJ.,XhXaXsXD 4 @ @     + + - X.jXFXCXjX+.{. XmXlXjXq       ",
"            . . . .   . . . @ < i 9.w.t.%.:.Z A E E e.K.;X>XK.6X7XyX8XyXhXfXgXaXpX4XY < @ . >   - O.OXSXCXjX .|.jXmXjX{.: .     ",
"X               . . # , 2 2 4 u M f N e.t.0.%.d B ;.:.K.>XE.E.6XY.E T.yXfX7XyXgXBXVXsX0 @ .   O - X.OXSXMX X .|.lXbXjX^.- o     ",
"      + +   . $ 2 2 4 z z c c v :.$.-.-.3.3.*.*.<.7.2.h.a.d.Q.N.P b.8X6XY.V.F.8XuXeX`.2 o   +   5 X.zXSXmX X .jXmXmXjX..- .     ",
"+       . . 4 Y F D z S c n c p -.,.#.5.4.4.=.g.g.g.1.h.1.8.g.7.w.M ;.e.s.n.B l L b 7           5 X.zXDXmX|. .jXmXnXnX` &       ",
"X + +   @ h V.! t z c n h k k l #.-.,.<.h.h.1.h.g.2.h.*.$.7.8.3.6.6.-.-.:.9.9.B r.P b %     X + : O.jXDXmX{.~.jXnXcXxXe . .     ",
"X     @ z G.R l C c x c k j k i :.-.-.$.1.2.2.2.4.k.4.f <.8.,.<.7.<.8.5.t.:.Z n.yXb.k 2 @ O     : A.OXDXMX[.+.|.CXjXzXr     +   ",
"X     2 x.v.l l n n z c K x h i Z ;.&.-.7.-.,.4.y.6.3.f 3.3.3.5.3.$.y.5.:.*.N E.n.V M 1 @       - A.0XDX+X+.` +XbX+X+Xw       + ",
"    O D %Xk m h v n s c F x x j i V ;.>.-.-.$.6.6.y.:.d $.#.#.-.&.3.5.$.f f N d #.#.9.A < . .   5 (.1XX...X...e m.+X_.* . .     ",
"    2 } S.g C m C K c z c z c n C i P 0.#.%.$.*.3.i.:.f N :.:.;.&.&.f M -.-.:.6.=.3.t.9.j @ . $ 6 A.].S '.` [ X.w +Xm.; . .   . ",
"  $ 9 G.v.t n k v C C v c b c c j k i l 9.0.N %.0.&.:.;.d V >.#.f N $.-.#.<.j.5.g.y.i.u.C < % 9 D Q X.F A.Y ' [ b m.Y w $ .     ",
". . 7 -XH.g y p p i u j h h x x z t m i p d 0.d N %.%.;.V M p M :.*.:.5.5.7.7.g.h.h.y.i.9.K ' | ] ] H D D D b F D U b H S - ; - ",
". $ U %XD.3 3 v.M.b.! r.^ } v.B.S.G.J.&X&XM ;.;.d N :.w.d.n.d.V &.i.6.8.7.2.1.g.g.g.y.u.Z a Y Y ] R U c F x b z F Q c.X.m.X.X...",
". , ! T.D.g 3 v.:X&XtXgXiXhXfXaXfXdXtXyX>Xd.B >.p d.Q.W.!.W.Q.f.*.i.y.a.2.2.g.g.g.h.y.u.i < @ 2 h F R n x h g c n n z , % * - : ",
"@ , v.T.V.g t v.;X>XuXyXgXiXhXfXfXfXgXtX8Xe.M >.i f.d.d.f.>.>.M N y.6.6.h.g.1.k.g.k.3.N y 1 % % z.=XR 3 R ! b.v.S.v.Q # @ .     ",
"# 7 J.T.V.3 t b.Y.>X7X7XdXfXfXhXaXhXiXrX<Xq.Z Z ;.B l B I >.>.>.N :.y.y.<.=.g.1.,.&.*.p S.G.A.H v.v.3 F.pXaXpXpXBXBX-X8 @ .   o ",
"% W T.Y.V.7 3 l.<XW.7X7XdXfXgXiX=XU c n K s v j l l i M M B 9.P M #.3.y.4.=.2.<.$.M ;.m :XBXaXG.x ! h G.&X%X8XrXpXpXeXz .     X ",
"4 c.T.P.F.7 3 ] ;XE.6X7XfXiXuXb.j J s u K s K v l A q.U.<XD.n.9.Z M &.u.&.=.7.3.d M I L T.iXeXsX%Xz v.U.%X=X:XuXuXiXeXU , $ O   ",
"4 M.P.P.L.7 1 ! ;XE.6X7XgXaXp.k C 1 v K v s s c x m :X=XY.n.M 9.n.C.e.N &.&.&.3.M &XS.~ V.fXBXpXaXh eXhXiXpXdXiXhXuXeXW %     X ",
"1 } P.I.L.g 4 W <X>X>X7XhX].1 x j j j v v u H v R :XgXyXrX,XrX6X8X6Xn.N &.&.3.%.y ,XaXhXfXfXuXtXS.b 7 z.V.V.6XpXtXuX%Xb . . X X ",
"% R P.I.L.g 6 H *X<XE.8XeXL x l y m n u v J v y %XhXiXdXgXyXtXdXyX,Xn.N t.&.0.%.l D.aXgXdXyXuXF.v.M.z.hXaXBXuXpXpXaXS.2 .       ",
"$ h I.R.L.g 4 6 H v.=X=XG.s x t A K y v C v g V.iXgXfX7XdXfX7XdX,Xn.A A Z E E Z C C ;XrX7X6X7Xp.rXv.b ] v.S.G.S.3X1XY .     +   ",
". 8 R.I.L.h 4 6 2 6 a l.{ K h h F v y C C y m ,XuXyXdXdXfXfXfXdX,X,XA u z c 4 u y D.,X;XE.:XY.D.G.] z H J W D a ] { 2 . .       ",
"@ 8 H.T.J.g 6 0 6 6 2 a 6 a 6 z J c u C K t E rXpXuXuXuXtXyXiX8X=XG.a c a S a 6 4 x.v.M.G.%X-X4XW S F W W { H F 6 2   . .       ",
". 9 H.T.J.u 6 0 5 5 6 4 S S w S a a s F J j l.*X*X,X,XrXrXpXrX&XM.a a S 0 S G 0 0 < # 4 1 2 4 4 6 2 S 8 8 6 8 w 5 @ .         + ",
"@ 4 U.T.U.t 6 0 5 6 2 6 0 G 0 S w D z z a 4 ] S.$X*X*X*X*X*X$XM.K 6 z 5 5 r r 0 0 5 o @ @ . . . @ # 8 G { S w * @ . .     X     ",
"< 7 U.P.L.l 4 4 4 4 2 7 6 S S S 8 r D S z 1 4 3 1 z z k x j y t 4 S 4 8 5 w q 0 5 5 .   .     . . . @ * 0 @ * . .   . .   X   X ",
"# t R.I.I.C.F.F.F.V.V.B.S.v.l.a L 9 8 w z b b b n 7 g n n k k b b U 9 w = & ; - ; .   &         .   . . . . . @ o . .     X X   ",
"# g L.R.L.T.T.%XH.H.F.B.Z.S.M.t U Q B.B.c.B.B.c.c.b L z.b.c.v.c.c.x.Q = .       +                 . .     o             X       ",
"  ; = = 9 9 8 8 9 = = = $ % = 2 7 L L L Y } Q h 9 9 b L U Q ^ Q U 7 7 %   .       .           X           .                     ",
"X + + +     +     +     +   . % 8 R | c.B.} ! U 7 9 b Q } c.c.B.~ 8 % @ . .   .       . .             + O                       ",
"> X X >     o .   . . . o @ * 6 b ~ b.v.c.^ ! ~ ^ ^ ~ L L ^ ^ Q ! } | ' U = $ $ $ + . +   +     +           O                   ",
"X X   + r ` ) m.m._._.].].1X`.z U R ! ! ^ ! ^ } ~ ! ^ U b L ~ } ] ! Q ' T T m.vX9X9XwX@X@X].`.(.O.X.@.` e =                     ",
"X ; (.NXlX0XqX1X9X9X0X0X0XqXwX' Q Q Y Y H W Y F Y Y Y Q Q Q W W Q Q Y Q ' ` A.9XqX9X9XwX9XqX9X0XqXlXcX5XOXxX[.q                 ",
"    + : e _ X.A.A.`.'.@X0X@X3XvXqXqXvX0XqX2X2X2X9XqXvXqX3XwX0X9X1XqXqX9X5XNXqX0X0X0X9X9X9X@X'.'._.A.+._ ( q +                   ",
". .     o   . . + =   + + + & 5 ; ; q q r e G T T r e ( T T T T U r e e e q q : : - & $ .     .     + +       X   X X           ",
"  + X X X X o   +     +   X .     + +             . .           .   o X X X + + .     .       .   +   +   . X   X               "
};
