/* XPM */
static char *_0892_f9fb88bb68449b2addcd3010db56890a76743e294a6375dfe730e8ef99b4c94b[] = {
/* columns rows colors chars-per-pixel */
"64 64 238 2 ",
"   c #010101",
".  c #090502",
"X  c #040900",
"o  c #0B0B02",
"O  c #01010A",
"+  c #0D0B08",
"@  c #110D02",
"#  c #120E0A",
"$  c #0D1300",
"%  c #0E1B00",
"&  c #111303",
"*  c #141B01",
"=  c #191E05",
"-  c #14140A",
";  c #17190C",
":  c #1C1E0B",
">  c #181500",
",  c #070211",
"<  c #191511",
"1  c #1D1D12",
"2  c #1A121D",
"3  c #201E0E",
"4  c #221E12",
"5  c #271F18",
"6  c #1C2105",
"7  c #1C200A",
"8  c #1E2E00",
"9  c #1E2111",
"0  c #212400",
"q  c #252C00",
"w  c #21220E",
"e  c #2B2B0D",
"r  c #28290B",
"t  c #2D3502",
"y  c #2D3800",
"u  c #2E350C",
"i  c #2E390B",
"p  c #333604",
"a  c #323A03",
"s  c #33350D",
"d  c #39350C",
"f  c #343B0B",
"g  c #3A3A0A",
"h  c #232213",
"j  c #2A2516",
"k  c #2C2A14",
"l  c #26231B",
"z  c #2B251B",
"x  c #2C291B",
"c  c #27291C",
"v  c #31261C",
"b  c #332B1D",
"n  c #362D17",
"m  c #2F3512",
"M  c #2E3716",
"N  c #323513",
"B  c #3A3514",
"V  c #343B12",
"C  c #3C3C13",
"Z  c #33331C",
"A  c #3B341D",
"S  c #3C391A",
"D  c #281E27",
"F  c #2B2521",
"G  c #2E2822",
"H  c #342C22",
"J  c #3A2F24",
"K  c #363123",
"L  c #3C3324",
"P  c #3C332A",
"I  c #393826",
"U  c #41381D",
"Y  c #443C0B",
"T  c #413425",
"R  c #4B3D26",
"E  c #41332A",
"W  c #453A2B",
"Q  c #4C3D2B",
"!  c #473925",
"~  c #4B3E30",
"^  c #443B34",
"/  c #364102",
"(  c #394302",
")  c #3D4D02",
"_  c #394308",
"`  c #3D4A0C",
"'  c #374708",
"]  c #3D5200",
"[  c #3F4D13",
"{  c #3B4318",
"}  c #424D03",
"|  c #444D0B",
" . c #435301",
".. c #4C5C01",
"X. c #43520B",
"o. c #4A550B",
"O. c #4C5A0B",
"+. c #475801",
"@. c #505E08",
"#. c #434D12",
"$. c #434C1A",
"%. c #4A4C1D",
"&. c #46451A",
"*. c #524717",
"=. c #445114",
"-. c #4D5612",
";. c #48511A",
":. c #555718",
">. c #6C581D",
",. c #4D6100",
"<. c #546902",
"1. c #5C6D02",
"2. c #596A0A",
"3. c #5D7201",
"4. c #5D7900",
"5. c #5D6A13",
"6. c #5B671A",
"7. c #636D03",
"8. c #636C0B",
"9. c #637403",
"0. c #657B01",
"q. c #6C7D01",
"w. c #62730B",
"e. c #6D7D09",
"r. c #6A7608",
"t. c #727B09",
"y. c #787D08",
"u. c #646B14",
"i. c #64651C",
"p. c #646C1A",
"a. c #686717",
"s. c #7A641E",
"d. c #6C7C14",
"f. c #677616",
"g. c #747D13",
"h. c #7A7D13",
"j. c #7B741C",
"k. c #7D7B1C",
"l. c #727919",
"z. c #4B4423",
"x. c #4E432D",
"c. c #4A4924",
"v. c #514525",
"b. c #52432C",
"n. c #53492B",
"m. c #595627",
"M. c #4E4231",
"N. c #524433",
"B. c #544836",
"V. c #594A36",
"C. c #5B5034",
"Z. c #4B5322",
"A. c #685B27",
"S. c #665B2C",
"D. c #6A5B2C",
"F. c #665A28",
"G. c #755A2C",
"H. c #645534",
"J. c #6E5636",
"K. c #665C33",
"L. c #6B5A33",
"P. c #63543B",
"I. c #6C5A39",
"U. c #6F5638",
"Y. c #725535",
"T. c #735C34",
"R. c #705939",
"E. c #5A662A",
"W. c #5F6632",
"Q. c #656323",
"!. c #6A6124",
"~. c #64622A",
"^. c #676925",
"/. c #746C2C",
"(. c #786827",
"). c #697625",
"_. c #7C7623",
"`. c #7B7C23",
"'. c #7C752B",
"]. c #747C2A",
"[. c #7C7A2B",
"{. c #767824",
"}. c #696633",
"|. c #7D6B33",
" X c #7A6737",
".X c #747333",
"XX c #7C7636",
"oX c #6E7734",
"OX c #635342",
"+X c #695A41",
"@X c #7B6640",
"#X c #7D7E42",
"$X c #817C16",
"%X c #827C1B",
"&X c #866E2E",
"*X c #837426",
"=X c #827B22",
"-X c #84732B",
";X c #817A29",
":X c #8A762A",
">X c #836D34",
",X c #8A673E",
"<X c #866B3B",
"1X c #8A6C3C",
"2X c #886938",
"3X c #847235",
"4X c #887237",
"5X c #8B6B43",
"6X c #866742",
"7X c #8C7146",
"8X c #6D8200",
"9X c #6E8B01",
"0X c #6D820A",
"qX c #698706",
"wX c #738503",
"eX c #7A8502",
"rX c #758A02",
"tX c #7A8B02",
"yX c #74850B",
"uX c #7B830C",
"iX c #758909",
"pX c #7B8B0B",
"aX c #6C8213",
"sX c #758414",
"dX c #7B8213",
"fX c #768912",
"gX c #7C821B",
"hX c #788A1A",
"jX c #7D9302",
"kX c #7B8323",
"lX c #7A8537",
"zX c #818D0A",
"xX c #818315",
"cX c #828A15",
"vX c #809111",
"bX c #819609",
"nX c #848430",
"mX c #818141",
/* pixels */
"                                          O O         . X $ % ,.iXpXwXwXpX0.8 % X X                                             ",
"                                                  X   X t E.kXyXiXq.eXvX0XhXf.6.t %                                             ",
"                                                  o o q 6.hXsXyXpXwXrXpX8XhXd.p.E.{ &                                           ",
"                                    O         X X   ;.lXkX0XsXiXuXpXq.q.wXsX1.2.^.E.{ *   X X                                   ",
"                                O   O O           6 ^.hXqXrXiX8Xq.rXq.7.9.0.8.2.@.E.Z.6     .                                   ",
"                                O O O         X X oXhX0.bXwX9XrXeXq.q.q.4.0.d.+. .o.#.q $     O         O                       ",
"                                O O   X       $ / {.sXpXwX8XjXrXtXq.wXrXiXfXhX . .) } _ 0 X   O                                 ",
"                                O           X * kXaXqXtX8XtXrXrXwXpXtX8XpX0Xe...] } o.| u $     O         O O                   ",
"                                O   X       * -.w.0.wXrXrXwXwXwXeXrXrXrX8XhX9. .+.)  .o._ *   O         ,     O                 ",
"                                        X X 8 5.9.q.8XiXiXrXtXrXeXrXrXeXwXsX<.+.) } } | / 6 X                 O   O             ",
"                                X X     * a O.d.0.q.wXyXrXrXrXwXuXwXrXtXwX8X.. .} | ) / a u 7 -     X                           ",
"                                        q E.d.0Xq.0XqXyXrXrXyXiXuXwXtXtXwX0X .( ` ` ( t y f Z h &           .   O               ",
"                                      $ y 5.aXyXiXiXwXiXrXrXiXyXwXrXrXrXrXyX} a V V t t t t N Z c $                             ",
"                                X   X q -.2.0XpXiXiXrXrXrXrXiXiXiXuXtXwXwXsX) t m m i f a y t m I 7                             ",
"                                O   X a f.w.0.8X8X8XwXwXwXrXwXiXuXuXtXrXrXyXa f M Z M f a a a s M c ;                           ",
"                                  X 6 O.aXr.0.4.0.0.0.8X8XwXwXuXpXwXtXtXiXf.y f Z Z M q t a f i m I k X           O             ",
"                        X         X / ].hXiXqX0.qX4.<.4.q.t.dXuXeXeXuXfXg.5.y f i N s s i i i m N Z b h . .                     ",
"    O   O                         $ ( l.fX9X8XrX0X0XqXe.uXgX$X$Xy.h.h.kX].:.t t p p s f s i m M Z A L K < .   .                 ",
"                                $ } `.hXtXeXtXtXeXiXuXuXk.*X-X-X*X;X'.XX.X#.p p g s s s N N N N A Z I I l # .     O             ",
"      O                     O   X o.k.t.q.wXrXrXrXeXeXuX$X*X>X2X4X1XXX X Xg g d g s d B B B A n A A I P v 3 + O                 ",
"                                q O.u.t.cXzXeXzXtXeXeX$X%X-X5X7X6X5X<XR.H.d B B B B B U n T A J L L P L x l < .                 ",
"              O   O             #.5.f.9.eXwXq.wXrXtXeXeX$X*X1X7X,X5X5X@XC.U A U S A L U T T E T L L L x l H 5 # .               ",
"              O     O         X O.aXfXqXqXrXtXtXrXrXtXeXy.$X*X&X2X2X6XT.R U K P P P P P E E E T L L b x z G l #                 ",
"                O O O       X % 2.qX9X9X9XrXwX9XwXwXrXeXzX$X=X*X:X&X>XF.B L G P P P P E J E E J I A b x x v l < .       O       ",
"              O   O O   .     }.hXqX9X9XrXwXrXuXyXsXyXsXh.k.%X:X:X&XA.*.d B K K K P P I L J A T L z j j x x l F #     .     O   ",
"            O   O O   .   . & }.hXqXtXtXeXy.t.l.`.`.kX`.`.k.j._.&X&X>.Y p n Z Z Z H K L L A A Z j h 4 4 j h l l #     .     O O ",
"              O O     o     g oX[.xXxX%X%Xj.(./. X/./.'.*X=X_.-X4X}.*.Y s m m m m N N B S A k j 3 : : 4 h 4 h h >               ",
"                O O   . .   ~././.(.(.(.s.s.G.T.@X|.XX'._.`.%X_.3X~.%.U f m u u s d s d N N r = 3 3 4 : : : : 7 ; @           O ",
"  .           O   O   .   0 ^.(.<X1X1X2X&X1X5X5X<X3X=Xk.xXxXxXk.Q.m.%.{ V u u u d d e d m k 7 ; : : 4 7 7 ; 7 : 7 - o         O ",
"                        & :.:.{.|.<X2X<X,X,X6X2X|.[.k.h.uXwXe.8.o.#.#.` V u u k e j n j r 7 9 1 : : 7 : 6 7 7 6 7 1 $           ",
".                     o &.XXu._.3X1X1X,X,X,X6X X'.`.h.q.0.3.,. .+. .` _ i r h k v j z v l h 1 9 : 7 : : 6 7 7 7 7 9 $           ",
"O   .           O .   & #X[.nXj.3X<X>XY.G.Y.Y.G.Q.u.7.3.1.3.<.,.....+._ u r j x G D v z l l 1 1 9 9 7 : 7 7 7 6 ; 9 &           ",
"O             O     $ 0 `.gXh.=X1X5X5X5X6X<XT.F.A.i.u.8.3.3.3.3.1.5.o.g u j l l G l x j j h 1 : 1 : : : : : : h h c l 1 X     O ",
"O   .       O O     = .XkXk.h.=X4X1X5X1X5X XG.A.A.F.Q.i.u.2.1.9.8.p.:.g e l F G F l j x x h 4 1 : : : 1 : w h h l c F c 1 +     ",
"            O O     o mX_.k.$X%X-X-X3X3X3X XG.F.S.K.~.!.i.i.u.8.u.^.:.p e x F G F F x k k h h 4 4 : 3 7 : w h h h c c F F 1 o   ",
"                . . > ^.'.`.=X%Xk._._._.'./.A.A.S.L.K.K.S.!.A.Q.:.^.m.s j G F F F j k j x l j h 1 : : : 7 w h w h 9 9 9 9 9 -   ",
"                  @ &./.[.%X%XxXdXsXdXdXj.a.a.Q.F.L.L.L.J.L.D.F.F.S.%.n j v z 5 v z j v x l l l 4 : : : : : w 3 ; : : : 1 1 ; . ",
"                . @ :.nXj.%X$Xh.wXiXwXyXr.8.a.s.D.L.J.R.U.J.J.J.~.S.U e 4 v z G z v j z x l F F h 4 : : : : : 6 : : 4 w ; 1 ;   ",
"O O O           > q #.[.l.xXdXpXwX9X8X0.q.7.8.a.!.D.T.J.J.Y.Y.J.P.C.U j v v 5 v z 5 z j x x F l l h : : 3 3 : 3 : : w w ; w ;   ",
", , O O O       * ;.} ..g.yXuXiXrXqX4.3.7.7.8.a.!.D.D.J.U.Y.Y.J.C.n.A v v v 5 v v j j z z F G l h h : : : : : = : > 3 : * w 7   ",
"O , O O O     6 { ` ] +.,.<.4.4.0.4.3.1.1.8.u.i.A.D.H.J.R.J.Y.J.B.W L P J z z v j j j z x G F l 1 1 7 : : : 7 7 6 6 : 7 7 7 : : ",
"    O O O     * ;.[ ] ) ] +.<.4.2.5.u.u.p.i.i.A.Y.Y.H.J.I.J.H.C.W P J T P b z v j z j z x l l l h 7 1 : : : 6 : : 6 6 7 6 : 6 : ",
"            X 6 $.[ ` ] ] ] ] ] -.:.E.!.~.S.S.I.Y.OXOXOX+X+XC.B.E J P P P H v z z j z x x l h 4 : : : 7 : : 7 6 7 : 7 : = : : : ",
"  .     .   $ i [ [ [ =.[ [ ' ' g U &.v.m.C.H.C.OXOXOXOXOX+XV.N.E J P P L L v z j x z x x h h 9 1 : : : : 6 7 7 7 6 7 6 7 7 : : ",
"            3 { %.%.&.&.{ c.$.&.U U U U R z.Q Q Q N.N.N.N.V.Q U P P L J P L b k j j j l k h 7 7 7 : : 7 : = 7 6 7 7 : : : 7 : : ",
"X         + j c.Z.z.%.z.n.x.x.v.x.Q ! R Q R Q Q Q Q N.N.~ ~ ! T J J L L L I K x h h h h h 7 7 = 7 : : : : : 7 7 : 7 7 7 7 3 7 1 ",
"    O , O 2 P x.z.&.v.v.B.n.b.v.N.x.v.v.b.b.b.V.N.N.V.V.V.~ ! T E P P L L I L j 5 4 1 1 7 7 7 = : : : 7 7 7 7 7 : : 7 : 1 7 1 9 ",
"    O , , D ^ M.v.v.v.x.b.b.Q b.v.x.n.n.n.v.v.b.V.Q ~ ~ ~ ~ T T J T T L I L b 7 4 1 : : 7 7 7 6 : 7 : : 7 6 7 = : 7 1 7 7 7 1 1 ",
"O       . 4 E N.b.b.b.b.b.b.b.V.b.b.b.b.b.R R V.Q Q V.V.N.W T A J J P L L P b 4 : : : : 7 7 6 7 7 7 : : : 6 : : 7 : 1 7 9 9 : 1 ",
"  O   . + 5 E ~ V.N.Q V.b.b.b.R v.Q b.b.b.b.V.Q Q V.V.Q Q T T J E P P P P I x 3 : : : : 7 ; 7 7 : : 7 : 7 3 : : : : 7 1 1 7 9 7 ",
"  O O . < J ^ B.~ Q b.b.b.b.b.V.b.b.N.b.V.V.Q V.~ N.Q ~ ! P J T P P P P P K 5 ; : : : : 7 7 7 7 7 = : : = 7 : : 7 7 : 7 : : : : ",
"O       5 P W ~ V.Q Q b.Q b.b.v.N.b.b.b.Q b.Q b.V.N.~ ~ ! J J J J J I I K l : : 1 : 6 : : : 7 7 : : : 7 : 7 : : : : : : 7 : 7 : ",
"  +     F P J T ~ N.N.b.V.Q b.Q N.b.x.x.Q x.M.M.N.~ ! E P P P J P P P K x 3 : 1 7 : 7 : ; 7 7 7 7 : 7 : : 6 : 6 : 7 : : : 7 : 7 ",
"O     . D P P J T ! Q N.V.V.B.N.B.n.b.Q N.B.B.M.~ W J b H J P P P P I G j : : : : : 7 : 7 7 7 7 7 : : : : : : 7 = : 7 6 7 7 7 7 ",
"      . < G K J v v n T W M.M.B.M.M.M.M.B.M.M.~ T v v z v G J P K H b h 3 : 7 7 1 7 7 7 7 7 7 7 : 7 : : : : = : 7 7 : 7 6 7 6 : ",
"O       . < l z v v j v b L W M.M.M.M.M.M.Q T A v j z v x z z x x j 4 : : h 9 ; 7 7 : 7 7 7 7 7 : : : 7 : 7 7 : 6 7 7 6 : 6 = 6 ",
"        O < l G j 5 5 v v j n T L L A A b b v v x x x l j x j l 4 3 3 : 3 3 : 7 7 7 % 7 7 7 7 7 : 7 = : 7 : : : : : = 6 = = : 7 ",
"  O       < 5 F v v z z 5 j v J J A b b v j j v z l j j l l l h 3 : 3 : = : 7 7 7 7 9 9 7 7 7 7 : : 7 : : : 7 : : = : : : : = : ",
"          . < 5 l z G G z v v v b v j j w 4 4 3 4 4 4 h h 7 1 : 3 3 3 3 : : 7 7 7 7 7 7 7 7 7 9 7 : : 7 : = : 7 : : 7 : 7 9 7 : ",
"            . < 5 G G z z v v 5 v j 5 4 3 3 3 3 : 3 4 : : : : : 3 = = 6 : 7 7 7 9 % 7 7 7 7 7 % = : : 7 : 7 : 7 : 7 1 : 7 h 9 - ",
"O             X D F F 5 5 z z 5 x x x l h l 9 h 3 : 3 7 7 7 ; 7 : 7 7 7 : 7 7 7 7 7 7 7 7 7 7 = 7 6 7 7 : : 7 : 9 9 9 ; 1 9 ; X ",
"        .       . < F G G G G F c x G x c j h h 3 : 7 7 7 7 7 7 : 7 7 7 7 7 7 7 7 7 7 7 7 7 : : 7 7 6 7 7 : : : 9 9 9 9 1 ; o   ",
"                  . < 5 z 5 z G j l l c x j h h : : : = 7 6 6 6 7 6 7 7 7 7 7 7 7 % 7 7 7 7 : : 7 7 : 7 : : : 9 9 1 ; ; - $     ",
"                    . . . + 4 G G l c j x c x k : = w 7 6 7 6 6 7 7 7 7 7 7 7 % 7 7 7 7 7 7 : : 6 : 6 7 7 : : : 1 $ X           "
};
