/* XPM */
static char *_f4ce58ba16a4d49927eb2af33eaf2e2pBIExuLGHswMEOgR[] = {
/* columns rows colors chars-per-pixel */
"64 64 200 2 ",
"   c #301C19",
".  c #36221E",
"X  c #3B231D",
"o  c #322424",
"O  c #3D2622",
"+  c #3C2D2B",
"@  c #372928",
"#  c #3E3231",
"$  c #36363C",
"%  c #38383E",
"&  c #442B24",
"*  c #4B2F25",
"=  c #412721",
"-  c #45312B",
";  c #4B352E",
":  c #543229",
">  c #5B362C",
",  c #5D3628",
"<  c #463533",
"1  c #4A3A38",
"2  c #5C3B33",
"3  c #502F27",
"4  c #623A2E",
"5  c #633724",
"6  c #673D31",
"7  c #5A440D",
"8  c #695419",
"9  c #634C13",
"0  c #4D4933",
"q  c #55443A",
"w  c #5C493C",
"e  c #5F5B36",
"r  c #654439",
"t  c #745132",
"y  c #5A6826",
"u  c #3D3D43",
"i  c #423E42",
"p  c #404046",
"a  c #44444A",
"s  c #5B4B44",
"d  c #5B4B49",
"f  c #4D4D53",
"g  c #53535A",
"h  c #585357",
"j  c #664F47",
"k  c #764E42",
"l  c #64594B",
"z  c #655548",
"x  c #745849",
"c  c #6D5F5D",
"v  c #675753",
"b  c #735E58",
"n  c #73624B",
"m  c #6D645F",
"M  c #766A55",
"N  c #796B54",
"B  c #726552",
"V  c #7E7259",
"C  c #5C5C62",
"Z  c #675F61",
"A  c #606066",
"S  c #69696E",
"D  c #64646A",
"F  c #7B6E6B",
"G  c #736563",
"H  c #7D716E",
"J  c #6D6D73",
"K  c #726F72",
"L  c #7A7A7F",
"P  c #757377",
"I  c #8B6B1C",
"U  c #906F1E",
"Y  c #95593B",
"T  c #95563A",
"R  c #824F3F",
"E  c #987622",
"W  c #977536",
"Q  c #91652B",
"!  c #A26537",
"~  c #825040",
"^  c #8B5844",
"/  c #9C614C",
"(  c #986544",
")  c #85775C",
"_  c #946D49",
"`  c #A47757",
"'  c #A8724B",
"]  c #867865",
"[  c #967665",
"{  c #847775",
"}  c #947C75",
"|  c #7EB949",
" . c #BA922F",
".. c #AE892A",
"X. c #C49B34",
"o. c #D0A538",
"O. c #E0B23F",
"+. c #A2894A",
"@. c #BD855A",
"#. c #B78259",
"$. c #B7914A",
"%. c #8E8060",
"&. c #988762",
"*. c #998965",
"=. c #8B807E",
"-. c #938578",
";. c #B78762",
":. c #A2926A",
">. c #AB9A6E",
",. c #A8976C",
"<. c #A2897E",
"1. c #B5977B",
"2. c #AE806D",
"3. c #ACAD7B",
"4. c #B6A271",
"5. c #BDA478",
"6. c #B4AF64",
"7. c #968C52",
"8. c #C09855",
"9. c #E6B841",
"0. c #E1B440",
"q. c #C69A6B",
"w. c #CB976E",
"e. c #D6A877",
"r. c #CAA87C",
"t. c #F1C146",
"y. c #7E7E82",
"u. c #007DFF",
"i. c #107BE4",
"p. c #6184AA",
"a. c #1A83E8",
"s. c #848489",
"d. c #8A8A8F",
"f. c #848184",
"g. c #958987",
"h. c #9B928A",
"j. c #8E8E93",
"k. c #919195",
"l. c #96969A",
"z. c #99999D",
"x. c #9D9391",
"c. c #A79994",
"v. c #A59D9A",
"b. c #B19F91",
"n. c #AB968A",
"m. c #BFAE83",
"M. c #BCA591",
"N. c #9E9EA0",
"B. c #A3A3A7",
"V. c #ACA4A3",
"C. c #A9A8AA",
"Z. c #B4AAA6",
"A. c #B7ACA7",
"S. c #AEAEB1",
"D. c #B5B5B5",
"F. c #BABABC",
"G. c #BAB5B4",
"H. c #B0AFB1",
"J. c #C29C89",
"K. c #DDAD82",
"L. c #D3B184",
"P. c #D7B696",
"I. c #CBAF94",
"U. c #E5B689",
"Y. c #ECBF92",
"T. c #C0AFAA",
"R. c #D5BBA8",
"E. c #C5B9B5",
"W. c #D6BDB5",
"Q. c #C4B7AF",
"!. c #EFC193",
"~. c #EAC098",
"^. c #DCC2AB",
"/. c #D4C8B7",
"(. c #EAC8A9",
"). c #F2CBA5",
"_. c #E1C8B4",
"`. c #BEBEC2",
"'. c #C3C3C4",
"]. c #C9C9CC",
"[. c #CAC7C7",
"{. c #D2CECE",
"}. c #D9D3CC",
"|. c #CFCFD3",
" X c #D6D6DC",
".X c #DBDADC",
"XX c #D4D3D4",
"oX c #E5DECC",
"OX c #E4D3C5",
"+X c #E2DCD9",
"@X c #EDE8DD",
"#X c #DBDBE2",
"$X c #E5E3E4",
"%X c #ECEBEB",
"&X c #ECE9E4",
"*X c #F1EEE9",
"=X c #F3F2F3",
"-X c #F8F7F6",
";X c #FFFFFF",
":X c #F2F0EE",
/* pixels */
";X;X;X;X;X;X;X;X;X;X;X;X;X;X;X;X;X;X;X;X;X;X;X;X;X;X;X;X;X;X;X;X;X;X;X;X;X;X;X;X;X;X;X;X;X;X;X;X;X;X;X;X;X;X;X;X;X;X;X;X;X;X;X;X",
";X;X;X;X;X;X;X;X;X;X;X;X;X;X;X;X;X;X;X;X;X;X;X;X;X;X;X;X;X;X;X;X;X;X;X;X;X;X;X;X;X;X;X;X;X;X;X;X;X;X;X;X;X;X;X;X;X;X;X;X;X;X;X;X",
";X;X;X;X;X;X;X;X;X;X;X;X;X;X;X;X;X;X;X;X;X;X;X;X;X;X;X;X;X;X;X;X;X;X;X;X;X;X;X;X;X;X;X;X;X;X;X;X;X;X;X;X;X;X;X;X;X;X;X;X;X;X;X;X",
";X;X;X;X;X;X;X;X;X;X;X;X;X;X;X;X;X;X;X;X;X;X;X;X;X;X;X;X;X;X;X;X;X;X;X;X;X;X;X;X;X;X;X;X;X;X;X;X;X;X;X;X;X;X;X;X;X;X;X;X;X;X;X;X",
";X;X;X;X;X;X;X;X;X;X;X;X;X;X;X;X;X;X;X;X;X;X;X;X;X;X;X;X;X;X;X;X;X;X;X;X;X;X;X;X;X;X;X;X;X;X;X;X;X;X;X;X;X;X;X;X;X;X;X;X;X;X;X;X",
";X;X;X;X;X;X;X;X;X;X;X;X;X;X;X;X;X;X;X;X;X;X;X;X;X;X;X;X;X;X;X;X;X;X;X;X;X;X;X;X;X;X;X;X;X;X;X;X;X;X;X;X;X;X;X;X;X;X;X;X;X;X;X;X",
";X;X;X;X;X;X;X;X;X;X;X;X;X;X;X;X;X;X;X;X;X;X;X;X;X;X;X;X;X;X;X;X;X;X;X;X;X;X;X;X;X;X;X;X;X;X;X;X;X;X;X;X;X;X;X;X;X;X;X;X;X;X;X;X",
";X;X;X;X;X;X;X;X;X;X;X;X;X;X;X;X;X;X;X;X;X;X;X;X;X;X;X;X;X;X;X;X;X;X;X;X;X;X;X;X;X;X;X;X;X;X;X;X;X;X;X;X;X;X;X;X;X;X;X;X;X;X;X;X",
";X;X;X;X;X;X;X;X;X;X;X;X;X;X;X;X;X;X;X;X;X;X;X;X;X;X=X=X=X=X=X=X=X=X=X=X=X=X#X#X;X;X;X;X;X;X;X;X;X;X;X;X;X;X;X;X;X;X;X;X;X;X;X;X",
";X;X;X;X;X;X;X;X;X;X;X;X;X;X;X;X;X;X;X;X;X;X;X;X-X-X#X#X#X#X#X#X#X#X#X#X|.].d.B.;X;X;X;X;X;X;X;X;X;X;X;X;X;X;X;X;X;X;X;X;X;X;X;X",
";X;X;X;X;X;X;X;X;X;X;X;X;X;X;X;X;X;X;X;X;X;X;X-X$X#X#X#X#X#X#X#X#X#X#X|.B.d.l.S.-X-X-X;X;X;X;X;X;X;X;X;X;X;X;X;X;X;X;X;X;X;X;X;X",
";X;X;X;X;X;X;X;X;X;X;X;X;X;X;X;X;X;X;X;X;X-X%X#X#X#X#X#X#X#X#X#X#X#X`.j.j.j.#X#X#X#X#X=X-X;X;X;X;X;X;X;X;X;X;X;X;X;X;X;X;X;X;X;X",
";X;X;X;X;X;X;X;X;X;X;X;X;X;X;X;X;X;X;X;X%XD.].#X#X#X#X#X#X#X#X#X XD.'.#X#X#X#X#X#X#X#X#X#X;X;X;X;X;X;X;X;X;X;X;X;X;X;X;X;X;X;X;X",
";X;X;X;X;X;X;X;X;X;X;X;X;X;X;X;X;X;X;XC J D.D.D.D.F.#X#X#X#X#X#X#X#X#X#X#X#X#X#X#X].D.l.j.d.S.;X;X;X;X;X;X;X;X;X;X;X;X;X;X;X;X;X",
";X;X;X;X;X;X;X;X;X;X;X;X;X;X;X;X;X;X;Xg C C j.D.D.D.F.F.F.|.#X#X#X#X#X#X#X#X#X#X#X#X#XD.S.d.S.;X;X;X;X;X;X;X;X;X;X;X;X;X;X;X;X;X",
";X;X;X;X;X;X;X;X;X;X;X;X;X;X;X;X;X;X;X#X`.g d.D.D.D.D.D.D.F.F.XX#X#X#X#X#X#X#X#X#X#X#X#X Xd.S.;X;X;X;X;X;X;X;X;X;X;X;X;X;X;X;X;X",
";X;X;X;X;X;X;X;X;X;X;X;X;X;X;X;X;X;X;X;XXXg s.D.F.D.F.S.l.l.k.(.(.(.(.(.(.(.+X#X#X#X#X#X#Xd.S.;X;X;X;X;X;X;X;X;X;X;X;X;X;X;X;X;X",
";X;X;X;X;X;X;X;X;X;X;X;X;X;X;X;X;X;X;XF K P d.z.I.P.z.k.d.b.I.Y.!.!.!.!.!.Y.(._.C.l.s.]. Xd.S.;X;X;X;X;X;X;X;X;X;X;X;X;X;X;X;X;X",
";X;X;X;X;X;X;X;X;X;X;X;X;X;X;X;X;X;X;X. < d.j.d.P.!.d.d.d.1.r.` ` ` ;.!.!.!.` [ d.J g f.j.J l.;X;X;X;X;X;X;X;X;X;X;X;X;X;X;X;X;X",
";X;X;X;X;X;X;X;X;X;X;X;X;X;X;X;X;X;X;X. < j.H h n.M.d.d.d.1.e.<.} 5 ` !.!.!.-.g.J D g k.B.B.`.;X;X;X;X;X;X;X;X;X;X;X;X;X;X;X;X;X",
";X;X;X;X;X;X;X;X;X;X;X;X;X;X;X;X;X;X;X. + Z 1   h m m H b.P.!..X].y 7.!.!.!..X`.C J l.$X;X;X;X;X;X;X;X;X;X;X;X;X;X;X;X;X;X;X;X;X",
";X;X;X;X;X;X;X;X;X;X;X;X;X;X;X;X;X;X;XG G G 1         r e.!.!._./.7.6.!.!.!.OXQ.g B.;X;X;X;X;X;X;X;X;X;X;X;X;X;X;X;X;X;X;X;X;X;X",
";X;X;X;X;X;X;X;X;X;X;X;X;X;X;X;X;X;X;X;X;X;XV.d .   X , ' w.U.!.!.).).!.!.!.).R.L F.;X;X;X;X;X;X;X;X;X;X;X;X;X;X;X;X;X;X;X;X;X;X",
";X;X;X;X;X;X;X;X;X;X;X;X;X;X;X;X;X:X%X&X&X&X$X$Xs . 5 , , ( @.K.!.e.Y.r.~.).-X;X;X;X;X;X;X;X;X;X;X;X;X;X;X;X;X;X;X;X;X;X;X;X;X;X",
";X;X;X;X;X;X;X;X;X;X;X;X-X-X-X-X-Xh.N N B q q w q q . . . Y @.@.$.$.( r Q.:X;X;X;X;X;X;X;X;X;X;X;X;X;X;X;X;X;X;X;X;X;X;X;X;X;X;X",
";X;X;X;X;X;X;X;X;X;X;X;X] M M M M *.>.>.>.>.>.>.>.>.>.>.>.L.!.!.!.!.L.>.n 0 =X;X;X;X;X;X;X;X;X;X;X;X;X;X;X;X;X;X;X;X;X;X;X;X;X;X",
";X;X;X;X;X;X;X;X;X;X;X;X] V ,.>.,.) N >.>.>.>.>.>.>.>.>.>.>.>.Y.!.!.!.!.r.,.w H ;X;X;X;X;X;X;X;X;X;X;X;X;X;X;X;X;X;X;X;X;X;X;X;X",
";X;X;X;X;X;X;X;X;X;X;X;X_ Y @.@.>.,.,.V ) >.>.,.n z >.>.>.>.>.4.4.) ) ) *.>.*.&.l V.;X;X;X;X;X;X;X;X;X;X;X;X;X;X;X;X;X;X;X;X;X;X",
";X;X;X;X;X;X;X;X;X;X;X;X;.@.U.U.P.5.,.:.*.) ) ) w q >.>.>.>.>.>.>.:.:.:.,.>.>.&.q v.;X;X;X;X;X;X;X;X;X;X;X;X;X;X;X;X;X;X;X;X;X;X",
";X;X;X;X;X;X;X;X;X;X_.K.K.K.!.!.!.#.( ( _ B w - @ O ) %.>.>.>.>.>.>.>.>.>.>.>.&.q v.;X;X;X;X;X;X;X;X;X;X;X;X;X;X;X;X;X;X;X;X;X;X",
";X;X;X;X;X;X;X;XoX2.J.e.Y.!.!.e.$.W I W.W.'.F   .   ; e ) :.>.>.>.>.>.>.>.>.>.&.q v.;X;X;X;X;X;X;X;X;X;X;X;X;X;X;X;X;X;X;X;X;X;X",
";X@Xm.m.m.*X-XJ.J.w.K.!.!.U.$.8. .E I -X;X;Xg.        + z n N ) %.[ %.%.n e N ] V.}.;X;X;X;X;X;X;X;X;X;X;X;X;X;X;X;X;X;X;X;X;X;X",
"P.r. . . .I.I.@.w.!.!.!.q.8. .o.t...I -X;X;Xg.      . X q w j B M M M M <   h.A.;X;X;X;X;X;X;X;X;X;X;X;X;X;X;X;X;X;X;X;X;X;X;X;X",
"3.8.X.O.9.! ^ !.!.!.!.!.I U t.t.t.W 8 S.'.;XG.H - X . & w w x -.-.-.] x -   =X;X;X;X;X;X;X;X;X;X;X;X;X;X;X;X;X;X;X;X;X;X;X;X;X;X",
";X_.I  .O.T Y !.!.!.e.4.9 8 3.3.3.D f f J '.'.'.l - * : 6 6 6 A.Q.b.[ 6 =   =X;X;X;X;X;X;X;X;X;X;X;X;X;X;X;X;X;X;X;X;X;X;X;X;X;X",
";XoX+.+.+.T T K.U.!._ 7 7 0 u.u.a.p.d.d.L a a a a a - : 2 2 2 A.A.x t 6 * X [..X;X;X;X;X;X;X;X;X;X;X;X;X;X;X;X;X;X;X;X;X;X;X;X;X",
";X;X;X;X;X` / / ;.U._ 9 8 e a.a.u.p.p.-.f.f.s.j.d.s.p u u u u v.Z.A.} 6 q q . d $X:X;X;X;X;X;X;X;X;X;X;X;X;X;X;X;X;X;X;X;X;X;X;X",
";X;X;X;X;X;X;X;XOX8.W I 9.t.t.X.I l g d g g J d.d.s.d.d.d.d.d.p % % % % l M q 1   g.-X;X;X;X;X;X;X;X;X;X;X;X;X;X;X;X;X;X;X;X;X;X",
";X;X;X;X;X;X;X;X;X;X4.I 9.t.t.X.I z g g g g g g g g g D d.d.d.d.k.D.D.D.P g g g g 1   [.;X;X;X;X;X;X;X;X;X;X;X;X;X;X;X;X;X;X;X;X",
";X;X;X;X;X;X;X;X;X;X4.I 9.0.U U I 0 $ $ $ $ a g g g g g g C g C D D.D.D.D.H.H.H.H.f.g C g C d.;X;X;X;X;X;X;X;X;X;X;X;X;X;X;X;X;X",
";X;X;X;X;X;X;X;X;X;X>.U E E I >.@X@X$Xo O 6 1 u $ u $ p g g g f g A A A f.k.D.D.D.S.C.|.oX+X].z.z.z.z.B.;X;X;X;X;X;X;X;X;X;X;X;X",
";X;X;X;X;X;X;X;X;X;X&XoXoXoXoX&X;X=.j > > 6 2 2 2 2   @ u u u u p g g g C C S S S y.l..X*X*X%X.X.X.X.XXXB.B.B.#X;X;X;X;X;X;X;X;X",
";X;X;X;X;X;X;X;X;X;X;X;X;X;X;X;X;Xc   6 6 6 6 6 6 6     o o o o @ p u u u u g g g C D y.s.p.k.C.XX:X:X%XXXXXXXF.S.S.`.;X;X;X;X;X",
";X;X;X;X;X;X;X;X;X;X;X;X;X;X;X/.H s : 4 6 6 6 6 > :   s B.V.V.V.V.S.S.S.g o u p p p p f g g C S p.k.k.k.D.].:X X].j.k.D. X;X;X;X",
";X;X;X;X;X;X;X;X;X;X;X;X;X;X;Xv.  > 6 6 6 6 6 6 & & x.G.;X;X;X;X;X;X;X;XG.x.@ @ @ @ - i p a p p s g g g J j.F.#X:X'.D.j.`.;X;X;X",
";X;X;X;X;X;X;X;X;X;X;X;X;X%Xv.G   > 6 6 6 6 > 3 F g.;X;X;X;X;X;X;X;X;X;X;X;Xg.=.=.v = + # # # # 1 a a a a f D d.N.'.'.F..X;X;X;X",
";X;X;X;X;X;X;X;X;X;X;X;X;X.X  = > 4 6 6 4 : j F +X;X;X;X;X;X;X;X;X;X;X;X;X;X;X;X;Xk.  & * * * * + @ K L L L L L y.S.'.;X;X;X;X;X",
";X;X;X;X;X;X;X;X;X;X;X;X[.Z.= 3 6 6 6 2 6 v H.;X;X;X;X;X;X;X;X;X;X;X;X;X;X;X;X;X;Xx.. & * * * & X   .X;X;X;X;X;X;X;X;X;X;X;X;X;X",
";X;X;X;X;X;X;X;X;X;X;X;X<   6 6 6 6 6 * b ;X;X;X;X;X;X;X;X;X;X;X;X;X;X;X;X;X;X;X;Xc.* * * * &   < s .X;X;X;X;X;X;X;X;X;X;X;X;X;X",
";X;X;X;X;X;X;X;X;X;X:X$X- = 6 6 6 4 4 < G ;X;X;X;X;X;X;X;X;X;X;X;X;X;X;X;X;X;X;X;Xc.* * * * =   v.;X;X;X;X;X;X;X;X;X;X;X;X;X;X;X",
";X;X;X;X;X;X;X;X;X;XF   4 6 6 6 6 & . -X;X;X;X;X;X;X;X;X;X;X;X;X;X;X;X;X;X;X;X;X;Xc.* * * * =   v.;X;X;X;X;X;X;X;X;X;X;X;X;X;X;X",
";X;X;X;X;X;X;X;X;X;X{   4 6 6 :   F.;X;X;X;X;X;X;X;X;X;X;X;X;X;X;X;X;X;X;X;X;X;X;Xc.* * *   c ;X;X;X;X;X;X;X;X;X;X;X;X;X;X;X;X;X",
";X;X;X;X;X;X;X;XG.& > 6 6 6 6 3   E.;X;X;X;X;X;X;X;X;X;X;X;X;X;X;X;X;X;X;X;X;X{.+ & * * *   c ;X;X;X;X;X;X;X;X;X;X;X;X;X;X;X;X;X",
";X;X;X;X;X;X:Xi <   3 6 6 4   { .X-X;X;X;X;X;X;X;X;X;X;X;X;X;X;X;X;X;X;X;X;X;X{.  X * * *   c ;X;X;X;X;X;X;X;X;X;X;X;X;X;X;X;X;X",
";X;X;X;X;XH v ~ ~ ~ ^ ^ 6 4   } ;X;X;X;X;X;X;X;X;X;X;X;X;X;X;X;X;X;X;X;X;X;X;X{.  * 4 4 4 > 2 j G.;X;X;X;X;X;X;X;X;X;X;X;X;X;X;X",
";X;X;XZ.G k t / / / / / ^ ~ : g.;X;X;X;X;X;X;X;X;X;X;X;X;X;X;X;X;X;X;X;X;X;X;X{.  * 6 6 6 6 2 : j G $X;X;X;X;X;X;X;X;X;X;X;X;X;X",
";X;X;X{.V.Q.W.W.W.W.W.W.W.W.A.}.;X;X;X;X;X;X;X;X;X;X;X;X;X;X;X;X;X;X;X;X;X;X;X%XV.Z.T.T.T.T.T.T.V.V.=X;X;X;X;X;X;X;X;X;X;X;X;X;X",
";X;X;X;X;X;X;X;X;X-X;X;X;X;X;X;X;X;X;X;X;X;X;X;X;X;X;X;X;X;X;X;X;X;X;X;X;X;X;X;X;X;X;X;X;X;X;X;X;X;X;X;X;X;X;X;X;X;X;X;X;X;X;X;X",
";X;X;X;X;X;X;X;X;X;X;X;X;X;X;X;X;X;X;X;X;X;X;X;X;X;X;X;X;X;X;X;X;X;X;X;X;X;X;X;X;X;X;X;X;X;X;X;X;X;X;X;X;X;X;X;X;X;X;X;X;X;X;X;X",
";X;X;X;X;X;X;X;X;X;X;X;X;X;X;X;X;X;X;X;X;X;X;X;X;X;X;X;X;X;X;X;X;X;X;X;X;X;X;X;X;X;X;X;X;X;X;X;X;X;X;X;X;X;X;X;X;X;X;X;X;X;X;X;X",
";X;X;X;X;X;X;X;X;X;X;X;X;X;X;X;X;X;X;X;X;X;X;X;X;X;X;X;X;X;X;X;X;X;X;X;X;X;X;X;X;X;X;X;X;X;X;X;X;X;X;X;X;X;X;X;X;X;X;X;X;X;X;X;X",
";X;X;X;X;X;X;X;X;X;X;X;X;X;X;X;X;X;X;X;X;X;X;X;X;X;X;X;X;X;X;X;X;X;X;X;X;X;X;X;X;X;X;X;X;X;X;X;X;X;X;X;X;X;X;X;X;X;X;X;X;X;X;X;X",
";X;X;X;X;X;X;X;X;X;X;X;X;X;X;X;X;X;X;X;X;X;X;X;X;X;X;X;X;X;X;X;X;X;X;X;X;X;X;X;X;X;X;X;X;X;X;X;X;X;X;X;X;X;X;X;X;X;X;X;X;X;X;X;X",
";X;X;X;X;X;X;X;X;X;X;X;X;X;X;X;X;X;X;X;X;X;X;X;X;X;X;X;X;X;X;X;X;X;X;X;X;X;X;X;X;X;X;X;X;X;X;X;X;X;X;X;X;X;X;X;X;X;X;X;X;X;X;X;X"
};
