/* XPM */
static char *_a4a45f091264cabfc2e9ae98d420bf4QhTZnK6rUOsyFbHr[] = {
/* columns rows colors chars-per-pixel */
"64 64 140 2 ",
"   c #1E3010",
".  c #213511",
"X  c #253E11",
"o  c #274112",
"O  c #294414",
"+  c #2D4B16",
"@  c #2E4C18",
"#  c #304F19",
"$  c #2F5215",
"%  c #315117",
"&  c #345D17",
"*  c #33551B",
"=  c #345619",
"-  c #345719",
";  c #34561A",
":  c #34561C",
">  c #34571C",
",  c #35571C",
"<  c #32531B",
"1  c #345819",
"2  c #35581A",
"3  c #35591A",
"4  c #35591B",
"5  c #36591B",
"6  c #355A1B",
"7  c #365B1B",
"8  c #375B1B",
"9  c #365C1B",
"0  c #375C1B",
"q  c #375D1B",
"w  c #375F1B",
"e  c #35581C",
"r  c #35591C",
"t  c #36591C",
"y  c #365A1C",
"u  c #365B1C",
"i  c #375B1C",
"p  c #375B1D",
"a  c #375C1C",
"s  c #375C1D",
"d  c #375D1D",
"f  c #375E1C",
"g  c #365A1C",
"h  c #385D1B",
"j  c #385E1B",
"k  c #385D1D",
"l  c #385E1C",
"z  c #395F1C",
"x  c #385E1D",
"c  c #395F1D",
"v  c #385E1D",
"b  c #366017",
"n  c #376117",
"m  c #376218",
"M  c #376318",
"N  c #376218",
"B  c #386318",
"V  c #38601B",
"C  c #39621B",
"Z  c #39631B",
"A  c #396518",
"S  c #396519",
"D  c #396719",
"F  c #3A6719",
"G  c #39641B",
"H  c #3A651B",
"J  c #3B661B",
"K  c #3B671B",
"L  c #39601C",
"P  c #39601D",
"I  c #3A601C",
"U  c #3A631C",
"Y  c #3A621D",
"T  c #3B631D",
"R  c #3A611E",
"E  c #3A621E",
"W  c #3B621E",
"Q  c #3B631E",
"!  c #3B651D",
"~  c #3C641D",
"^  c #3C641E",
"/  c #3C651E",
"(  c #3D651F",
")  c #3D661E",
"_  c #3D661F",
"`  c #3D671F",
"'  c #3E671F",
"]  c #3B641E",
"[  c #3A6818",
"{  c #3A6919",
"}  c #3B6919",
"|  c #3D6E1A",
" . c #3E6F1A",
".. c #3B681C",
"X. c #3C6A1C",
"o. c #3D6B1C",
"O. c #3E681F",
"+. c #3E691F",
"@. c #3F6B1E",
"#. c #3F6A1F",
"$. c #3F6B1F",
"%. c #3D6C1C",
"&. c #3E6E1C",
"*. c #3E6F1C",
"=. c #3F6C1E",
"-. c #3E681F",
";. c #3F711C",
":. c #3F711B",
">. c #406D1E",
",. c #406E1E",
"<. c #406F1E",
"1. c #406E1E",
"2. c #40731A",
"3. c #40701C",
"4. c #40721C",
"5. c #40731C",
"6. c #41721D",
"7. c #41731D",
"8. c #40701E",
"9. c #41711E",
"0. c #41721E",
"q. c #41741D",
"w. c #42741D",
"e. c #42751D",
"r. c #41761C",
"t. c #42771C",
"y. c #42761D",
"u. c #42771D",
"i. c #43771D",
"p. c #42741D",
"a. c #43791B",
"s. c #42781C",
"d. c #43791C",
"f. c #43781D",
"g. c #43791D",
"h. c #437A1C",
"j. c #437B1C",
"k. c #447B1C",
"l. c #447C1C",
"z. c #447C1C",
/* pixels */
"O.O.u < @ o X < W O.=.l.l.l.l.l.l.l.l.O.O.u < < < < < O X X X     # < < < < ' ' O.O.O.` : < < < < @       b l.M               o ",
"O.O.W u # + @ d / O.=.5.l.l.q.g.l.g.5.O.( u < < < < < O O @ O . O < < < < < ' ' O.O.R @ O < < < < < & 6 X M l.M       + @ O   o ",
"O.O.' c < < : ( O.O.O.O.g.g.=.5.q.;.( O.O.u < < < < < O @ < < X < < < < < < ' ' O.O.p o o < < < < 6 l.l.O { l.{ X X   6 O.< X X ",
"O.O.O.c < < < ( O.O.O.O.O.O.O.O.c < : O.O.u < < < < < < < < < < < < < < < < < ' O.( R < : < < < < 6 l.l.l.l.l.l.l.l.  d O.O.W X ",
"O.O.d : < < < > > W ' ' u ' ' ' ( R ( O.p < @ X < < < < < < < < < < < < < < < : r r : < < < < : < < $ l.l.l.l.l.l.l.K q.5.O.T # ",
"O.O.c u u u < < > W ' / < ' O.O.O.O.O.O.p < O . @ < < @ @ @ @ < < < < < # @ < < # @ < < < < < : 6 < o l.l.l.l.l.l.q.l.l.5.( ' u ",
"O.' ' O.' / < < W O.' / < ' O.O.O.O.O.O.' p O     < < .     . < < < < < #   < < . . @ < < < : d ` P o l.l.l.l.l.l.O.g.l.5.O.' ' ",
"O.u W ' ' ' < < W O.W : < ' O.O.O.O.O.O.( # .     . .       . < < . @ : @         @ E ( ( < E _ O.` / l.l.;.;.l.k.O.$.O.O.O.' ' ",
"O.> 6 d d % + < u > # + < d O.O.& & ' ' * O X . O X         . o O   X O X         # _ _ O.d _ O.O.O.O.q.5.T B =.5.' O.O.O.O.O.O.",
"' > < < @ X X < < + o o < < W O.& O ' J O o . X < < .                             @ _ O.O.O.O.O.O.O.O.O.( u > 6 O.O.O.O.O.O.O.O.",
"< < < < < < < < < < < < < < : O o X o o o X + < < < < .                             O O.O.O.O.O.O.O.( O.$.( ' ' O.O.O.O.O.O.O.O.",
"+ O < < < < < d P u < < < : # + X o X o o % & 8 < < c : X           . .             X p p O.O.O.O.O.( % T $.8 % % O.O.O.O.' ' p ",
"X X + < < < < ' ' c < : : : : + + O o + + x O.( : : ' O.+ X X       X X X           . < : ( _ E T ' ' X & B % X + O.O.O.O.O.' : ",
"X o + < < < < / ' d u O.` O.> %.l.| o l.l.<.O.O.' ' O.O.O.' d     X X .               . : ( _ # < ' ' X X o X + O.O.O.O.O.O.O.' ",
"o X O % W < W ' O.' ' O.O.O.;.g.l.h.=.l.l.<.O.O.O.O.O.O.' ' ' h p O X .             X @ < : ( < O O O o o X o + O.O.O.O.O.O.O.O.",
"X X o % W d O.O.O.' O.O.O.O.5.q.g.l.l.l.l.<.$.8.$.O.O.O.' W ' ' ` @ X X             . : < : ( : + o X o X o o O 6 O.O.9 W ' ' W ",
"  X o % O.O.O.O.$.' $.' ' ' $.' 5.g.l.l.l.,.0.g.g.>.' O.d u ' ' K + o X .           X < < >.' >.- o X X o X X o O K O.+ * O.' < ",
"X X o % O.O.< ' w.l.0.>.l.g.g.5.$.,.l.l.,.$.0.l.q.< ' O.u u ' ' = o X o X X         . X X o h K - X X o X o o X o * * O b k.2.< ",
"X X X O % % < 9 5.g.g.w.l.l.l.w.5.w.l.l.w.5.w.g.F < p c u > u < + X X X X X       . X X X X $ % + X o X X X O O o * J # F l.t.F ",
"X X X X o o < < 5.g.l.l.l.l.l.l.g.g.l.l.l.l.g.5.* < < < < < # X X X o X o X       . o X X X X o X X X o o o + + o * k.B O.l.l.g.",
"    X X o o * < T 5.g.l.l.l.l.l.l.l.l.g.l.l.l.l.t.< < < < % X o o X o X X X       . X X   X X .     o X X o + < * O.g.l.l.l.l.l.",
"  . X X o + < < > T 5.l.l.l.l.l.2.K l.g.l.O.<.l.t.< < < + o o X X o o X X .       . .     . .     . X o o X + < * O.,.g.q.q.l.l.",
"  X X o o < u > < c 5.l.l.g.g.l.O.6 5.5.5.h B 2.,.< < < + O o X o X X o X . .                     . o X o O + * W W O.5.,.,.l.l.",
"  X o X X o O.O.u c ,.l.g.$.g.g.%.< < < < < < < < < < < < < # X X o X X X o X                     . - o $ % % B t.< ' O.O.5.l.l.",
"          X ' ( ' ' O.=.,.> u T W 6 T ' < < < < < < < < < < < # X o o X o o X                   X @ < X o + B h.h.W O.O.O.O.=.=.",
"      X + + =.;.O.O.O.O.( c u T / 9 ' ' > < < < < < < < < < < < o X X o X X X           . .     X O O o o 6 =.l.h.O.,.O.O.O.O.O.",
"      % q.>.l.l.,.O.O.O.O.O.O.O.O.O.' O.> < < < < < < < < < < < X X o o X X             X o           o o [ l.l.h.O.l.,.O.O.O.O.",
"    & l.l.l.l.l.,.5.l.g.O.O.O.O.O.O.O.O.< < < < > ' < < + X X X X o X .         . X X   o X o .   X k.l.O [ l.l.l.l.l.,.O.O.O.O.",
"O X B l.l.l.l.l.q.g.l.l.5.O.$.,.5.5.$.p > u u > c ( c # o X X X . X o .         X X X X X o o o @ N l.l.F 2.g.l.k.k.g.,.O.O.O.O.",
"< O F l.l.l.l.l.l.l.l.l.l.$.$.q.l.q.( > > T c c ( $.T + X X X X   X X .         . X X o o X o + / l.l.l.g.g.l.l.l.k.g.,.O.O.O.O.",
"< T q.k.l.l.l.l.l.l.l.l.l.l.l.l.l.g.O.O.( ( $.( $.$.> O X X X                     X O < : o @ : / l.l.l.l.5.5.k.h.O.O.O.O.O.O.O.",
"< ' >.5.l.l.l.l.l.l.l.l.l.l.l.l.q.,.O.O.( $.W > u ( R + X o X X   . X .     + O < 9 6 < W 6 : < N =.=.l.g.,.>.,.,.O.q.,.5.q.q.O.",
"u T ,.w.l.l.l.l.l.l.l.l.l.F F ,.>.>.< >.>.h = $ = } | o X X X X . X X . . o & % W O.W d O.O.d d / =.=.l.l.q.O.>.,.,.l.5.w.l.g.$.",
"( >.q.l.l.l.l.l.l.l.l.l.l.    < >.,   >.>.$ X O < >.} o     o o X X o X $ [ >.= W O.O.O.O.O.O.q.l.l.l.l.l.l.q.,.l.g.l.l.l.l.g.( ",
"O.O.w.l.g.O.l.l.l.l.l.l.l.:.X .   .   .   X X o o O o .   o o X o X X o O < >.I ' O.O.O.O.O.;.l.l.l.l.l.l.l.l.g.l.l.l.l.l.w.$.' ",
"O.O.,.5.q.5.l.l.l.l.l.l.l.l.X             . X X X X o . X o X o X o o X + , >.>.O.W W ' O.O.g.l.g.q.q.l.l.l.l.l.l.l.l.l.l.5.$.' ",
"O.O.O.O.,.k.k.l.l.l.l.l.g.g.O               . X o X X o X o X X X X X X + >.T ( ' d u ' O.O.q.l.q.O.O.l.l.l.l.l.l.l.l.l.l.5.( ( ",
"O.O.O.O.,.k.l.l.l.l.[ O g..               . X X X o o X X o o X X X X + * >.' < < < < : O.O.O.O.O.O.O.O.h.l.5.,.l.l.l.l.l.B   . ",
"O.O.O.O.,.k.2.h.l.l.[ O * .               X X X . . X X o X X o + + # # < p p < < < < : O.O.O.O.O.' O.O.=.;.=.,.l.l.5.q.N O     ",
"O.O.O.O.,.q.' h.l.h.M o X . . .           . X X   . X X X X o X < < < < < < < < < < < u O.O./ ' ' / / ' O.O.O.=.g.g.W K +       ",
"O.O.$.' $.$.( g.k.J + X X < < X                   o o o X X o X < < < < < < < < < < < > ' O.u h W < : O.O.O.O.O.O.O..           ",
"g.w.$.' ( ( u c 8 , < + X < # X                   o o X X o X o + # < < < < < < < < < < > > < ' t.=./ w.q.=.W c O.O.X X X X .   ",
"l.l.,.$.=.' u < < % % + X % + X                   X   X o o X X X + # # < < < B B 6 > c B W 6 K h.h.,.l.l.5.c < W W O o X X X   ",
"l.l.5.9.q.O.' < < + X X o X                           X X X o X X X X O < < < g.g./ B g.l.l.9 %.l.l.l.l.l.,.c < < < < O X X X   ",
"l.l.l.g.l.h.O.< < O X o X X . . . X X . . X .       X X o X X o X X + < < < < w.l.g.g.l.l.l.k.h.l.l.l.l.l.k.2.W < < o o X .     ",
"l.l.l.q.=.l.P + % + o X o X . . X X X . X X .       X X X X o X X + # < < < < J g.l.l.l.l.l.l.l.l.l.l.l.l.l.w.O.< * o o X X X . ",
"h.k.l.{ 9 g.< o $ O o X X o X X X o X o X X .       X o o X o o o # # < < < < > ;.g.l.l.l.l.l.g.h.l.l.l.k.l.k.<.* < o o o X X X ",
"< t.l.b O < < o o X X o X X X = >.z X X X .         X X o X o < >.>.p p ' ( < w.l.5.O.O.l.l.,.O.;.l.l.l.O.t.k.t.' < ' O.% X X X ",
"< O.=.& O W W O o X X o X X o - O.' p @ @ .         . X X X O R O.O.u d O.' W g.g.5.O.t.k.k.t.<.O.5.,.,.O.=.;.,.( W ' O.% X X . ",
"* ' O.6 % O.O.+ o o o X o X X $ E ' R < : X           . X o + ` O.O.d c O.O.O.q.g.,.5.l.k.k.k.t.=.=.O.O.O.O.O.O.O.O./ ' % X X   ",
"O.O.O.O.O.O.O.O.+ X o X X o o X # E < < < X             . o @ O.O.O.O.O.O.O.O.O.O.O.,.k.l.l.l.l.l.g.O.O.' O.O.O.O.O.: W % X o X ",
"O.O.O.O.O.O.O.O.+ o X o X h B + < O.R < .               . X X X X W O.O.O.O.O.O.O.O.2.l.l.+ :.l.=.d O.O.' c c ' ( > < : < + X o ",
"B ( O.O.O.O.O.6 O O + # o J >.= d O.O.< O             . X X .     + < u O.O.W c ' O.' A A o & A 9 6 W c W < d ' ' < < < < + o o ",
"< ' O.O.O.O.O.O X < >.T X } >.>.` ` O.< : X           . o .           O ( ( < < W O.6 X o X X X O < < < < < c O.' < < < < + o X ",
"( O.O.O.O.O.O.' >.T ' ' >.' T >.` $.` ( ( O                             X < < < < + o X o o o o + < < < < < < < < < < < < < < < ",
"( O.O.O.O.O.O.O.c p c ' ( ' ' R ` ` ` ( ( : X                           . O < < O o o o = % O + 6 6 < < + + @ < < + O < < < < 9 ",
"$.( $.' O.O.O.O.c * c >.>.' ' ' O.O._ O.O.O.#           .       .           < # . . O @ O.O.@ 6 O./ < : O o + < # o O # < < > O.",
"( $.( ( O.O.O.l.g.0.,.l.g.' O.O.O.R : _ O.O.#         @ < @ . < : .               . @ O.O.O.O.O.O.O.O.# : / O.W < < / ' O.W > O.",
"$.( ( ,.g.q.O.g.l.k.g.l.l.+ W O.R : < p p # X   @ @ . @ < @ @ < < .       @ @     X > ( O.O.O.O.O.O.O.: d / O.W < < ' ' ' ' / ' ",
"T ( >.5.l.l.,.g.l.l.k.l.l.o 6 W p < < < < @ X O < < . @ < : < < < X . X X < < X . o u R O.O.O.O.O.O./ : / O./ d < < W W W / O.O.",
"> T ( 5.l.l.l.l.l.l.l.l.l.o % < < < < < < : : : < < < < < < < < < < < < < < < < X O < : O.O.O.' O.O.' < / O.P : < < < < < u ' ' ",
"O c ( $.h X l.l.l.l.l.l.l.t.6 < < < < < < R ( ` R < < < < < < < < < < < < < < < @ # : ` O.: : W O.O.O./ O.O.( / W < < < d ' O.O.",
"X # c $.6 . & & :.l.:.b l.l.9 < < < < @ @ p ` ` ( p < < < < < < @ < < @ @ < < < < < u O.O.d W =.<.<.;.$.O.O.O.O./ < < < d O.O.O.",
"X . < ( 6       A l.b X l.l.6 < < < < X X : ` ( ( ( < < < < < < X @ @ @ @ : < < < < u O.O.O.g.g.5.=.l.l.O.O.O.O.( < < < W O.O.O."
};
