/* XPM */
static char *result[] = {
/* columns rows colors chars-per-pixel */
"64 64 62 1 ",
"  c #274267",
". c #2A4367",
"X c #2A4569",
"o c #2B4A6A",
"O c #314569",
"+ c #314B6A",
"@ c #3C4C69",
"# c #2E536C",
"$ c #2F596F",
"% c #31556D",
"& c #315A6F",
"* c #315C70",
"= c #356568",
"- c #366A69",
"; c #3C7A67",
": c #3A7569",
"> c #3C7A68",
", c #346372",
"< c #366B74",
"1 c #386E75",
"2 c #397377",
"3 c #3A7678",
"4 c #3C7B79",
"5 c #414C68",
"6 c #42506A",
"7 c #4C536A",
"8 c #545369",
"9 c #5A5668",
"0 c #5D586A",
"q c #635A69",
"w c #6B5E6A",
"e c #705F69",
"r c #6F6069",
"t c #766169",
"y c #7C6469",
"u c #82666A",
"i c #856869",
"p c #8C6A69",
"a c #956E69",
"s c #986F6A",
"d c #9C716A",
"f c #A4746A",
"g c #AA766A",
"h c #3F8168",
"j c #3E827B",
"k c #408468",
"l c #42896D",
"z c #438E71",
"x c #40877D",
"c c #418B7E",
"v c #459274",
"b c #44927E",
"n c #479A7B",
"m c #499E7E",
"M c #4AA07F",
"N c #438F80",
"B c #459481",
"V c #479A82",
"C c #489E84",
"Z c #4AA485",
"A c #4CA987",
"S c None",
/* pixels */
"SSSSSSSSSSSSSSSSSSSSSSSSSSSSSSSSSSSSSSSSSSSSSSSSSSSSSSSSSSSSSSSS",
"SSSSSSSSSSSSSSSSSSSSSSSSSSSSSSSSSSSSSSSSSSSSSSSSSSSSSSSSSSSSSSSS",
"SSSSSSSSSSSSSSSSSSSSSSSSSSSSSSSSSSSSSSSSSSSSSSSSSSSSSSSSSSSSSSSS",
"SSSSSSSSSSSSSSSSSSSSSSSSSSSSSSSSSSSSSSSSSSSSSSSSSSSSSSSSSSSSSSSS",
"SSSSSSSSSSSSSSSSSSSSSSSSSSSSSSSSSSSSSSSSSSSSSSSSSSSSSSSSSSSSSSSS",
"SSSSSSSSSSSSSSSSSSSSSSSSSSSSSSSSSSSSSSSSSSSSSSSSSSSSSSSSSSSSSSSS",
"SSSSSSSSSSSSSSSSSSSSSSSSSSSSSSSSSSSSSSSSSSSSSSSSSSSSSSSSSSSSSSSS",
"SSSSSSSSSSSSSSSSSSSSSSSSSSSSSSSSSSSSSSSSSSSSSSSSSSSSSSSSSSSSSSSS",
"SSSSSSSSSSSSSSSSSSSSSSSSSSSSSSSSSSSSSSSSSSSSSSSSSSSSSSSSSSSSSSSS",
"SSSSSSSSSSSSSSSSSSSSSSSSSSSSSSSSSSX** XSSSSSSSSSSSSSSSSSSSSSSSSS",
"SSSSSSSSSSSSSSSSSSSSSSSSSooXSSSS oBZAV<XX  XXSSSSSSSSSSSSSSSSSSS",
"SSSSSSSSSSSSSSSSSSSSSSSSX=-$XXX$3ZAAAAAZVVZB$XSSSSSSSSSSSSSSSSSS",
"SSSSSSSSSSSSSSSSSSSSSSSo:km jZAAAAAAAAAAAAAACXSSSSSSSSSSSSSSSSSS",
"SSSSSSSSSSSSSSSSSSSSSS :hZ4*AAAAAAAAAAAAAAAAA4XSSSSSSSSSSSSSSSSS",
"SSSSSSSSSSSSSSSSSSSSoo:lZA*4AAAAAAAAAAAAAAAAAA< SSSSSSSSSSSSSSSS",
"SSSSSSSSSSSSSSSSSo #-vZAZNXCAAAAABCAACCAAAAAAAANoXSSSSSSSSSSSSSS",
"SSSSSSSSSSSSSSSSX=>mAAAAxXjAAAAAB#Xoo X,AAAAAAAAA,XSSSSSSSSSSSSS",
"SSSSSSSSSSSSSSSo-hvAAAAcXNAAAAAAAAZNBAC$NAAAAAAAABXSSSSSSSSSSSSS",
"SSSSSSSSSSSSSSSX>knAAAA&3AAAAAAAAAAAAAAAAAAAAAAAANXSSSSSSSSSSSSS",
"SSSSSSSSSSSSSSS >kmACAA&jAAAAAAAAAAAAAAAAAAAAAAAAxoSSSSSSSSSSSSS",
"SSSSSSSSSSSSSSS.hhb#oAA4*AAAAAAAAAAAAAAAAAAAAAAAAjXSSSSSSSSSSSSS",
"SSSSSSSSSSSSSSSolh,<AAZZXVAAZoZAAAAAAAAAAAAAAAAAACXSSSSSSSSSSSSS",
"SSSSSSSSSSSSSSo=hvoBAAAA*4AAA*,BAAAAAAAAAAAAAAAAAA,XSSSSSSSSSSSS",
"SSSSSSSSSSSSSo#hlm ZAAAA,3AAAC,oXBAAAAAAAAAAAAAAAAxXSSSSSSSSSSSS",
"SSSSSSSSSSSSS.;kM$1AAAAA*jAAAAAACAAAAAAAAAAAAAAAAANXSSSSSSSSSSSS",
"SSSSSSSSSSSSo=hvj#ZAAAAA#xAAAAAAAAAAAAAAAAAAVAAAAVoSSSSSSSSSSSSS",
"SSSSSSSSSSSS.;knBbAAAACA,,AAAAAAAAAAAAAAAAA,$AAABoXSSSSSSSSSSSSS",
"SSSSSSSSSSSSo-kvAAAAAA#BCo$BAAAAAAAAAAAAAA,#ZAAAo SSSSSSSSSSSSSS",
"SSSSSSSSSSSSSX;kZAAAAZ ZAA3X1AAAZNN,oX#<3*$CAAANoSSSSSSSSSSSSSSS",
"SSSSSSSSSSSSSo#klZAAA3$AAAAB3AAAV$XXy+11*2ZAAAA1XSSSSSSSSSSSSSSS",
"SSSSSSSSSSSSSSX=hvAA$obB#N$ZABNZAZ+re#AAAAAAAABoSSSSSSSSSSSSSSSS",
"SSSSSSSSSSSSSSS#klAAmZAj#A,XXo X#*6fOjAAAAB<*#XXSSSSSSSSSSSSSSSS",
"SSSSSSSSSSSSSSS kkZAAAA<,AZ46g531Xdw$AAAAAx24N$SSSSSSSSSSSSSSSSS",
"SSSSSSSSSSSSSSS >kmZAB,XO%xx6gq*oufXNAAAAAAAAA#SSSSSSSSSSSSSSSSS",
"SSSSSSSSSSSSSSSX;knC&XOsfr+o7gp.0ge%AAAAAAAAAAoSSSSSSSSSSSSSSSSS",
"SSSSSSSSSSSSSSSo-kvC4b%8fgfudggggg5jAAAAAAAAAV SSSSSSSSSSSSSSSSS",
"SSSSSSSSSSSSSSSSX-kmAAZ*@dgggggggfXVAAAAAAAAN#XSSSSSSSSSSSSSSSSS",
"SSSSSSSSSSSSSSSSSo.%-nZA<OpggggggaXAAAAAAN,X SSSSSSSSSSSSSSSSSSS",
"SSSSSSSSSSSSSSSSSSSSoo>lM4.ugggggp+AAAAC*XXSSSSSSSSSSSSSSSSSSSSS",
"SSSSSSSSSSSSSSSSSSSSSSX;lmjofggggp+AAAZ#XSSSSSSSSSSSSSSSSSSSSSSS",
"SSSSSSSSSSSSSSSSSSSSSSSo;kZ%yggggp+AZZ$XSSSSSSSSSSSSSSSSSSSSSSSS",
"SSSSSSSSSSSSSSSSSSSSSSSXX-:%eudggu+NN$XSSSSSSSSSSSSSSSSSSSSSSSSS",
"SSSSSSSSSSSSSSSSSSSSSSSSSoXXw8pggu XXSSSSSSSSSSSSSSSSSSSSSSSSSSS",
"SSSSSSSSSSSSSSSSSSSSSSSSSSSXqpgggy+SSSSSSSSSSSSSSSSSSSSSSSSSSSSS",
"SSSSSSSSSSSSSSSSSSSSSSSSSSSXq5uggyOSSSSSSSSSSSSSSSSSSSSSSSSSSSSS",
"SSSSSSSSSSSSSSSSSSSSSSSSSSS.q5ugge+SSSSSSSSSSSSSSSSSSSSSSSSSSSSS",
"SSSSSSSSSSSSSSSSSSSSSSSSSSS.q@ugguOSSSSSSSSSSSSSSSSSSSSSSSSSSSSS",
"SSSSSSSSSSSSSSSSSSSSSSSSSSS 95uggeOSSSSSSSSSSSSSSSSSSSSSSSSSSSSS",
"SSSSSSSSSSSSSSSSSSSSSSSSSSSX95uggtOSSSSSSSSSSSSSSSSSSSSSSSSSSSSS",
"SSSSSSSSSSSSSSSSSSSSSSSSSSS 95ugguXSSSSSSSSSSSSSSSSSSSSSSSSSSSSS",
"SSSSSSSSSSSSSSSSSSSSSSSSSSSX06pggiOSSSSSSSSSSSSSSSSSSSSSSSSSSSSS",
"SSSSSSSSSSSSSSSSSSSSSSSSSSSXqfgggpXSSSSSSSSSSSSSSSSSSSSSSSSSSSSS",
"SSSSSSSSSSSSSSSSSSSSSSSSSSSOwgggga SSSSSSSSSSSSSSSSSSSSSSSSSSSSS",
"SSSSSSSSSSSSSSSSSSSSSSSSSSSX8ggggtXSSSSSSSSSSSSSSSSSSSSSSSSSSSSS",
"SSSSSSSSSSSSSSSSSSSSSSSSSSSSXO89@XSSSSSSSSSSSSSSSSSSSSSSSSSSSSSS",
"SSSSSSSSSSSSSSSSSSSSSSSSSSSSSSSSSSSSSSSSSSSSSSSSSSSSSSSSSSSSSSSS",
"SSSSSSSSSSSSSSSSSSSSSSSSSSSSSSSSSSSSSSSSSSSSSSSSSSSSSSSSSSSSSSSS",
"SSSSSSSSSSSSSSSSSSSSSSSSSSSSSSSSSSSSSSSSSSSSSSSSSSSSSSSSSSSSSSSS",
"SSSSSSSSSSSSSSSSSSSSSSSSSSSSSSSSSSSSSSSSSSSSSSSSSSSSSSSSSSSSSSSS",
"SSSSSSSSSSSSSSSSSSSSSSSSSSSSSSSSSSSSSSSSSSSSSSSSSSSSSSSSSSSSSSSS",
"SSSSSSSSSSSSSSSSSSSSSSSSSSSSSSSSSSSSSSSSSSSSSSSSSSSSSSSSSSSSSSSS",
"SSSSSSSSSSSSSSSSSSSSSSSSSSSSSSSSSSSSSSSSSSSSSSSSSSSSSSSSSSSSSSSS",
"SSSSSSSSSSSSSSSSSSSSSSSSSSSSSSSSSSSSSSSSSSSSSSSSSSSSSSSSSSSSSSSS",
"SSSSSSSSSSSSSSSSSSSSSSSSSSSSSSSSSSSSSSSSSSSSSSSSSSSSSSSSSSSSSSSS"
};
